<svg width="24" height="24" viewBox="0 0 24 24" fill="none" xmlns="http://www.w3.org/2000/svg">
<path d="M7 21H17" stroke="#ffffff" stroke-width="1.7" stroke-linecap="round" stroke-linejoin="round"/>
<path d="M20.15 10C20.15 11.7765 20.1479 13.0166 20.0179 13.9267C19.8907 14.8173 19.663 15.2131 19.3532 15.4541C18.9978 15.7304 18.3706 15.9366 17.1299 16.0438C15.9097 16.1492 14.2662 16.15 12 16.15V17.85C14.2338 17.85 15.9653 17.8508 17.2763 17.7375C18.5669 17.6259 19.6272 17.3946 20.3968 16.7959C21.212 16.1619 21.5468 15.2452 21.7008 14.1671C21.8521 13.1084 21.85 11.7235 21.85 10H20.15ZM12 16.15C9.73379 16.15 8.09029 16.1492 6.87006 16.0438C5.62941 15.9366 5.00215 15.7304 4.64685 15.4541C4.33701 15.2131 4.10932 14.8173 3.98208 13.9267C3.85207 13.0166 3.85 11.7765 3.85 10H2.15C2.15 11.7235 2.14793 13.1084 2.29917 14.1671C2.45318 15.2452 2.78799 16.1619 3.60315 16.7959C4.37285 17.3946 5.43309 17.6259 6.72369 17.7375C8.03471 17.8508 9.76621 17.85 12 17.85V16.15ZM3.85 10C3.85 8.22345 3.85207 6.98343 3.98208 6.07333C4.10932 5.18269 4.33701 4.78694 4.64685 4.54595C5.00215 4.2696 5.62941 4.06343 6.87006 3.95622C8.09029 3.85077 9.73379 3.85 12 3.85V2.15C9.76621 2.15 8.03471 2.14923 6.72369 2.26253C5.43309 2.37407 4.37285 2.6054 3.60315 3.20405C2.78799 3.83806 2.45318 4.75481 2.29917 5.83292C2.14793 6.89157 2.15 8.27655 2.15 10H3.85ZM12 3.85C14.2662 3.85 15.9097 3.85077 17.1299 3.95622C18.3706 4.06343 18.9978 4.2696 19.3532 4.54595C19.663 4.78694 19.8907 5.18269 20.0179 6.07333C20.1479 6.98343 20.15 8.22345 20.15 10H21.85C21.85 8.27655 21.8521 6.89157 21.7008 5.83292C21.5468 4.75481 21.212 3.83806 20.3968 3.20405C19.6272 2.6054 18.5669 2.37407 17.2763 2.26253C15.9653 2.14923 14.2338 2.15 12 2.15V3.85Z" fill="#ffffff"/>
<path d="M8 21C8.36002 20.9783 8.71114 20.8638 9.02725 20.6651C9.34336 20.4663 9.61634 20.1885 9.82589 19.8522C10.0354 19.5159 10.1762 19.1298 10.2376 18.7226C10.2991 18.3153 10.2797 17.8975 10.1808 17.5" stroke="#ffffff" stroke-width="1.7" stroke-linecap="round" stroke-linejoin="round"/>
<path d="M16 21C15.64 20.9783 15.2889 20.8638 14.9728 20.6651C14.6567 20.4663 14.3837 20.1885 14.1741 19.8522C13.9646 19.5159 13.8239 19.1298 13.7624 18.7226C13.7009 18.3153 13.7204 17.8975 13.8192 17.5" stroke="#ffffff" stroke-width="1.7" stroke-linecap="round" stroke-linejoin="round"/>
</svg>
