<svg width="24" height="24" viewBox="0 0 24 24" fill="none" xmlns="http://www.w3.org/2000/svg">
<path d="M19 9.75024L18.1503 9.72751C18.1501 9.73508 18.15 9.74266 18.15 9.75024H19ZM5 9.75024H5.85C5.85 9.74352 5.84992 9.7368 5.84976 9.73008L5 9.75024ZM5.68 6.75024L6.43801 7.13484C6.52826 6.95697 6.55308 6.75303 6.50814 6.5587L5.68 6.75024ZM9.74 4.26024L9.26722 4.96663C9.44992 5.08891 9.6729 5.13565 9.88933 5.09703L9.74 4.26024ZM12 4.06024L11.9999 4.91028L12.0075 4.91021L12 4.06024ZM14.26 4.24024L14.1181 5.07831C14.3323 5.11458 14.5522 5.06746 14.7328 4.94663L14.26 4.24024ZM18.32 6.73024L17.4919 6.5387C17.4469 6.73308 17.4718 6.93707 17.562 7.11497L18.32 6.73024ZM10.6215 15.5802C10.9417 15.2369 10.9231 14.6991 10.5799 14.3788C10.2367 14.0585 9.69883 14.0771 9.37855 14.4203L10.6215 15.5802ZM9 17.5802H9.85005L9.84995 17.5706L9 17.5802ZM8.15 21.0002C8.15 21.4697 8.53056 21.8502 9 21.8502C9.46944 21.8502 9.85 21.4697 9.85 21.0002H8.15ZM14.6215 14.4203C14.3012 14.0771 13.7633 14.0585 13.4201 14.3788C13.0769 14.6991 13.0583 15.2369 13.3785 15.5802L14.6215 14.4203ZM15 17.5802L14.15 17.5706V17.5802H15ZM14.15 21.0002C14.15 21.4697 14.5306 21.8502 15 21.8502C15.4694 21.8502 15.85 21.4697 15.85 21.0002H14.15ZM9.3145 19.8399C9.75063 19.6662 9.96337 19.1719 9.78968 18.7357C9.61598 18.2996 9.12163 18.0869 8.6855 18.2606L9.3145 19.8399ZM6.18 19.4102L5.90487 20.2145C5.95975 20.2333 6.01642 20.2464 6.07397 20.2536L6.18 19.4102ZM4.28 16.9402L4.78154 16.2539L4.77435 16.2488L4.28 16.9402ZM3.03528 15.651C2.56624 15.6315 2.17022 15.9959 2.15073 16.465C2.13125 16.934 2.49569 17.33 2.96472 17.3495L3.03528 15.651ZM18.15 9.75024C18.15 11.0571 17.7332 12.1068 16.8478 12.8488C15.9388 13.6105 14.4145 14.1502 12 14.1502V15.8502C14.6355 15.8502 16.6112 15.265 17.9397 14.1517C19.2918 13.0187 19.85 11.4434 19.85 9.75024H18.15ZM12 14.1502C9.58551 14.1502 8.06124 13.6105 7.15219 12.8488C6.26678 12.1068 5.85 11.0571 5.85 9.75024H4.15C4.15 11.4434 4.70822 13.0187 6.06031 14.1517C7.38876 15.265 9.36449 15.8502 12 15.8502V14.1502ZM5.84976 9.73008C5.82839 8.82968 6.0305 7.93802 6.43801 7.13484L4.92198 6.36565C4.38736 7.41937 4.12221 8.58916 4.15024 9.77041L5.84976 9.73008ZM6.50814 6.5587C6.35789 5.90909 6.31435 5.18829 6.38277 4.61466C6.41706 4.32716 6.47534 4.11237 6.53804 3.97311C6.6047 3.82503 6.63892 3.84153 6.57595 3.87258L5.82405 2.3479C5.39608 2.55896 5.1403 2.9367 4.9879 3.2752C4.83154 3.62249 4.74169 4.01958 4.69473 4.41333C4.60065 5.2022 4.66211 6.1214 4.85186 6.94179L6.50814 6.5587ZM6.57595 3.87258C6.56536 3.87781 6.62303 3.84826 6.8047 3.86496C6.97835 3.88092 7.20652 3.93396 7.48221 4.03219C8.03314 4.22848 8.67232 4.56847 9.26722 4.96663L10.2128 3.55386C9.53768 3.10202 8.77186 2.687 8.05279 2.4308C7.69348 2.30278 7.32039 2.20519 6.9603 2.17209C6.60822 2.13973 6.19964 2.16268 5.82405 2.3479L6.57595 3.87258ZM9.88933 5.09703C10.586 4.9727 11.2923 4.9102 11.9999 4.91024L12.0001 3.21024C11.1922 3.21019 10.386 3.28155 9.59067 3.42346L9.88933 5.09703ZM12.0075 4.91021C12.7146 4.904 13.4209 4.96025 14.1181 5.07831L14.4019 3.40217C13.606 3.2674 12.7997 3.20319 11.9925 3.21028L12.0075 4.91021ZM14.7328 4.94663C15.3176 4.55519 15.9726 4.221 16.5364 4.02611C16.819 3.92845 17.0539 3.87445 17.2303 3.8571C17.4229 3.83814 17.461 3.87109 17.4199 3.85051L18.1801 2.32998C17.809 2.1444 17.3983 2.13235 17.0638 2.16527C16.713 2.19979 16.3423 2.29454 15.9811 2.41938C15.2574 2.66949 14.4724 3.0753 13.7872 3.53386L14.7328 4.94663ZM17.4199 3.85051C17.327 3.80405 17.357 3.7689 17.4293 3.93335C17.4931 4.0786 17.5538 4.30117 17.5922 4.59347C17.6689 5.17718 17.6391 5.90231 17.4919 6.5387L19.1481 6.92179C19.3409 6.08818 19.3811 5.15831 19.2778 4.37202C19.2262 3.97931 19.1344 3.58813 18.9857 3.24964C18.8455 2.93034 18.603 2.54144 18.1801 2.32998L17.4199 3.85051ZM17.562 7.11497C17.9724 7.92334 18.1746 8.82129 18.1503 9.72751L19.8497 9.77298C19.8815 8.58409 19.6163 7.40604 19.0779 6.34552L17.562 7.11497ZM9.37855 14.4203C8.57674 15.2796 8.13678 16.4147 8.15005 17.5898L9.84995 17.5706C9.84161 16.8326 10.1179 16.1198 10.6215 15.5802L9.37855 14.4203ZM8.15 17.5802V21.0002H9.85V17.5802H8.15ZM13.3785 15.5802C13.8821 16.1198 14.1584 16.8326 14.1501 17.5706L15.8499 17.5898C15.8632 16.4147 15.4233 15.2796 14.6215 14.4203L13.3785 15.5802ZM14.15 17.5802V21.0002H15.85V17.5802H14.15ZM8.6855 18.2606C7.92438 18.5637 7.09888 18.6691 6.28603 18.5669L6.07397 20.2536C7.17175 20.3916 8.2866 20.2493 9.3145 19.8399L8.6855 18.2606ZM6.45513 18.606C6.20342 18.5199 6.07042 18.4141 5.98608 18.3195C5.89424 18.2165 5.82179 18.0838 5.74451 17.8854C5.70443 17.7825 5.67018 17.6818 5.62518 17.5536C5.58322 17.4341 5.53233 17.2921 5.46998 17.1507C5.34354 16.8638 5.1454 16.5199 4.78151 16.254L3.77849 17.6265C3.8046 17.6456 3.84896 17.6879 3.91439 17.8364C3.94798 17.9126 3.98037 18.0005 4.02115 18.1167C4.05888 18.2242 4.10682 18.3648 4.16049 18.5026C4.27071 18.7855 4.43201 19.1309 4.71704 19.4507C5.00958 19.7789 5.39658 20.0406 5.90487 20.2145L6.45513 18.606ZM4.77435 16.2488C4.26509 15.8847 3.66075 15.677 3.03528 15.651L2.96472 17.3495C3.25998 17.3618 3.54526 17.4598 3.78565 17.6317L4.77435 16.2488Z" fill="#ffffff"/>
</svg>
