<svg width="24" height="24" viewBox="0 0 24 24" fill="none" xmlns="http://www.w3.org/2000/svg">
<path d="M4 15V18C3.73478 18 3.48043 17.921 3.29289 17.7803C3.10536 17.6397 3 17.4489 3 17.25V15.75C3 15.5511 3.10536 15.3603 3.29289 15.2197C3.48043 15.079 3.73478 15 4 15V15Z" stroke="#ffffff" stroke-width="1.7" stroke-linecap="round" stroke-linejoin="round"/>
<path d="M20 18V15C20.2652 15 20.5196 15.079 20.7071 15.2197C20.8946 15.3603 21 15.5511 21 15.75V17.25C21 17.4489 20.8946 17.6397 20.7071 17.7803C20.5196 17.921 20.2652 18 20 18Z" stroke="#ffffff" stroke-width="1.7" stroke-linecap="round" stroke-linejoin="round"/>
<path d="M6 13V10C6 8.4087 6.63214 6.88258 7.75736 5.75736C8.88258 4.63214 10.4087 4 12 4C13.5913 4 15.1174 4.63214 16.2426 5.75736C17.3679 6.88258 18 8.4087 18 10V13" stroke="#ffffff" stroke-width="1.7" stroke-linecap="round" stroke-linejoin="round"/>
<path d="M7.15 16.5C7.15 17.135 7.14955 17.6329 7.12084 18.0421C7.09171 18.4571 7.03741 18.6979 6.97326 18.8423C6.92455 18.9519 6.87647 18.9968 6.79329 19.0361C6.67523 19.0918 6.44442 19.15 6 19.15V20.85C6.55558 20.85 7.07477 20.7832 7.51921 20.5733C7.99853 20.347 8.32545 19.9856 8.52674 19.5327C8.71259 19.1146 8.78329 18.6366 8.81666 18.1611C8.85045 17.6796 8.85 17.115 8.85 16.5H7.15ZM6 19.15C5.55558 19.15 5.32477 19.0918 5.20671 19.0361C5.12353 18.9968 5.07545 18.9519 5.02674 18.8423C4.96259 18.6979 4.90829 18.4571 4.87916 18.0421C4.85045 17.6329 4.85 17.135 4.85 16.5H3.15C3.15 17.115 3.14955 17.6796 3.18334 18.1611C3.21671 18.6366 3.28741 19.1146 3.47326 19.5327C3.67455 19.9856 4.00147 20.347 4.48079 20.5733C4.92523 20.7832 5.44442 20.85 6 20.85V19.15ZM4.85 16.5C4.85 15.865 4.85045 15.3671 4.87916 14.9579C4.90829 14.5429 4.96259 14.3021 5.02674 14.1577C5.07545 14.0481 5.12353 14.0032 5.20671 13.9639C5.32477 13.9082 5.55558 13.85 6 13.85V12.15C5.44442 12.15 4.92523 12.2168 4.48079 12.4267C4.00147 12.653 3.67455 13.0144 3.47326 13.4673C3.28741 13.8854 3.21671 14.3634 3.18334 14.8389C3.14955 15.3204 3.15 15.885 3.15 16.5H4.85ZM6 13.85C6.44442 13.85 6.67523 13.9082 6.79329 13.9639C6.87647 14.0032 6.92455 14.0481 6.97326 14.1577C7.03741 14.3021 7.09171 14.5429 7.12084 14.9579C7.14955 15.3671 7.15 15.865 7.15 16.5H8.85C8.85 15.885 8.85045 15.3204 8.81666 14.8389C8.78329 14.3634 8.71259 13.8854 8.52674 13.4673C8.32545 13.0144 7.99853 12.653 7.51921 12.4267C7.07477 12.2168 6.55558 12.15 6 12.15V13.85Z" fill="#ffffff"/>
<path d="M19.15 16.5C19.15 17.135 19.1495 17.6329 19.1208 18.0421C19.0917 18.4571 19.0374 18.6979 18.9733 18.8423C18.9245 18.9519 18.8765 18.9968 18.7933 19.0361C18.6752 19.0918 18.4444 19.15 18 19.15V20.85C18.5556 20.85 19.0748 20.7832 19.5192 20.5733C19.9985 20.347 20.3255 19.9856 20.5267 19.5327C20.7126 19.1146 20.7833 18.6366 20.8167 18.1611C20.8505 17.6796 20.85 17.115 20.85 16.5H19.15ZM18 19.15C17.5556 19.15 17.3248 19.0918 17.2067 19.0361C17.1235 18.9968 17.0755 18.9519 17.0267 18.8423C16.9626 18.6979 16.9083 18.4571 16.8792 18.0421C16.8505 17.6329 16.85 17.135 16.85 16.5H15.15C15.15 17.115 15.1495 17.6796 15.1833 18.1611C15.2167 18.6366 15.2874 19.1146 15.4733 19.5327C15.6745 19.9856 16.0015 20.347 16.4808 20.5733C16.9252 20.7832 17.4444 20.85 18 20.85V19.15ZM16.85 16.5C16.85 15.865 16.8505 15.3671 16.8792 14.9579C16.9083 14.5429 16.9626 14.3021 17.0267 14.1577C17.0755 14.0481 17.1235 14.0032 17.2067 13.9639C17.3248 13.9082 17.5556 13.85 18 13.85V12.15C17.4444 12.15 16.9252 12.2168 16.4808 12.4267C16.0015 12.653 15.6745 13.0144 15.4733 13.4673C15.2874 13.8854 15.2167 14.3634 15.1833 14.8389C15.1495 15.3204 15.15 15.885 15.15 16.5H16.85ZM18 13.85C18.4444 13.85 18.6752 13.9082 18.7933 13.9639C18.8765 14.0032 18.9245 14.0481 18.9733 14.1577C19.0374 14.3021 19.0917 14.5429 19.1208 14.9579C19.1495 15.3671 19.15 15.865 19.15 16.5H20.85C20.85 15.885 20.8505 15.3204 20.8167 14.8389C20.7833 14.3634 20.7126 13.8854 20.5267 13.4673C20.3255 13.0144 19.9985 12.653 19.5192 12.4267C19.0748 12.2168 18.5556 12.15 18 12.15V13.85Z" fill="#ffffff"/>
</svg>
