<?xml version="1.0" standalone="no"?>
<!DOCTYPE svg PUBLIC "-//W3C//DTD SVG 20010904//EN"
 "http://www.w3.org/TR/2001/REC-SVG-20010904/DTD/svg10.dtd">
<svg version="1.0" xmlns="http://www.w3.org/2000/svg"
 width="1000.000000pt" height="1000.000000pt" viewBox="0 0 1000.000000 1000.000000"
 preserveAspectRatio="xMidYMid meet">

<g transform="translate(0.000000,1000.000000) scale(0.100000,-0.100000)"
fill="#ffffff" stroke="none">
<path d="M4307 8270 c-91 -16 -179 -53 -223 -95 -45 -43 -67 -100 -118 -310
-53 -220 -58 -491 -14 -758 6 -37 9 -68 7 -70 -2 -1 -101 1 -219 4 -152 5
-281 3 -440 -8 -124 -8 -234 -15 -245 -15 -16 0 -157 -20 -332 -45 -33 -5 -33
-5 -27 28 4 19 15 60 25 91 11 32 28 122 39 200 11 79 25 179 32 223 16 111
17 245 2 346 -21 151 -83 237 -209 295 -47 22 -71 26 -167 27 -150 3 -191 -16
-308 -136 -77 -81 -215 -253 -228 -287 -3 -8 -27 -49 -52 -90 -75 -121 -200
-392 -200 -433 0 -10 -13 -52 -29 -92 -27 -67 -49 -152 -72 -275 -4 -25 -13
-61 -19 -80 -6 -19 -13 -118 -16 -220 l-6 -185 -197 -200 c-109 -110 -216
-225 -239 -255 -23 -30 -64 -84 -92 -120 -82 -104 -238 -343 -289 -443 -27
-51 -60 -114 -75 -141 -14 -27 -26 -56 -26 -65 0 -10 -4 -21 -9 -27 -10 -9
-41 -90 -105 -269 -18 -49 -37 -99 -44 -110 -30 -54 -82 -300 -101 -475 -20
-186 -7 -526 24 -628 8 -26 15 -61 15 -78 0 -73 66 -303 169 -589 38 -105 200
-427 264 -524 93 -141 356 -411 477 -490 41 -28 86 -60 100 -73 100 -92 147
-126 240 -171 l105 -51 585 -3 c322 -1 934 -5 1360 -7 426 -3 1423 -8 2215
-11 792 -3 1607 -7 1810 -9 204 -2 395 0 425 4 30 4 128 3 218 -2 179 -11 186
-9 198 45 3 17 21 67 39 111 17 45 53 149 80 231 26 83 58 178 71 213 13 34
24 71 24 83 0 11 5 29 11 41 6 11 15 48 20 82 13 85 39 429 33 438 -3 5 -5 38
-5 75 0 37 -7 104 -14 148 -8 44 -15 97 -15 118 0 36 1 37 28 30 53 -15 412
-8 488 9 93 21 184 68 247 126 103 96 119 215 53 373 -6 14 3 18 51 24 74 9
122 34 165 85 61 71 73 156 37 263 -11 34 -34 79 -49 100 -35 47 -112 115
-163 142 -43 23 -46 31 -13 39 41 10 85 56 118 119 29 59 30 65 24 147 -10
131 -38 203 -105 271 -86 87 -138 104 -321 104 -136 -1 -192 -9 -266 -41 -6
-3 -17 9 -24 26 -26 63 -124 125 -280 175 -76 25 -99 28 -225 28 -174 0 -267
-20 -373 -82 -76 -44 -137 -110 -175 -188 -12 -24 -24 -43 -28 -43 -3 0 -38
33 -76 73 -76 79 -297 280 -356 324 -21 15 -70 54 -110 86 -40 32 -94 76 -122
98 -86 68 -383 290 -550 409 -38 28 -102 74 -142 103 -66 47 -120 84 -282 188
-97 63 -215 133 -251 150 -19 9 -65 34 -102 57 -37 23 -98 56 -135 75 -37 18
-97 48 -132 66 -35 18 -107 51 -160 73 -53 22 -136 57 -186 77 -147 61 -131
35 -139 233 -13 318 -13 314 -56 548 -48 259 -145 482 -269 613 -62 66 -210
141 -308 156 -81 12 -194 13 -266 1z m222 -597 c146 -74 252 -289 280 -568 35
-333 51 -419 125 -647 89 -272 132 -311 222 -201 37 45 38 49 48 160 9 109 10
114 30 110 35 -8 164 -65 281 -122 61 -30 115 -55 119 -55 11 0 99 -55 146
-91 19 -15 111 -68 203 -118 150 -81 449 -272 639 -408 188 -135 398 -291 435
-322 22 -20 69 -56 104 -81 35 -25 95 -72 134 -105 39 -33 100 -84 135 -114
188 -158 470 -449 550 -567 8 -12 33 -48 56 -80 23 -33 52 -79 66 -104 14 -25
39 -68 55 -95 65 -111 174 -350 199 -440 8 -27 25 -81 38 -120 14 -38 30 -97
36 -130 7 -33 16 -71 21 -85 10 -27 34 -133 50 -220 20 -114 39 -371 39 -525
-1 -150 -49 -381 -111 -535 -10 -25 -23 -63 -30 -85 -6 -22 -25 -75 -41 -119
-17 -43 -34 -94 -40 -112 l-9 -34 -107 0 c-107 -1 -305 0 -1592 5 -382 2
-1424 6 -2315 9 -2093 8 -2444 12 -2462 28 -8 6 -61 33 -117 58 -56 26 -127
64 -157 84 -128 86 -246 168 -269 189 -43 39 -155 169 -195 227 -21 30 -46 64
-56 75 -39 44 -208 339 -247 431 -114 271 -191 557 -217 799 -35 338 -18 617
50 831 19 59 35 114 35 121 0 8 11 38 24 68 14 29 32 79 41 110 18 59 50 138
90 215 12 25 26 56 30 70 7 22 47 90 95 160 10 14 28 46 40 70 22 43 66 110
129 195 16 22 50 69 74 105 24 36 62 84 83 107 22 23 64 70 94 103 65 72 225
234 304 308 l56 53 0 62 c0 108 42 328 87 452 14 39 34 95 45 125 30 84 100
225 160 322 89 146 198 298 213 298 8 0 20 -10 26 -22 20 -37 22 -229 5 -433
-28 -332 -21 -445 36 -577 24 -56 59 -78 122 -78 43 0 62 19 77 73 6 23 19 65
29 92 10 28 22 61 25 75 12 40 23 48 83 60 31 7 84 18 117 25 311 70 742 98
1110 72 l169 -12 9 -40 c21 -94 28 -114 53 -139 36 -36 68 -34 84 4 10 25 10
36 0 58 -8 17 -15 87 -18 188 -5 169 6 275 49 469 41 185 54 216 111 271 29
28 62 56 73 62 34 19 87 13 144 -15z"/>
<path d="M3878 6175 c-3 -3 -42 -12 -88 -20 -105 -19 -155 -48 -206 -122 -74
-107 -100 -209 -97 -390 1 -122 3 -136 32 -200 47 -107 103 -163 207 -208 79
-33 95 -37 150 -32 144 11 330 149 401 298 36 75 63 179 63 244 0 54 -48 207
-83 262 -42 67 -123 128 -201 152 -62 19 -165 28 -178 16z m158 -215 c2 0 24
-30 49 -67 44 -67 45 -69 45 -151 0 -96 -14 -131 -90 -225 -66 -82 -122 -117
-184 -117 -61 0 -105 27 -138 85 -21 37 -23 52 -22 176 0 128 13 199 34 199 5
0 17 16 29 36 36 61 171 105 240 77 18 -7 35 -13 37 -13z"/>
<path d="M2030 6081 c-90 -29 -142 -60 -208 -125 -74 -71 -99 -116 -118 -206
-26 -122 -27 -188 -5 -274 35 -134 97 -212 210 -264 49 -23 67 -26 143 -24
107 3 156 22 249 97 56 45 74 68 112 142 25 48 53 117 62 153 60 233 -34 429
-241 500 -70 24 -132 25 -204 1z m147 -172 c67 -25 102 -82 110 -177 4 -58 1
-77 -25 -144 -59 -152 -135 -218 -235 -205 -55 7 -85 32 -120 99 -104 199 85
498 270 427z"/>
<path d="M3275 4996 c-15 -10 -19 -25 -18 -57 2 -36 -4 -53 -33 -92 -47 -64
-104 -91 -160 -76 -65 18 -102 54 -142 138 -34 69 -40 76 -69 79 -38 4 -40 -1
-67 -113 -20 -79 -35 -107 -72 -131 -21 -15 -31 -15 -66 -5 -50 15 -128 93
-164 162 -28 57 -60 77 -93 60 -11 -7 -21 -20 -21 -31 0 -25 112 -192 151
-225 79 -66 165 -87 226 -57 53 28 76 57 119 150 1 2 24 -18 50 -45 124 -122
284 -101 389 51 31 46 40 67 43 115 3 44 0 61 -13 74 -20 21 -35 21 -60 3z"/>
<path d="M6533 4689 c-96 -18 -153 -79 -161 -173 -12 -152 185 -326 300 -265
32 17 84 73 103 109 41 80 -18 249 -105 301 -55 33 -83 39 -137 28z"/>
<path d="M7310 4303 c-44 -23 -96 -92 -111 -146 -15 -55 3 -136 39 -179 42
-49 110 -88 156 -88 52 0 120 34 148 73 19 26 22 45 23 112 0 69 -4 88 -30
140 -23 46 -39 64 -69 79 -56 27 -114 31 -156 9z"/>
<path d="M1272 4273 l-22 -4 2 -722 3 -722 448 -3 448 -2 -3 97 -3 98 -322 3
-323 2 0 230 0 230 278 2 277 3 0 95 0 95 -277 3 -278 2 0 195 0 195 303 2
302 3 3 96 3 96 -32 7 c-35 7 -770 6 -807 -1z"/>
<path d="M3646 4094 c-3 -9 -6 -81 -6 -160 l0 -144 -134 0 c-153 0 -146 4
-146 -90 0 -94 -7 -90 145 -90 l133 0 4 -282 c4 -234 8 -291 22 -329 36 -98
124 -166 244 -190 80 -15 230 -6 303 18 l54 18 3 103 c3 120 7 117 -112 77
-89 -30 -198 -34 -234 -9 -49 34 -52 55 -52 334 l0 260 164 0 165 0 7 45 c3
25 3 65 0 90 l-7 45 -165 0 -164 0 0 144 c0 79 -3 151 -6 160 -5 13 -24 16
-109 16 -85 0 -104 -3 -109 -16z"/>
<path d="M2735 3786 c-54 -17 -82 -33 -132 -73 l-42 -35 -3 54 -3 53 -105 0
-105 0 0 -480 0 -480 108 -3 107 -3 0 223 c0 123 4 249 10 281 18 114 80 212
169 269 85 53 179 30 220 -56 20 -40 21 -59 21 -348 0 -168 3 -320 6 -337 l7
-32 106 3 106 3 3 335 c4 428 -4 477 -86 563 -54 56 -121 77 -245 76 -56 0
-120 -6 -142 -13z"/>
<path d="M4790 3784 c-203 -56 -320 -233 -320 -484 0 -189 67 -332 197 -421
129 -89 350 -103 500 -33 118 56 204 171 207 276 l1 53 -112 3 -111 3 -16 -49
c-28 -83 -98 -132 -188 -132 -126 1 -218 91 -235 230 l-6 50 332 0 331 0 1 23
c9 234 -68 390 -226 464 -54 25 -73 28 -180 30 -84 2 -137 -2 -175 -13z m195
-175 c70 -20 108 -56 129 -126 l7 -23 -195 0 c-108 0 -196 3 -196 6 0 27 62
99 105 121 63 33 93 38 150 22z"/>
<path d="M6153 3785 c-77 -21 -149 -61 -204 -112 l-48 -45 -3 79 -3 78 -105 0
-105 0 -3 -482 -2 -483 109 0 110 0 3 248 3 247 48 77 c84 136 152 178 297
187 l95 6 0 105 0 105 -70 2 c-38 1 -94 -4 -122 -12z"/>
<path d="M6829 3695 c-37 -20 -107 -110 -120 -155 -16 -54 -4 -105 37 -150 70
-77 240 -105 299 -50 33 31 65 119 65 178 -1 69 -42 141 -100 170 -52 26 -140
29 -181 7z"/>
</g>
</svg>
