<?xml version="1.0" standalone="no"?>
<!DOCTYPE svg PUBLIC "-//W3C//DTD SVG 20010904//EN"
 "http://www.w3.org/TR/2001/REC-SVG-20010904/DTD/svg10.dtd">
<svg version="1.0" xmlns="http://www.w3.org/2000/svg"
 width="1000.000000pt" height="1000.000000pt" viewBox="0 0 1000.000000 1000.000000"
 preserveAspectRatio="xMidYMid meet">

<g transform="translate(0.000000,1000.000000) scale(0.100000,-0.100000)"
fill="#000000" stroke="none">
<path d="M4715 9484 c-388 -38 -567 -67 -810 -129 -339 -87 -601 -184 -904
-336 -462 -230 -849 -507 -1201 -859 -458 -459 -823 -1026 -1049 -1634 -390
-1047 -376 -2222 39 -3275 70 -179 227 -490 342 -681 308 -513 753 -990 1263
-1354 227 -162 669 -402 930 -505 387 -153 783 -250 1240 -303 148 -17 762
-17 910 0 457 54 855 151 1240 303 134 53 424 195 583 285 366 208 761 522
1045 829 327 355 544 669 761 1105 152 306 251 575 335 909 178 707 177 1495
0 2203 -111 442 -287 862 -531 1269 -362 602 -913 1154 -1518 1517 -584 352
-1185 557 -1870 638 -128 15 -703 28 -805 18z m634 -840 l295 -6 28 -28 c35
-35 38 -94 8 -132 -11 -14 -220 -157 -464 -319 -245 -161 -444 -294 -443 -295
1 -2 204 -5 450 -8 495 -5 486 -4 505 -68 16 -53 26 -859 11 -892 -28 -61 -46
-63 -820 -72 -561 -7 -551 -8 -585 57 -31 61 11 143 80 154 17 2 275 6 573 7
298 2 543 5 546 8 2 3 2 137 -1 298 l-5 294 -586 -3 c-451 -2 -591 0 -608 9
-47 26 -69 115 -38 158 7 12 221 156 474 320 404 263 455 299 428 302 -18 1
-229 6 -469 10 l-437 7 -30 29 c-55 52 -38 141 33 172 32 14 280 13 1055 -2z
m-1262 -715 c39 -33 43 -61 43 -294 0 -242 -4 -266 -52 -299 -12 -9 -40 -16
-61 -16 -31 0 -46 7 -73 34 l-34 34 0 241 c0 189 3 248 14 269 29 57 112 72
163 31z m2020 0 c39 -33 43 -61 43 -294 0 -242 -4 -266 -52 -299 -12 -9 -40
-16 -61 -16 -31 0 -46 7 -73 34 l-34 34 0 241 c0 189 3 248 14 269 29 57 112
72 163 31z m403 -3049 l0 -1530 -1530 0 -1530 0 0 1530 0 1530 1530 0 1530 0
0 -1530z m1759 1426 l26 -26 3 -295 3 -295 117 0 c191 0 375 -11 400 -23 52
-25 52 -22 52 -642 l0 -577 -29 -29 c-20 -20 -39 -29 -61 -29 -41 0 -347 57
-382 71 -60 25 -77 105 -33 157 35 42 65 46 179 22 54 -11 105 -20 112 -20 13
0 15 60 14 403 -1 221 -4 414 -7 430 l-5 27 -179 0 -179 0 0 -542 c0 -721 -9
-1206 -22 -1241 -19 -48 -80 -69 -133 -45 -57 26 -55 -9 -55 948 l0 880 -140
0 -139 0 -3 -482 c-3 -529 -2 -514 -63 -541 -23 -10 -86 -12 -278 -8 l-249 6
-29 33 -29 32 0 551 0 550 -95 147 c-82 128 -95 153 -95 190 0 92 102 137 169
75 17 -16 75 -100 131 -187 l100 -160 0 -513 0 -513 48 0 c26 0 78 -3 116 -7
l69 -6 -4 474 c-4 515 -4 520 50 552 25 14 60 17 235 17 l206 0 0 291 0 291
35 35 c32 32 40 35 77 30 26 -3 51 -15 67 -31z m-6902 -99 c43 -24 223 -190
245 -225 l23 -37 -4 -1011 -3 -1012 93 -6 c52 -3 300 -8 551 -10 l457 -5 3
323 c3 361 2 352 74 376 27 9 40 8 68 -5 44 -21 61 -62 60 -145 0 -36 -1 -206
-2 -378 l-2 -314 -29 -29 -29 -29 -454 1 c-249 1 -562 4 -695 8 l-243 6 -27
28 -28 27 -3 1059 -2 1060 -89 76 c-94 81 -111 106 -111 158 1 71 84 119 147
84z m1132 -672 c25 -25 26 -29 29 -188 2 -99 -1 -176 -7 -199 -24 -80 -115
-105 -172 -48 l-30 30 3 189 c3 172 5 191 23 211 11 12 29 26 40 31 32 14 87
2 114 -26z m370 0 c25 -25 26 -29 29 -188 2 -99 -1 -176 -7 -199 -24 -80 -115
-105 -172 -48 l-30 30 3 189 c3 172 5 191 23 211 11 12 29 26 40 31 32 14 87
2 114 -26z m2986 -3159 c19 -8 44 -30 55 -48 19 -31 20 -50 20 -328 0 -332 -3
-349 -70 -383 -32 -16 -68 -17 -420 -15 -364 3 -387 4 -419 23 -67 40 -73 63
-69 305 l3 215 -70 -2 c-39 -1 -217 -2 -397 -2 l-328 -1 0 -206 c0 -170 -3
-212 -16 -240 -30 -62 -107 -83 -159 -42 -51 40 -55 64 -55 360 0 253 2 275
20 305 36 60 17 58 605 58 601 0 571 3 616 -68 19 -30 20 -46 17 -252 l-3
-220 257 -3 257 -2 3 238 c3 264 7 279 71 307 40 18 41 18 82 1z"/>
</g>
</svg>
