<?xml version="1.0" standalone="no"?>
<!DOCTYPE svg PUBLIC "-//W3C//DTD SVG 20010904//EN"
 "http://www.w3.org/TR/2001/REC-SVG-20010904/DTD/svg10.dtd">
<svg version="1.0" xmlns="http://www.w3.org/2000/svg"
 width="1000.000000pt" height="1000.000000pt" viewBox="0 0 1000.000000 1000.000000"
 preserveAspectRatio="xMidYMid meet">

<g transform="translate(0.000000,1000.000000) scale(0.100000,-0.100000)"
fill="#000000" stroke="none">
<path d="M7687 9283 c-5 -4 -36 -11 -70 -15 -114 -15 -137 -20 -143 -29 -3 -5
-16 -9 -30 -9 -23 0 -33 -3 -81 -28 -13 -7 -28 -12 -35 -12 -40 0 -270 -132
-373 -214 -78 -61 -5102 -5085 -5137 -5136 -69 -101 -211 -388 -343 -695 -7
-16 -34 -82 -60 -145 -26 -63 -56 -134 -66 -157 -11 -24 -19 -47 -19 -53 0 -6
-4 -18 -9 -28 -5 -9 -19 -39 -31 -67 -12 -27 -26 -58 -31 -67 -5 -10 -9 -24
-9 -33 0 -8 -9 -30 -20 -50 -11 -20 -20 -40 -20 -46 0 -5 -9 -29 -20 -51 -11
-23 -20 -48 -20 -55 0 -7 -4 -21 -9 -31 -12 -24 -44 -101 -61 -147 -4 -11 -12
-32 -19 -47 -21 -52 -29 -73 -41 -108 -7 -19 -16 -44 -20 -55 -10 -25 -44
-118 -46 -125 0 -3 -8 -22 -17 -42 -10 -21 -17 -43 -17 -51 0 -7 -4 -17 -8
-22 -4 -6 -14 -28 -21 -50 -13 -42 -27 -78 -42 -107 -5 -10 -9 -25 -9 -33 0
-8 -4 -23 -9 -33 -9 -18 -26 -58 -44 -102 -5 -14 -13 -33 -18 -42 -5 -10 -9
-25 -9 -33 0 -8 -4 -24 -10 -35 -5 -11 -14 -29 -20 -40 -5 -11 -10 -27 -10
-35 0 -8 -4 -24 -10 -35 -5 -11 -14 -29 -20 -40 -5 -11 -10 -28 -10 -38 0 -10
-3 -22 -7 -26 -17 -17 -33 -87 -33 -148 0 -50 6 -77 23 -108 25 -48 92 -110
118 -110 10 0 21 -4 24 -10 3 -5 34 -10 67 -10 55 0 91 7 153 30 11 4 40 13
65 20 25 6 53 16 62 21 10 5 29 9 42 9 14 0 28 4 31 10 3 5 17 10 30 10 13 0
27 5 30 10 3 6 17 10 30 10 13 0 27 5 30 10 3 6 15 10 26 10 10 0 27 4 37 9 9
5 37 15 62 21 25 7 54 16 65 20 11 4 47 16 80 25 33 10 114 35 180 56 66 22
136 44 155 50 19 6 44 14 55 18 11 5 54 19 95 32 41 12 79 26 85 31 5 4 19 8
31 8 13 0 26 5 29 10 3 6 17 10 30 10 13 0 27 5 30 10 3 6 17 10 30 10 13 0
27 4 30 10 3 5 17 10 30 10 13 0 26 4 29 8 3 4 28 14 56 22 28 8 53 18 56 22
3 4 16 8 29 8 13 0 27 5 30 10 3 6 15 10 26 10 10 0 28 5 39 10 11 6 29 15 40
20 11 6 27 10 35 10 8 0 25 5 38 12 47 24 57 28 75 28 10 0 22 3 26 8 4 4 11
7 14 7 7 1 51 16 187 67 79 30 100 38 153 59 15 7 36 15 47 19 19 7 38 15 95
37 14 6 48 21 75 33 28 12 59 26 70 30 11 4 70 32 130 61 235 114 45 -68 2762
2650 1370 1372 2517 2526 2550 2566 82 102 116 149 153 218 72 131 96 187 120
275 6 25 16 53 21 62 5 10 9 33 9 52 0 19 4 37 9 40 24 15 34 382 13 511 -7
39 -14 89 -18 113 -3 23 -10 45 -15 48 -5 3 -9 16 -9 29 0 13 -4 27 -10 30 -5
3 -10 17 -10 31 0 13 -4 32 -9 42 -5 9 -30 60 -55 112 -61 126 -86 169 -156
259 -54 72 -218 235 -292 292 -65 50 -220 136 -308 171 -14 6 -33 14 -42 19
-10 5 -27 9 -37 9 -11 0 -23 5 -26 10 -3 6 -17 10 -30 10 -13 0 -26 4 -29 9
-3 5 -23 11 -43 15 -21 3 -65 10 -98 17 -72 13 -417 24 -428 12z m363 -498
c25 -4 49 -11 55 -16 5 -5 19 -9 31 -9 13 0 26 -4 29 -10 3 -5 14 -10 23 -10
29 0 173 -77 247 -133 146 -109 260 -257 327 -427 6 -14 14 -33 19 -42 5 -10
9 -29 9 -42 0 -14 4 -27 9 -30 13 -9 24 -110 24 -231 0 -121 -11 -222 -24
-231 -5 -3 -9 -16 -9 -30 0 -13 -4 -32 -9 -42 -5 -9 -13 -28 -18 -42 -22 -56
-77 -157 -117 -216 -26 -39 -252 -274 -263 -274 -13 0 -1353 1344 -1353 1356
0 7 50 60 112 119 131 126 257 214 368 258 14 5 33 13 42 18 10 5 29 9 42 9
14 0 28 5 31 10 3 6 23 10 43 11 20 0 46 4 57 9 22 10 253 6 325 -5z m-698
-1463 l678 -677 -219 -221 -219 -221 -159 152 c-87 83 -166 160 -175 171 -9
10 -244 248 -522 529 l-506 510 217 217 c120 120 220 218 223 218 3 0 310
-305 682 -678z m-1401 -179 c29 -32 69 -75 88 -96 l34 -38 -22 -22 c-11 -13
-21 -29 -21 -36 0 -7 -4 -10 -8 -7 -10 6 -56 -41 -65 -66 -4 -10 -12 -18 -20
-18 -16 0 -51 -37 -61 -64 -3 -10 -9 -16 -13 -12 -9 8 -63 -44 -63 -61 0 -7
-5 -13 -12 -13 -18 0 -58 -41 -58 -60 0 -9 9 -25 20 -35 20 -18 22 -18 57 18
36 35 36 37 18 57 -10 11 -13 20 -8 20 6 0 16 -7 23 -15 12 -14 16 -13 37 6
12 13 23 31 23 41 0 11 7 18 18 18 28 0 65 44 58 68 -6 17 -3 19 14 15 14 -4
30 2 45 17 27 26 32 49 13 68 -10 10 -6 11 20 6 20 -4 38 -2 47 6 20 16 13 23
465 -431 261 -262 377 -386 370 -393 -5 -5 -10 -18 -10 -28 0 -10 -7 -18 -17
-18 -23 0 -73 -49 -73 -72 0 -10 -7 -18 -17 -18 -9 0 -27 -10 -39 -21 l-23
-21 27 -28 27 -27 68 67 c37 37 67 72 67 78 0 6 13 17 29 25 l29 15 106 -102
c58 -56 106 -107 106 -112 0 -11 -3471 -3486 -3476 -3481 -36 29 -187 187
-180 187 18 1 54 35 58 56 2 10 13 20 25 22 12 2 32 19 43 38 12 19 27 34 33
34 18 0 57 42 57 61 0 10 10 21 22 25 29 9 48 28 48 49 0 8 11 21 25 27 14 6
25 14 25 18 0 3 39 46 87 94 91 91 95 102 50 130 -13 9 -22 5 -44 -16 -26 -27
-26 -28 -8 -48 21 -23 10 -27 -15 -5 -14 13 -23 7 -85 -56 -62 -62 -68 -72
-57 -89 20 -32 13 -47 -9 -21 l-20 25 -105 -107 c-103 -105 -114 -120 -94
-132 6 -3 10 -13 10 -22 0 -15 -2 -14 -18 0 -23 21 -31 21 -54 0 -23 -20 -23
-42 -1 -59 15 -11 15 -13 3 -14 -8 0 -55 44 -105 98 -49 53 -241 248 -425 434
-284 285 -332 338 -318 347 9 6 23 23 30 38 8 15 20 27 26 25 7 -1 24 16 40
38 15 21 32 39 37 40 16 0 45 38 45 58 0 22 -19 42 -39 42 -18 0 -61 -39 -61
-55 0 -6 -12 -18 -26 -25 -34 -19 -47 -45 -34 -69 15 -29 12 -33 -13 -16 -21
13 -25 13 -45 -1 -12 -8 -22 -22 -22 -30 0 -10 -12 -3 -32 19 -18 19 -73 76
-123 126 l-89 92 1734 1734 c954 954 1742 1735 1751 1735 9 0 40 -26 70 -57z
m-3342 -4333 c274 -275 504 -500 510 -500 6 0 11 -4 11 -10 0 -5 47 -58 105
-117 58 -59 105 -110 105 -115 0 -4 -7 -8 -15 -8 -8 0 -23 -4 -33 -9 -17 -9
-53 -24 -94 -40 -13 -4 -43 -18 -66 -30 -24 -11 -49 -21 -55 -21 -13 0 -192
-66 -219 -81 -10 -5 -25 -9 -33 -9 -8 0 -24 -4 -35 -10 -11 -5 -29 -14 -40
-20 -11 -6 -29 -10 -39 -10 -11 0 -23 -4 -26 -10 -3 -5 -15 -10 -26 -10 -10 0
-28 -4 -39 -10 -11 -5 -29 -14 -40 -20 -11 -5 -27 -10 -35 -10 -8 0 -24 -5
-35 -10 -11 -6 -29 -15 -40 -20 -11 -5 -29 -10 -39 -10 -11 0 -23 -4 -26 -10
-3 -5 -17 -10 -30 -10 -13 0 -27 -4 -30 -10 -3 -5 -15 -10 -26 -10 -10 0 -28
-5 -39 -10 -11 -5 -29 -14 -40 -20 -11 -5 -29 -10 -39 -10 -11 0 -23 -4 -26
-10 -3 -5 -17 -10 -30 -10 -13 0 -27 -4 -30 -10 -3 -5 -17 -10 -30 -10 -13 0
-27 -4 -30 -10 -3 -5 -15 -10 -26 -10 -10 0 -27 -4 -37 -9 -9 -5 -84 -30 -167
-56 -82 -26 -193 -61 -245 -77 -52 -17 -103 -34 -112 -39 -10 -5 -27 -9 -37
-9 -11 0 -23 -4 -26 -10 -3 -5 -15 -10 -26 -10 -10 0 -28 -5 -39 -12 -37 -24
-37 -1 1 74 5 10 9 25 9 33 0 8 4 23 9 33 12 23 25 56 51 127 12 33 26 69 30
80 22 52 114 295 127 335 8 25 23 64 34 87 10 24 19 47 19 53 0 6 4 18 9 28 8
16 17 36 41 97 6 14 15 37 21 53 7 15 16 37 20 50 5 12 14 33 19 47 6 14 14
35 19 48 5 12 17 40 26 62 31 71 47 110 55 130 4 11 13 34 20 50 7 17 16 39
20 50 5 11 15 36 23 55 8 19 29 71 47 115 18 44 42 103 55 130 13 28 31 68 40
90 43 100 51 115 66 115 5 0 233 -225 508 -500z m1176 0 c3 -5 -1 -10 -10 -10
-9 0 -13 5 -10 10 3 6 8 10 10 10 2 0 7 -4 10 -10z"/>
<path d="M5677 6612 c-22 -25 -21 -45 3 -67 20 -18 21 -18 45 5 28 26 33 60
10 60 -8 0 -15 5 -15 10 0 16 -26 11 -43 -8z"/>
<path d="M5607 6542 c-10 -10 -17 -22 -17 -25 0 -4 -72 -79 -160 -166 -88 -88
-160 -164 -160 -168 0 -5 6 -15 13 -23 10 -12 9 -12 -5 -1 -15 11 -22 11 -43
-3 -15 -10 -29 -24 -32 -32 -6 -15 23 -54 39 -54 12 0 138 123 138 135 0 5 -7
17 -17 27 -9 10 -11 18 -5 18 6 0 14 -4 17 -10 3 -5 13 -10 21 -10 15 0 31 15
197 186 l87 91 -23 26 c-27 32 -29 32 -50 9z m-152 -250 c-6 -7 -35 18 -35 31
0 5 9 2 20 -8 11 -10 18 -20 15 -23z"/>
<path d="M5759 6315 c-90 -91 -165 -174 -167 -183 -2 -12 92 -112 284 -301
l286 -284 169 169 c109 108 169 176 169 189 0 11 -12 28 -26 39 -25 18 -26 18
-50 -5 -13 -12 -24 -27 -24 -33 0 -6 -54 -65 -119 -130 -108 -108 -121 -118
-138 -106 -35 27 -203 195 -203 204 0 5 59 69 131 143 l131 135 -23 24 c-12
13 -30 24 -38 24 -18 0 -171 -149 -171 -166 0 -13 -82 -94 -96 -94 -5 0 -49
40 -98 89 l-89 90 37 45 c21 25 44 46 52 46 8 0 14 5 14 10 0 6 40 52 90 103
49 50 90 97 90 103 0 6 -11 20 -23 33 l-24 22 -164 -166z"/>
<path d="M5111 6031 c-47 -46 -71 -77 -67 -86 3 -9 -1 -15 -10 -15 -20 0 -64
-30 -64 -44 1 -14 35 -56 47 -56 11 0 65 55 65 67 1 4 14 16 30 26 16 9 33 28
38 41 5 14 19 30 32 37 36 19 50 42 32 52 -9 5 -19 18 -23 29 -6 18 -15 13
-80 -51z"/>
<path d="M6727 5892 c-10 -10 -17 -26 -17 -35 0 -10 -8 -17 -18 -17 -20 0 -72
-49 -72 -68 0 -6 -12 -17 -27 -24 -34 -16 -42 -54 -16 -73 25 -20 30 -19 56
11 12 15 57 61 99 103 75 74 77 78 62 99 -18 27 -45 28 -67 4z"/>
<path d="M4921 5836 c-19 -20 -21 -28 -12 -44 16 -29 14 -36 -5 -18 -21 22
-26 20 -58 -13 -21 -22 -26 -35 -21 -51 6 -20 4 -22 -17 -17 -18 5 -31 0 -46
-16 -11 -12 -21 -25 -21 -29 -1 -10 37 -48 47 -48 13 0 63 56 56 63 -4 4 4 11
17 16 27 10 53 37 62 64 4 9 15 20 24 24 43 15 72 63 38 63 -8 0 -15 7 -15 15
0 22 -24 18 -49 -9z"/>
<path d="M5221 5766 c-50 -50 -91 -98 -91 -106 0 -7 9 -23 20 -35 l20 -22 99
101 c95 95 98 101 84 122 -8 12 -20 25 -27 27 -7 3 -54 -35 -105 -87z"/>
<path d="M5422 5828 c-18 -18 -15 -32 11 -56 l22 -21 27 24 27 23 -23 21 c-25
24 -46 27 -64 9z"/>
<path d="M5547 5822 c-16 -17 -15 -20 16 -50 l33 -32 22 23 22 23 -28 27 c-33
32 -43 33 -65 9z"/>
<path d="M6497 5662 c-10 -10 -17 -24 -17 -31 0 -6 -10 -16 -23 -22 -12 -5
-33 -26 -46 -45 -13 -19 -35 -40 -50 -47 -35 -16 -39 -52 -9 -76 l23 -19 104
104 104 105 -23 24 c-28 30 -41 31 -63 7z"/>
<path d="M5680 5585 l-85 -85 28 -27 27 -27 53 52 c29 29 60 52 69 52 17 0 68
-54 68 -73 0 -6 -10 -21 -22 -34 -17 -18 -20 -28 -12 -40 21 -34 42 -39 67
-15 30 29 45 28 79 -5 27 -26 28 -26 48 -8 11 10 20 23 20 29 0 6 -57 69 -128
139 l-127 127 -85 -85z"/>
<path d="M4695 5610 c-11 -12 -16 -29 -13 -44 4 -22 2 -25 -16 -21 -24 6 -76
-36 -76 -61 0 -8 -11 -19 -25 -24 -30 -12 -39 -31 -31 -65 5 -18 13 -25 31
-25 14 0 25 6 25 13 0 7 6 19 13 25 6 7 12 18 12 25 0 7 5 12 12 12 14 0 142
126 143 141 0 13 -33 44 -47 44 -5 0 -18 -9 -28 -20z"/>
<path d="M5157 5562 c-23 -26 -21 -45 8 -72 24 -23 25 -23 45 -5 27 24 25 36
-8 68 -28 27 -29 27 -45 9z"/>
<path d="M5161 5426 l-21 -23 151 -151 152 -151 28 16 c36 21 38 18 -143 192
l-145 140 -22 -23z"/>
<path d="M6198 5351 c-54 -54 -98 -105 -98 -113 0 -8 9 -23 20 -33 17 -15 22
-16 37 -4 10 8 21 19 25 24 4 6 44 47 89 92 l83 83 -24 25 c-13 14 -26 25 -29
25 -3 -1 -50 -45 -103 -99z"/>
<path d="M4466 5371 c-29 -32 -13 -71 29 -71 12 0 26 5 33 12 18 18 15 55 -5
63 -32 14 -41 13 -57 -4z"/>
<path d="M5755 5240 c-104 -105 -109 -115 -62 -144 14 -9 34 6 117 89 l101
101 -29 27 -28 27 -99 -100z"/>
<path d="M4396 5299 c-14 -11 -24 -24 -21 -29 5 -9 -16 -29 -49 -45 -28 -14
-31 -46 -7 -76 l19 -24 22 20 c12 11 26 30 31 43 5 12 19 26 31 31 13 5 32 18
42 30 19 21 19 22 -4 46 -28 30 -30 30 -64 4z"/>
<path d="M4642 5177 c-56 -56 -102 -109 -102 -118 0 -8 11 -26 24 -38 l23 -22
116 118 117 117 -22 23 c-12 13 -29 23 -37 23 -9 0 -62 -46 -119 -103z"/>
<path d="M4867 5262 c-23 -25 -21 -34 8 -62 l25 -23 25 23 25 24 -27 28 c-32
33 -35 34 -56 10z"/>
<path d="M4993 5249 l-21 -21 145 -142 c80 -77 150 -144 156 -148 13 -8 47 19
47 36 0 14 -282 296 -295 296 -6 0 -20 -9 -32 -21z"/>
<path d="M6005 5154 c-33 -37 -78 -84 -100 -105 -38 -36 -39 -39 -25 -64 8
-15 21 -30 28 -32 16 -7 51 24 63 55 5 12 20 27 33 32 14 5 32 25 41 44 10 20
25 36 34 36 41 0 55 54 23 83 -10 10 -23 17 -28 17 -5 0 -36 -30 -69 -66z"/>
<path d="M5541 5166 c-26 -27 -21 -43 16 -57 27 -10 63 3 63 25 0 12 -40 56
-51 56 -3 0 -16 -11 -28 -24z"/>
<path d="M4237 5142 c-22 -24 -21 -35 1 -55 28 -25 60 -21 74 9 11 23 9 28
-12 45 -31 23 -43 24 -63 1z"/>
<path d="M4189 5083 c-15 -4 -47 -49 -48 -68 0 -5 -7 -12 -16 -13 -18 -4 -55
-37 -55 -49 1 -12 37 -53 47 -53 15 0 53 45 53 63 0 9 6 17 14 17 8 0 28 11
43 24 27 24 28 25 11 53 -18 29 -24 33 -49 26z"/>
<path d="M5817 4962 c-15 -15 -27 -33 -27 -40 0 -7 -6 -12 -13 -12 -7 0 -26
-14 -42 -30 -24 -26 -27 -33 -15 -40 12 -8 12 -10 -3 -16 -10 -3 -21 -4 -24 0
-10 10 -53 -36 -53 -57 0 -12 -5 -17 -14 -14 -16 6 -56 -32 -56 -54 0 -8 5
-20 12 -27 8 -8 3 -10 -23 -6 -28 5 -38 1 -59 -22 -17 -18 -21 -28 -12 -31 6
-3 10 -9 7 -13 -3 -5 -12 -7 -21 -3 -20 7 -54 -25 -54 -52 0 -22 28 -55 47
-55 15 0 53 45 53 63 0 10 8 17 18 17 23 0 62 40 62 63 0 9 8 17 17 17 23 0
63 39 56 56 -3 8 1 14 11 14 9 0 16 5 16 10 0 6 7 10 16 10 9 0 21 14 27 30 6
17 16 30 22 30 17 0 65 54 65 73 0 10 8 17 18 17 44 0 55 45 19 78 l-23 22
-27 -28z"/>
<path d="M4566 4961 c-22 -24 -20 -33 8 -60 20 -19 28 -21 45 -12 29 16 26 46
-8 70 -27 20 -29 20 -45 2z"/>
<path d="M4012 4907 l-22 -23 23 -22 c26 -25 47 -28 65 -10 19 19 14 44 -13
62 -30 20 -27 20 -53 -7z"/>
<path d="M5257 4882 c-23 -25 -21 -34 8 -62 24 -23 25 -23 45 -5 26 23 25 37
-3 63 -28 27 -30 27 -50 4z"/>
<path d="M3940 4833 c-8 -9 -17 -26 -20 -37 -3 -12 -15 -23 -25 -25 -29 -5
-45 -21 -45 -45 1 -23 22 -56 37 -56 15 0 53 45 53 63 0 10 8 17 18 17 19 0
62 39 62 57 0 14 -34 43 -51 43 -8 -1 -21 -8 -29 -17z"/>
<path d="M4565 4820 c-19 -21 -17 -23 125 -165 148 -148 173 -164 206 -131 8
8 14 17 14 21 0 14 -302 295 -318 295 -5 0 -17 -9 -27 -20z"/>
<path d="M5189 4665 c-57 -58 -106 -113 -107 -121 -2 -9 6 -26 18 -39 23 -24
50 -24 50 1 0 8 6 14 13 14 15 0 77 61 77 75 0 5 26 35 57 67 l57 58 -24 25
c-13 14 -27 25 -30 25 -4 0 -54 -47 -111 -105z"/>
<path d="M3803 4682 c-18 -3 -23 -10 -23 -33 0 -38 40 -61 64 -36 34 33 8 77
-41 69z"/>
<path d="M4011 4536 c-83 -83 -151 -156 -151 -161 0 -9 297 -307 513 -515 l77
-75 95 95 c52 52 95 99 95 105 1 5 28 34 60 64 33 30 60 60 60 66 0 16 -33 45
-52 45 -9 0 -69 -56 -134 -125 -78 -84 -123 -125 -135 -123 -25 4 -459 426
-459 447 0 9 39 55 86 101 47 47 104 107 126 133 l41 48 -22 23 c-12 12 -28
23 -35 23 -8 0 -82 -68 -165 -151z"/>
<path d="M4289 4663 c-28 -7 -29 -39 -3 -64 l24 -22 25 23 25 24 -22 23 c-12
13 -24 22 -27 22 -3 -1 -13 -3 -22 -6z"/>
<path d="M4400 4649 c-11 -20 -1 -33 139 -173 126 -126 154 -149 168 -140 46
29 42 36 -111 185 -82 79 -157 145 -167 147 -10 2 -23 -6 -29 -19z"/>
<path d="M3710 4594 c-6 -14 -28 -42 -50 -61 -41 -37 -49 -60 -28 -81 22 -22
40 -13 104 53 64 66 64 66 47 90 -24 33 -61 33 -73 -1z"/>
<path d="M4947 4562 c-16 -17 -15 -20 11 -45 34 -32 43 -33 67 -7 18 20 18 21
-5 45 -28 30 -51 32 -73 7z"/>
<path d="M5356 4501 c-10 -10 -16 -27 -14 -38 2 -13 -4 -19 -22 -21 -33 -5
-51 -31 -45 -64 4 -25 3 -27 -15 -16 -16 10 -23 8 -45 -12 -18 -17 -25 -32
-22 -48 2 -13 0 -22 -7 -21 -32 4 -47 -4 -61 -35 -10 -21 -25 -36 -38 -38 -12
-2 -27 -15 -34 -29 -7 -15 -134 -148 -283 -297 -148 -150 -270 -276 -270 -282
0 -5 -6 -10 -14 -10 -7 0 -22 -12 -31 -27 -10 -15 -54 -62 -98 -105 -62 -60
-78 -81 -69 -90 20 -20 14 -28 -18 -22 -26 6 -32 2 -51 -30 -11 -20 -27 -36
-34 -36 -8 0 -24 -14 -36 -32 -13 -17 -40 -47 -61 -66 l-39 -35 28 -29 27 -29
64 68 c48 52 62 73 59 91 -4 20 -1 23 16 18 17 -4 42 15 119 92 54 53 98 105
98 115 0 10 8 17 18 17 10 0 29 11 42 25 23 24 23 25 5 45 -14 16 -15 20 -4
20 8 0 20 -5 27 -12 9 -9 19 -5 42 17 16 16 30 35 30 42 0 7 6 13 13 13 19 0
57 43 57 63 0 10 8 17 18 17 19 0 62 39 62 56 0 6 11 17 25 24 14 7 32 25 41
39 9 14 32 39 51 55 26 22 33 34 29 51 -5 19 -3 22 14 18 27 -7 62 24 58 51
-2 16 3 22 22 24 33 5 50 20 50 43 0 11 6 19 13 19 17 0 77 58 77 76 0 7 8 14
18 14 19 0 47 36 47 60 0 8 8 15 17 15 20 0 58 34 58 52 0 7 8 16 18 20 30 11
62 46 62 69 0 16 5 21 18 17 10 -2 27 6 40 20 21 22 22 26 8 40 -9 9 -16 20
-16 26 0 18 -46 12 -64 -8z"/>
<path d="M3566 4441 c-21 -23 -18 -49 7 -65 36 -23 75 35 47 70 -17 19 -34 18
-54 -5z"/>
<path d="M3418 4290 c-54 -54 -98 -103 -98 -108 0 -6 -16 -19 -35 -31 -19 -11
-40 -32 -47 -46 -6 -14 -26 -35 -45 -46 -35 -22 -43 -46 -18 -55 8 -4 15 -12
15 -20 0 -30 26 -10 121 89 55 56 135 139 180 184 l81 81 -18 26 c-11 14 -23
25 -29 25 -5 0 -54 -45 -107 -99z"/>
<path d="M4672 4277 l-22 -23 30 -29 c24 -23 32 -26 45 -15 20 17 19 53 -3 73
-24 22 -24 21 -50 -6z"/>
<path d="M3110 3975 c-21 -22 -22 -27 -10 -50 16 -30 29 -31 64 -4 28 22 35
49 12 49 -8 0 -16 7 -20 15 -8 21 -19 19 -46 -10z"/>
<path d="M3479 3964 l-23 -24 20 -21 c18 -17 24 -18 47 -8 22 10 30 9 44 -4
16 -13 20 -14 38 -1 12 9 31 12 50 9 24 -5 33 -2 43 15 11 19 11 25 -3 40 -14
15 -21 16 -46 7 -22 -9 -34 -9 -48 0 -14 9 -22 8 -34 -4 -14 -15 -18 -15 -40
0 -23 15 -26 15 -48 -9z"/>
<path d="M3696 3853 c-71 -73 -136 -133 -145 -133 -10 0 -61 41 -114 90 -88
83 -98 90 -117 78 -11 -7 -20 -20 -20 -30 0 -9 41 -54 90 -100 57 -52 90 -90
90 -103 0 -13 -47 -67 -125 -145 -69 -69 -125 -132 -125 -141 0 -18 30 -49 48
-49 7 0 12 5 12 11 0 18 242 259 260 259 9 0 26 -10 38 -23 17 -17 20 -31 16
-57 -5 -29 -1 -39 20 -59 28 -26 33 -50 14 -69 -9 -9 -9 -17 2 -36 11 -21 11
-28 0 -41 -11 -13 -10 -19 4 -33 20 -23 20 -36 1 -52 -11 -9 -13 -16 -5 -24
14 -14 13 -49 -2 -64 -9 -9 -7 -16 7 -32 18 -20 18 -21 -13 -53 -36 -38 -40
-57 -14 -80 17 -16 21 -14 62 28 41 41 43 46 31 71 -9 22 -9 29 0 35 10 6 10
13 1 34 -9 19 -9 32 -2 46 8 13 7 25 -1 40 -8 16 -8 27 1 44 9 17 9 28 1 44
-8 15 -9 27 -1 40 7 14 7 27 -1 44 -8 18 -8 30 0 46 10 19 8 25 -19 47 -31 27
-41 64 -16 64 8 0 17 -4 20 -9 4 -5 21 -5 41 2 33 10 38 8 70 -23 33 -32 36
-33 53 -17 17 15 19 15 35 -1 17 -16 19 -16 47 0 17 10 32 13 35 7 8 -12 52
-12 60 1 4 6 15 4 29 -5 20 -13 25 -14 35 -1 12 15 23 15 54 1 14 -6 28 2 58
31 45 44 48 57 17 78 -21 15 -24 14 -60 -21 -35 -34 -39 -36 -62 -23 -21 11
-28 11 -41 0 -13 -11 -21 -11 -36 -2 -16 10 -24 9 -44 -4 -23 -15 -27 -15 -49
-1 -21 14 -25 14 -38 0 -14 -13 -20 -11 -57 23 -32 28 -45 34 -53 26 -15 -15
-51 -15 -66 0 -9 9 -15 9 -24 0 -19 -19 -42 -14 -67 12 -15 15 -21 31 -17 43
3 10 64 76 136 148 102 102 127 132 118 143 -31 37 -40 32 -172 -105z"/>
<path d="M3037 3902 c-15 -15 -27 -36 -27 -45 0 -10 -8 -17 -18 -17 -10 0 -28
-11 -41 -23 -19 -21 -20 -25 -6 -37 8 -7 15 -19 15 -26 0 -27 23 -13 86 50 35
35 64 68 64 75 0 10 -35 51 -43 51 -2 0 -15 -13 -30 -28z"/>
<path d="M2883 3749 c-18 -18 -19 -26 -11 -50 12 -35 37 -37 66 -6 27 29 27
34 0 58 -29 23 -29 23 -55 -2z"/>
<path d="M4460 1258 c-85 -49 -130 -122 -130 -211 0 -69 15 -112 57 -164 31
-39 47 -49 126 -82 40 -16 5004 -16 5044 0 77 32 93 42 127 79 20 23 39 54 43
71 3 16 10 32 14 35 12 7 11 101 -1 109 -5 3 -10 15 -10 26 0 38 -57 106 -112
133 l-52 26 -2535 -1 c-2526 0 -2536 0 -2571 -21z"/>
</g>
</svg>
