<?xml version="1.0" standalone="no"?>
<!DOCTYPE svg PUBLIC "-//W3C//DTD SVG 20010904//EN"
 "http://www.w3.org/TR/2001/REC-SVG-20010904/DTD/svg10.dtd">
<svg version="1.0" xmlns="http://www.w3.org/2000/svg"
 width="1000.000000pt" height="1000.000000pt" viewBox="0 0 1000.000000 1000.000000"
 preserveAspectRatio="xMidYMid meet">

<g transform="translate(0.000000,1000.000000) scale(0.100000,-0.100000)"
fill="#000000" stroke="none">
<path d="M5904 9921 c-16 -4 -77 -32 -135 -61 -99 -51 -112 -61 -272 -222
-154 -156 -177 -184 -291 -356 -73 -109 -135 -216 -151 -257 -29 -75 -60 -142
-100 -215 -13 -25 -39 -84 -56 -132 l-32 -88 -63 0 c-39 0 -88 8 -125 21 -42
15 -73 19 -99 15 -22 -3 -51 -1 -67 6 -33 13 -109 17 -328 18 -88 0 -177 0
-198 0 -21 0 -45 -4 -54 -9 -10 -5 -28 -5 -45 1 -21 8 -33 7 -41 -1 -6 -6 -32
-11 -58 -11 -26 0 -51 -4 -54 -10 -3 -5 -19 -7 -35 -3 -17 3 -36 0 -45 -7 -8
-7 -26 -9 -44 -5 -17 3 -32 2 -36 -4 -3 -6 -24 -11 -45 -11 -21 0 -41 -4 -44
-9 -5 -8 -67 -20 -110 -21 -10 -1 -28 -7 -38 -14 -11 -8 -28 -12 -38 -9 -11 3
-26 -2 -34 -10 -9 -8 -24 -13 -34 -10 -10 2 -24 -3 -31 -11 -8 -9 -26 -16 -42
-16 -15 0 -31 -4 -34 -10 -3 -5 -16 -10 -29 -10 -12 0 -26 -4 -32 -9 -5 -5
-33 -16 -61 -26 -29 -9 -55 -21 -58 -26 -4 -5 -17 -9 -29 -9 -13 0 -29 -7 -36
-15 -25 -30 -56 -18 -85 31 -15 26 -60 81 -100 123 -40 42 -84 95 -98 118 -15
23 -50 60 -79 81 -29 22 -64 52 -78 67 -32 35 -124 98 -225 153 -282 155 -365
192 -494 219 -42 8 -98 24 -126 34 -109 39 -203 41 -273 5 -71 -37 -122 -97
-177 -211 -30 -62 -55 -118 -55 -125 0 -6 -22 -78 -49 -159 -37 -111 -53 -179
-65 -277 -9 -71 -24 -174 -33 -229 -37 -228 -28 -756 17 -1050 6 -33 17 -125
26 -205 8 -79 22 -159 30 -178 7 -18 21 -73 30 -120 16 -86 35 -133 74 -182
19 -24 19 -27 4 -80 -50 -171 -84 -314 -84 -348 0 -17 -4 -42 -10 -56 -17 -45
-40 -346 -40 -522 0 -168 22 -433 41 -481 5 -13 9 -39 9 -56 0 -36 22 -141 51
-237 10 -36 30 -106 43 -156 13 -50 28 -99 34 -110 6 -10 27 -62 48 -114 20
-52 52 -127 70 -167 19 -40 34 -75 34 -78 0 -3 16 -28 35 -56 19 -28 35 -58
35 -65 0 -8 35 -67 77 -132 43 -64 84 -128 91 -141 7 -13 26 -40 43 -60 17
-20 59 -72 92 -116 124 -161 344 -380 478 -477 24 -17 51 -39 59 -48 8 -9 42
-34 75 -55 33 -22 77 -54 98 -71 22 -18 63 -44 92 -58 29 -13 85 -45 125 -71
39 -25 95 -56 123 -69 29 -13 79 -35 112 -50 92 -42 137 -62 175 -75 19 -7 71
-26 115 -42 44 -16 105 -33 135 -38 30 -5 93 -21 140 -36 47 -16 119 -31 160
-35 41 -4 95 -13 120 -20 25 -6 59 -9 75 -7 17 3 45 -2 64 -9 19 -8 57 -14 85
-13 89 2 221 -6 234 -15 7 -4 18 -3 25 2 7 5 48 10 92 10 138 2 210 8 224 17
13 8 70 13 148 14 17 0 34 5 38 11 3 5 26 10 50 10 24 0 46 4 49 9 3 4 17 6
31 3 14 -2 32 1 40 8 8 7 22 10 30 6 9 -3 27 1 40 10 13 9 29 13 35 9 6 -4 22
0 35 9 13 9 35 16 49 16 14 0 28 5 31 10 3 6 19 10 36 10 16 0 29 5 29 10 0 6
13 10 29 10 16 0 34 7 42 16 7 8 21 13 30 11 10 -3 26 1 36 9 10 7 26 14 35
14 16 0 94 31 128 51 8 5 22 12 30 15 8 3 38 17 67 31 29 14 56 25 60 25 4 0
27 13 50 29 23 16 47 29 53 29 12 0 57 27 84 52 10 9 31 20 45 23 15 3 45 21
67 40 21 19 63 47 93 62 52 27 54 27 65 9 6 -11 39 -52 74 -90 35 -39 91 -102
125 -140 34 -38 87 -95 117 -126 30 -31 73 -78 95 -104 50 -60 63 -74 78 -83
7 -5 24 -24 38 -43 15 -19 44 -53 65 -76 22 -22 52 -56 68 -75 45 -52 205
-226 256 -278 25 -25 61 -64 79 -86 68 -80 147 -170 186 -211 22 -23 76 -81
120 -128 44 -48 106 -115 138 -149 32 -34 70 -78 85 -97 15 -19 45 -53 67 -75
22 -22 47 -50 55 -61 9 -12 70 -80 137 -150 67 -71 131 -140 142 -153 11 -13
47 -53 80 -90 33 -36 69 -77 81 -91 29 -34 156 -173 205 -224 72 -73 229 -186
261 -186 8 0 25 -6 37 -14 12 -8 60 -20 106 -26 46 -6 92 -16 102 -23 13 -8
23 -8 41 1 13 7 41 12 63 11 39 -1 110 11 150 26 172 62 272 146 354 297 28
53 54 111 57 129 4 19 13 46 20 61 17 33 20 224 3 230 -5 2 -14 24 -20 48 -5
25 -13 54 -18 65 -5 11 -15 36 -22 55 -7 19 -25 54 -41 78 -16 24 -37 60 -48
80 -21 40 -260 270 -355 341 -16 12 -64 55 -106 94 -42 40 -85 79 -95 88 -10
9 -26 25 -35 35 -9 10 -45 44 -79 74 -35 30 -73 64 -84 75 -12 11 -50 45 -86
75 -35 30 -74 64 -85 75 -40 37 -122 110 -143 126 -11 10 -24 23 -28 31 -5 7
-22 24 -39 36 -16 13 -59 51 -96 85 -37 34 -106 96 -154 137 -48 41 -107 93
-130 115 -24 22 -87 81 -141 130 -54 50 -114 106 -133 125 -20 19 -52 47 -71
61 -19 15 -49 40 -65 55 -17 16 -53 49 -80 73 -28 24 -97 87 -154 140 -57 53
-113 105 -125 116 -22 20 -146 129 -200 175 -16 14 -44 39 -61 55 -18 17 -46
43 -64 58 -40 37 -39 60 9 127 22 30 52 77 67 103 15 27 43 72 61 100 18 29
61 109 95 179 66 135 72 141 125 114 160 -82 672 -47 883 59 104 53 176 109
240 185 51 60 68 102 70 170 4 96 -23 176 -93 278 -16 23 -27 46 -24 51 3 4
53 6 112 3 184 -8 279 24 353 119 71 88 77 207 17 332 -28 60 -74 110 -155
170 -31 22 -64 48 -73 57 -9 8 -34 23 -55 34 -21 10 -58 29 -83 41 -25 13 -76
30 -114 38 -38 9 -73 20 -79 26 -7 7 -3 27 13 62 36 85 49 192 34 285 -20 126
-33 161 -77 204 -55 56 -114 79 -217 87 -103 7 -190 -6 -320 -49 -118 -38
-208 -82 -257 -125 -21 -18 -41 -33 -45 -33 -3 0 -9 15 -13 33 -4 17 -23 82
-42 142 -19 61 -39 126 -45 145 -5 19 -21 62 -34 95 -41 97 -41 98 -55 135 -7
19 -16 37 -20 40 -4 3 -19 34 -34 70 -23 56 -52 109 -157 292 -9 16 -29 47
-44 70 l-28 40 18 51 c43 121 58 216 78 487 32 454 -4 958 -87 1229 -19 62
-35 125 -35 138 0 24 -44 147 -60 168 -5 6 -31 54 -58 107 -47 91 -69 122
-161 229 -39 45 -197 168 -257 198 -48 25 -203 61 -259 60 -22 -1 -54 -4 -71
-8z m27 -805 c70 -30 156 -143 184 -242 10 -32 26 -77 36 -100 10 -23 23 -70
28 -105 6 -35 22 -114 35 -174 13 -61 29 -177 35 -259 6 -81 13 -152 16 -156
7 -11 -16 -163 -26 -174 -7 -8 -132 79 -179 123 -8 8 -38 29 -67 48 -29 18
-68 46 -86 62 -17 15 -53 36 -79 46 -26 9 -55 25 -65 34 -10 9 -39 26 -64 38
-25 12 -51 28 -58 37 -8 9 -20 16 -28 16 -25 0 -63 32 -63 53 0 57 53 280 101
422 41 120 94 207 172 283 36 34 67 62 70 62 2 0 20 -6 38 -14z m-4437 -570
c29 -19 75 -60 102 -92 27 -31 71 -82 97 -111 26 -30 60 -80 74 -111 15 -31
38 -71 50 -89 35 -46 84 -177 98 -263 7 -41 16 -87 20 -102 6 -22 1 -33 -32
-66 -77 -78 -167 -178 -203 -227 -21 -27 -63 -81 -94 -120 -31 -38 -56 -74
-56 -78 0 -4 -17 -31 -38 -60 -21 -29 -54 -78 -73 -109 -18 -32 -39 -58 -46
-58 -22 0 -36 111 -63 478 -6 79 -6 185 1 290 5 92 12 214 15 272 4 97 13 157
49 315 8 33 17 80 21 105 6 46 11 60 20 60 3 0 29 -15 58 -34z m2741 -418 c33
1 74 -2 90 -7 17 -4 42 -4 59 2 21 7 36 6 62 -7 22 -10 60 -16 104 -16 38 0
71 -4 74 -8 6 -10 90 -29 161 -37 50 -5 119 -25 131 -38 4 -4 15 -7 25 -7 10
0 35 -7 56 -16 21 -9 47 -20 58 -25 11 -4 61 -24 110 -44 50 -20 104 -41 120
-47 17 -6 42 -19 57 -30 14 -10 30 -18 35 -18 14 0 163 -81 208 -113 22 -16
68 -47 102 -70 131 -89 219 -163 341 -286 70 -70 141 -145 159 -167 101 -125
121 -151 148 -194 17 -26 38 -58 48 -71 39 -53 106 -170 122 -213 10 -25 20
-46 24 -46 8 0 45 -74 66 -135 10 -27 29 -74 42 -103 46 -101 107 -322 129
-467 9 -55 21 -129 26 -165 14 -82 14 -543 0 -630 -31 -196 -43 -260 -50 -281
-5 -13 -13 -46 -17 -74 -4 -27 -10 -54 -14 -60 -5 -5 -13 -28 -19 -50 -11 -43
-73 -210 -97 -260 -7 -16 -21 -48 -30 -70 -9 -22 -20 -47 -25 -55 -5 -8 -20
-35 -33 -60 -93 -175 -148 -259 -286 -430 -114 -143 -291 -320 -395 -395 -59
-43 -122 -91 -141 -108 -11 -10 -40 -31 -65 -45 -25 -15 -60 -37 -79 -49 -19
-13 -40 -23 -48 -23 -8 0 -22 -8 -33 -18 -10 -9 -58 -37 -107 -61 -48 -24 -96
-47 -105 -52 -10 -5 -23 -9 -29 -9 -6 0 -33 -11 -61 -25 -27 -14 -58 -25 -68
-25 -9 0 -23 -7 -30 -15 -7 -9 -21 -13 -30 -10 -9 3 -23 -1 -30 -10 -7 -8 -25
-15 -41 -15 -15 0 -31 -4 -34 -10 -3 -5 -19 -10 -35 -10 -16 0 -32 -5 -36 -11
-3 -6 -17 -9 -31 -6 -13 2 -30 -1 -37 -8 -6 -7 -25 -13 -41 -13 -17 0 -52 -6
-80 -12 -27 -7 -66 -13 -85 -13 -19 -1 -40 -6 -47 -10 -7 -4 -27 -8 -45 -8
-18 0 -60 -3 -93 -5 -33 -3 -82 -6 -110 -7 -27 -1 -56 -6 -62 -10 -7 -4 -30
-3 -51 4 -30 9 -44 8 -61 0 -17 -9 -30 -9 -58 0 -19 6 -55 9 -78 7 -25 -3 -56
1 -76 9 -20 8 -48 11 -73 8 -28 -4 -62 0 -105 14 -35 12 -84 21 -108 21 -41 0
-232 56 -275 80 -10 6 -28 10 -41 10 -13 0 -27 4 -33 9 -5 5 -25 14 -44 19
-54 16 -191 75 -231 100 -20 12 -40 22 -44 22 -4 0 -19 8 -33 19 -15 10 -52
29 -82 42 -30 13 -66 34 -80 46 -14 13 -30 23 -37 23 -7 0 -13 3 -13 8 0 4
-25 23 -56 42 -31 19 -75 51 -98 70 -22 20 -59 49 -81 65 -56 41 -333 322
-364 370 -14 22 -28 42 -31 45 -53 52 -182 253 -262 409 -63 123 -142 313
-164 396 -24 89 -53 185 -59 195 -17 27 -54 342 -61 515 -7 151 7 410 27 509
6 28 15 78 19 111 9 59 42 192 58 230 5 11 19 52 31 90 23 73 42 122 70 189
17 40 128 262 153 306 32 57 134 207 156 230 13 14 41 50 61 80 44 64 292 318
366 376 28 21 52 41 55 44 3 4 30 23 60 43 30 20 66 47 80 59 14 13 39 30 57
37 18 7 38 20 45 29 7 8 33 25 58 36 25 12 59 31 77 44 17 12 36 22 42 22 6 0
28 11 49 25 20 13 52 27 69 31 18 4 38 13 44 20 6 8 19 14 28 14 10 0 36 9 59
20 22 11 47 20 55 20 8 0 20 7 27 15 7 8 25 15 41 15 15 0 31 5 34 10 3 6 19
10 36 10 16 0 29 5 29 10 0 6 15 10 34 10 19 0 37 4 41 9 3 6 37 13 75 17 39
4 73 11 76 15 3 5 23 9 44 9 21 0 40 4 42 9 2 6 41 12 87 15 45 3 89 10 97 17
10 8 22 8 45 0 22 -8 37 -8 51 0 11 6 39 8 62 5 22 -3 48 -2 56 4 8 5 24 7 35
3 11 -3 47 -6 80 -5z"/>
<path d="M5084 6510 c-60 -26 -121 -94 -162 -180 -34 -70 -37 -81 -37 -170 1
-83 4 -101 27 -145 35 -66 121 -149 183 -176 125 -56 309 0 366 112 54 107 60
256 13 354 -85 178 -253 266 -390 205z"/>
<path d="M2732 6454 c-110 -55 -202 -188 -202 -292 0 -48 33 -163 59 -205 50
-82 137 -133 223 -131 109 2 264 108 310 211 35 79 22 260 -23 324 -10 15 -49
46 -86 70 -63 41 -72 44 -148 47 -71 3 -86 0 -133 -24z"/>
<path d="M5865 5555 c-16 -9 -43 -30 -60 -49 -80 -88 -273 -203 -482 -287
-108 -43 -120 -47 -276 -74 -219 -39 -417 -30 -572 28 -142 53 -305 153 -385
237 -70 73 -97 90 -138 90 -58 0 -98 -28 -245 -174 -78 -77 -157 -154 -175
-169 -45 -38 -145 -83 -228 -103 -122 -29 -334 -2 -439 54 -22 12 -43 22 -47
22 -9 0 -163 104 -193 130 -44 39 -103 30 -139 -22 -30 -43 -20 -68 52 -135
83 -79 213 -147 377 -199 115 -37 125 -38 255 -37 189 1 262 23 435 134 61 40
128 97 209 179 65 66 123 120 128 120 5 0 37 -26 71 -58 126 -117 205 -166
347 -215 190 -65 337 -92 465 -84 241 15 326 27 442 63 202 62 463 199 578
302 28 25 67 56 88 70 69 46 87 117 42 166 -28 30 -65 34 -110 11z"/>
</g>
</svg>
