<?xml version="1.0" standalone="no"?>
<!DOCTYPE svg PUBLIC "-//W3C//DTD SVG 20010904//EN"
 "http://www.w3.org/TR/2001/REC-SVG-20010904/DTD/svg10.dtd">
<svg version="1.0" xmlns="http://www.w3.org/2000/svg"
 width="1000.000000pt" height="1000.000000pt" viewBox="0 0 1000.000000 1000.000000"
 preserveAspectRatio="xMidYMid meet">

<g transform="translate(0.000000,1000.000000) scale(0.100000,-0.100000)"
fill="#000000" stroke="none">
<path d="M22 8443 c2 -4 12 -25 22 -47 9 -21 39 -86 67 -143 27 -58 49 -109
49 -113 0 -17 59 -77 224 -228 l171 -156 22 -84 c22 -82 24 -85 125 -194 57
-61 113 -114 125 -119 24 -9 310 -22 893 -40 206 -7 381 -15 387 -18 7 -4 44
-51 83 -106 59 -83 70 -105 66 -130 -3 -16 -8 -63 -12 -102 -5 -58 -10 -73
-23 -73 -16 0 -199 37 -291 59 -90 21 -94 19 -116 -56 l-21 -68 -436 -3 -437
-2 0 -191 0 -190 38 -34 37 -35 588 0 587 0 0 -37 c-1 -21 -5 -69 -10 -108
-24 -187 -53 -432 -95 -813 -8 -73 -18 -144 -21 -157 l-6 -25 -418 0 c-341 0
-421 -3 -432 -14 -10 -9 -24 -113 -47 -332 -83 -817 -145 -1130 -293 -1504
-59 -150 -126 -278 -220 -422 -46 -71 -68 -113 -64 -125 3 -10 50 -53 105 -96
96 -74 101 -77 153 -77 65 0 70 4 157 140 127 196 245 458 318 703 l37 127
261 0 261 0 -7 -57 c-48 -420 -43 -395 -75 -382 -40 14 -60 12 -207 -28 -89
-24 -141 -43 -147 -53 -13 -24 22 -150 65 -237 45 -91 116 -163 196 -200 l60
-28 -6 -50 c-7 -51 -24 -203 -50 -425 -8 -69 -21 -179 -30 -245 -22 -172 -20
-217 9 -252 77 -92 346 -144 486 -93 53 19 110 67 110 93 0 7 9 91 20 187 11
96 29 252 40 345 11 94 36 305 55 470 20 165 42 356 50 425 27 243 74 646 85
725 6 44 15 123 20 175 5 52 18 167 30 255 19 155 46 387 75 645 8 69 25 222
39 340 14 118 35 292 46 385 67 576 82 702 86 723 l4 22 2195 0 2194 0 5 -32
c5 -33 28 -227 65 -548 11 -96 32 -272 46 -390 14 -118 32 -271 40 -340 18
-161 51 -441 70 -600 8 -69 22 -183 30 -255 22 -197 45 -393 54 -458 11 -82 8
-121 -44 -615 -36 -344 -44 -446 -35 -457 8 -10 40 -15 108 -17 l97 -3 8 -54
c4 -30 16 -134 28 -230 72 -633 79 -683 92 -710 7 -14 32 -37 57 -51 42 -23
55 -25 175 -25 168 0 266 27 334 92 l44 42 -6 73 c-3 40 -13 129 -21 198 -8
69 -21 188 -30 265 -8 77 -20 172 -26 210 -5 39 -17 133 -25 210 -16 139 -39
343 -54 463 l-7 62 230 2 c127 1 257 2 288 2 37 1 62 6 72 16 10 10 19 53 26
120 6 58 17 161 24 230 104 951 99 894 81 957 -20 69 -64 115 -127 132 -30 8
-144 11 -388 9 l-345 -3 -12 -45 c-6 -25 -12 -38 -13 -30 0 8 -4 45 -8 82 -7
63 -7 67 13 72 12 3 66 39 121 79 82 60 102 71 112 60 10 -10 86 -13 375 -13
l363 0 -52 -497 c-29 -274 -65 -610 -79 -748 -57 -543 -63 -579 -108 -631 -21
-24 -26 -25 -46 -14 -20 10 -53 70 -74 133 -11 29 -102 22 -232 -18 -62 -20
-119 -42 -126 -51 -29 -35 36 -195 113 -280 92 -99 230 -139 410 -116 207 26
325 140 378 365 26 110 223 1916 217 1983 -10 102 -63 154 -178 178 -80 16
-922 17 -938 1 -6 -6 -16 -57 -22 -113 l-12 -103 -36 52 c-81 119 -159 217
-217 276 -68 69 -62 48 -89 283 -39 344 -56 487 -71 615 -9 77 -17 149 -18
160 -1 20 7 20 581 25 l582 5 35 32 36 31 0 191 0 191 -437 2 -436 3 -21 68
c-22 74 -27 77 -111 57 -108 -26 -288 -61 -292 -56 -3 2 -10 54 -15 114 l-11
109 63 92 c38 55 72 93 84 96 12 2 185 9 386 15 561 17 859 30 883 39 13 5 66
55 119 112 53 57 99 107 102 110 3 3 16 44 28 90 l23 85 125 114 c206 187 252
233 270 275 10 22 35 76 55 120 21 44 47 100 58 125 12 25 23 49 25 53 2 5
-20 7 -49 4 -442 -40 -822 -70 -1169 -92 -129 -8 -293 -19 -365 -24 -71 -6
-193 -13 -270 -16 -77 -3 -205 -10 -285 -16 -420 -29 -2206 -79 -2840 -79
-628 0 -2415 50 -2830 79 -80 6 -208 13 -285 16 -77 3 -198 10 -270 16 -71 5
-236 16 -365 24 -341 22 -721 52 -1169 92 -29 3 -51 1 -49 -4z m4196 -1169
l552 -7 0 -224 0 -223 -725 0 -724 0 -16 52 c-8 28 -15 60 -15 70 0 21 -33 23
-125 7 -33 -5 -104 -16 -158 -24 -54 -8 -102 -17 -106 -19 -4 -3 -12 -1 -19 3
-8 5 -10 24 -4 67 l7 59 108 3 107 3 0 73 c0 59 -5 82 -25 120 -14 26 -25 50
-25 53 0 3 138 3 308 0 169 -4 556 -10 860 -13z m2722 10 c0 -4 -10 -23 -22
-43 -18 -29 -22 -51 -23 -116 l0 -80 115 -5 115 -5 9 -58 c5 -31 7 -59 4 -62
-6 -7 -157 10 -277 31 -103 17 -150 18 -156 2 -2 -7 -11 -39 -20 -70 l-16 -58
-724 0 -725 0 0 225 0 225 273 1 c149 1 454 5 677 8 620 11 770 12 770 5z
m1098 -2076 c77 -93 207 -277 200 -284 -3 -2 -47 -36 -98 -74 -80 -60 -99 -70
-134 -70 -40 0 -42 2 -83 68 -23 37 -82 118 -132 179 -50 62 -91 117 -91 122
0 5 39 38 88 75 78 59 92 65 134 66 47 0 47 0 116 -82z m-5633 -29 c50 -14
110 -73 123 -121 8 -29 -9 -241 -78 -975 -49 -516 -96 -975 -105 -1021 -40
-209 -132 -334 -279 -377 -70 -21 -257 -20 -322 2 -104 35 -178 102 -229 208
-31 62 -72 193 -63 199 15 11 247 66 276 66 l38 0 23 -71 c17 -52 34 -82 66
-116 l44 -45 33 19 c39 22 81 94 96 166 7 29 21 144 32 257 11 113 23 226 26
253 l6 47 -392 -2 -392 -3 -47 -155 c-82 -270 -194 -513 -329 -715 -63 -94
-69 -100 -104 -103 -34 -3 -48 5 -133 70 -52 40 -94 76 -95 80 0 4 32 56 70
115 234 359 367 774 449 1403 16 117 91 803 91 826 0 10 1158 3 1195 -7z
m6851 -44 c58 -17 110 -65 124 -115 8 -27 -14 -251 -95 -990 -58 -525 -112
-982 -120 -1015 -39 -149 -108 -245 -213 -297 -66 -33 -68 -33 -212 -33 -166
0 -198 10 -282 84 -51 45 -114 158 -124 221 l-6 35 114 38 c63 20 130 37 149
37 32 0 35 -3 53 -52 20 -56 73 -118 101 -118 9 0 32 15 50 33 61 61 67 99
164 1027 50 470 93 870 95 888 l5 32 -380 0 c-265 0 -379 3 -379 11 0 21 21
204 25 217 7 19 863 17 931 -3z m-1276 -425 c0 -5 -47 -457 -105 -1003 -58
-547 -105 -999 -105 -1006 0 -8 -46 -11 -155 -11 -150 0 -155 1 -155 21 0 22
196 1895 205 1967 l6 42 155 0 c92 0 154 -4 154 -10z m826 -92 c45 -24 82 -72
90 -116 6 -31 -104 -1157 -122 -1239 l-4 -23 -410 0 c-340 0 -410 2 -410 14 0
29 141 1362 145 1374 4 11 68 13 342 10 296 -3 342 -5 369 -20z"/>
<path d="M1476 4768 c-10 -106 -20 -201 -22 -210 -5 -17 17 -18 358 -18 l364
0 17 193 c10 105 17 200 17 210 0 16 -24 17 -358 17 l-358 0 -18 -192z m520
75 c-7 -83 -26 -239 -32 -260 -3 -10 -59 -13 -239 -13 l-235 0 4 23 c3 12 10
74 16 137 6 63 13 132 16 153 l6 37 235 0 236 0 -7 -77z"/>
<path d="M1426 4288 c-3 -13 -17 -97 -31 -188 -14 -91 -28 -175 -31 -187 l-6
-23 376 0 c207 0 376 3 376 8 0 4 9 90 20 192 11 102 20 193 20 203 0 16 -24
17 -360 17 l-360 0 -4 -22z m499 -65 c-3 -32 -10 -89 -15 -128 -5 -38 -12 -91
-15 -117 l-6 -48 -240 0 c-221 0 -239 1 -239 18 0 9 9 67 19 127 10 61 22 131
26 158 l6 47 235 0 235 0 -6 -57z"/>
<path d="M8370 4403 c0 -5 -7 -66 -15 -138 -8 -71 -15 -142 -15 -157 l0 -28
109 0 110 0 6 43 c11 83 25 223 25 255 l0 32 -110 0 c-60 0 -110 -3 -110 -7z
m180 -55 c0 -13 -5 -71 -12 -130 l-11 -108 -74 0 c-62 0 -73 3 -73 17 0 9 5
68 11 130 l12 113 73 0 c70 0 74 -1 74 -22z"/>
<path d="M8296 3693 c-9 -98 -19 -188 -22 -200 -4 -23 -3 -23 109 -23 l113 0
17 168 c10 92 20 182 24 200 l5 32 -114 0 -114 0 -18 -177z m200 115 c-3 -13
-10 -75 -16 -138 -17 -175 -8 -160 -93 -160 l-73 0 17 158 c10 86 18 158 18
160 1 1 35 2 76 2 73 0 75 -1 71 -22z"/>
<path d="M4203 5335 c-17 -12 -23 -29 -28 -83 -3 -37 -9 -79 -11 -94 l-5 -28
-192 -2 -191 -3 -8 -30 c-4 -16 -9 -75 -10 -130 l-3 -100 188 -3 187 -2 0 -33
c0 -17 -3 -42 -6 -54 -6 -22 -8 -22 -245 -25 -162 -2 -242 -7 -250 -15 -6 -6
-18 -65 -26 -132 -13 -97 -13 -124 -3 -136 10 -12 36 -15 113 -15 l101 0 -67
-68 c-41 -41 -67 -76 -67 -89 0 -14 27 -47 78 -93 42 -40 66 -65 52 -56 -14 9
-45 16 -75 16 -48 0 -51 -2 -112 -65 -56 -58 -62 -63 -58 -38 10 56 35 282 35
315 0 62 -21 112 -65 154 -57 55 -99 64 -304 64 -182 0 -201 -5 -201 -53 0
-12 -5 -64 -10 -115 -14 -130 -12 -132 100 -132 79 0 90 -2 90 -17 0 -22 -130
-1094 -134 -1108 -2 -5 -42 -32 -89 -58 -47 -27 -89 -57 -92 -67 -9 -28 109
-236 138 -244 44 -12 83 -6 132 20 154 82 462 294 556 384 46 44 46 48 -24
140 l-49 65 128 3 c70 1 129 0 132 -2 7 -7 -64 -100 -134 -175 -75 -81 -182
-167 -329 -263 -66 -43 -123 -85 -128 -94 -10 -17 82 -198 115 -226 12 -11 37
-18 62 -18 81 0 343 170 513 334 l103 98 37 -28 c60 -44 169 -140 291 -256
l113 -108 59 0 59 0 76 106 c41 59 75 112 75 119 0 31 -324 317 -467 412 l-52
35 16 34 17 34 233 0 c270 0 256 -6 267 110 4 36 9 86 12 111 10 77 5 79 -218
79 l-190 0 6 26 c4 14 18 96 31 181 14 86 26 158 29 160 2 2 34 -8 71 -22 44
-16 88 -25 126 -25 56 0 60 2 79 33 38 61 123 282 148 383 32 131 26 182 -27
235 -49 49 -90 59 -259 66 l-144 6 6 30 c3 16 6 40 6 53 l0 24 204 0 c151 0
206 3 214 13 5 6 15 60 22 120 9 85 9 111 0 122 -10 12 -48 15 -211 15 -110 0
-199 3 -199 8 0 4 5 46 11 92 15 119 13 120 -180 120 -114 0 -151 -3 -168 -15z
m313 -82 c-4 -32 -9 -79 -12 -105 l-6 -48 212 0 212 0 -6 -77 c-4 -43 -9 -90
-12 -105 l-6 -28 -208 0 -208 0 -6 -27 c-3 -16 -8 -56 -11 -89 l-7 -62 174 -4
c183 -4 209 -10 252 -57 53 -59 20 -226 -97 -486 -44 -98 -45 -100 -81 -103
-24 -2 -70 9 -132 33 -53 20 -98 34 -100 32 -2 -2 -17 -88 -33 -193 -17 -104
-35 -205 -41 -224 -5 -19 -10 -36 -10 -37 0 -2 95 -3 211 -3 l212 0 -7 -62
c-4 -35 -9 -84 -13 -110 l-6 -48 -236 0 -237 0 -29 -60 c-16 -33 -27 -61 -24
-63 2 -2 36 -25 74 -52 111 -77 246 -188 351 -289 l98 -92 -69 -97 c-96 -135
-97 -135 -264 21 -154 144 -328 292 -342 292 -2 0 -49 -44 -104 -98 -117 -114
-214 -188 -361 -278 -87 -52 -114 -64 -149 -64 l-43 0 -53 97 c-28 53 -47 99
-42 100 20 7 211 138 288 198 105 82 217 201 284 300 l53 80 -212 3 -212 2 6
78 c4 42 10 92 13 110 l5 32 249 0 248 0 10 38 c6 20 15 57 21 82 15 64 59
354 54 359 -2 2 -31 -21 -63 -52 -92 -88 -99 -86 -255 69 l-128 126 60 66 c55
62 62 67 105 70 44 3 49 0 126 -68 44 -39 97 -91 118 -115 20 -25 40 -45 44
-45 3 0 9 24 13 53 4 28 9 67 12 85 l6 32 150 0 150 0 -6 -67 -5 -68 15 35
c32 69 81 209 76 215 -3 3 -218 5 -479 5 -422 0 -473 2 -473 16 0 8 5 58 12
110 l11 94 254 0 253 0 0 29 c0 15 3 56 6 90 l7 61 -191 0 c-105 0 -193 3
-195 8 -2 4 1 50 7 102 l11 95 196 3 197 2 6 88 c11 134 -6 122 168 122 l150
0 -6 -57z m-1046 -725 c64 -33 84 -66 88 -146 2 -41 -18 -239 -52 -515 -31
-246 -56 -457 -56 -468 0 -20 1 -20 31 5 21 18 42 26 67 26 35 0 41 -5 105
-90 37 -50 65 -95 62 -99 -9 -15 -233 -183 -330 -248 -49 -33 -131 -84 -182
-112 -74 -42 -99 -52 -129 -49 -37 3 -40 6 -91 96 -29 52 -51 98 -48 102 3 5
38 27 78 49 39 22 78 44 85 49 8 6 35 195 82 577 39 312 70 578 70 591 0 24
-1 24 -101 24 l-102 0 7 73 c4 39 9 91 12 115 l6 42 177 0 c164 0 180 -2 221
-22z m1058 -103 l-11 -25 -171 -2 -171 -3 -7 -25 c-4 -14 -10 -39 -15 -57 l-8
-31 -89 84 -88 84 286 0 286 0 -12 -25z m-610 -429 l127 -124 -70 -65 c-64
-61 -74 -66 -115 -67 -42 0 -47 3 -120 78 -41 43 -97 97 -123 121 l-48 42 63
69 c61 66 65 68 111 69 l48 1 127 -124z m176 -90 c-35 -205 -30 -196 -106
-196 l-63 0 78 73 c42 40 77 78 77 84 0 7 -25 41 -56 75 l-56 63 50 3 c37 2
55 9 72 27 13 14 25 24 26 22 2 -1 -9 -69 -22 -151z m-404 -90 l105 -106 -112
0 c-84 0 -115 -4 -126 -14 -8 -9 -17 -46 -21 -88 -12 -120 -18 -148 -32 -148
-9 0 -12 9 -9 28 5 25 55 435 55 447 0 15 44 -23 140 -119z"/>
<path d="M6123 5335 c-16 -11 -23 -30 -28 -73 -3 -31 -8 -74 -11 -94 l-6 -38
-339 0 -339 0 -10 -22 c-5 -13 -23 -160 -41 -328 l-31 -304 22 -18 c19 -16 43
-18 172 -18 135 0 149 -2 138 -16 -23 -27 -220 -154 -311 -200 -49 -24 -93
-52 -98 -62 -8 -14 2 -43 41 -128 64 -139 69 -144 130 -144 34 0 47 -4 42 -11
-6 -11 -33 -210 -34 -256 -1 -51 12 -53 281 -53 192 0 249 -3 249 -12 1 -7
-12 -133 -27 -280 l-28 -268 -371 0 c-318 0 -373 -2 -384 -15 -20 -24 -45
-272 -30 -290 11 -13 135 -15 945 -15 748 0 935 3 943 13 6 7 16 53 21 102 6
50 13 109 16 131 10 76 21 74 -376 74 -272 0 -349 3 -349 13 -1 6 12 132 27
280 l27 267 241 0 c177 0 246 3 258 13 22 15 52 259 36 289 -9 17 -40 18 -722
18 l-712 0 60 28 c103 49 277 157 375 233 160 123 366 347 358 388 -2 8 -48
51 -102 95 -92 73 -104 80 -153 84 l-54 5 -120 -124 -119 -124 6 55 c3 30 11
107 18 170 l11 115 533 3 532 2 0 -32 c0 -18 -7 -89 -15 -158 -8 -69 -15 -131
-15 -138 0 -7 -28 9 -62 36 -35 27 -97 72 -139 101 -73 50 -77 52 -134 49
l-60 -3 -72 -100 c-50 -69 -72 -108 -70 -125 1 -18 24 -39 88 -85 142 -99 269
-207 405 -339 l128 -126 51 0 c45 0 55 4 82 33 45 48 143 182 143 196 0 16
-135 159 -229 241 l-74 65 156 5 c100 3 160 9 168 17 19 19 59 438 47 495 -17
83 -75 145 -157 168 -20 5 -155 10 -304 10 -251 0 -268 1 -263 18 2 9 8 51 11
93 10 108 7 109 -195 109 -122 0 -160 -3 -177 -15z m333 -112 c-4 -49 -9 -96
-12 -105 -4 -15 20 -17 288 -20 323 -4 352 -9 403 -70 46 -54 49 -92 26 -313
-12 -110 -21 -208 -21 -217 0 -16 -14 -18 -160 -18 -154 0 -160 1 -160 20 0
26 28 295 35 333 l5 27 -574 0 -573 0 -17 -172 c-10 -95 -20 -181 -22 -190 -5
-16 -21 -18 -160 -18 l-154 0 0 24 c0 13 14 151 30 306 17 155 30 284 30 286
0 2 157 4 349 4 l349 0 7 98 c4 53 9 100 12 105 2 4 76 7 165 7 l160 0 -6 -87z
m-340 -604 c119 -93 113 -79 61 -146 -80 -105 -269 -277 -398 -363 -164 -109
-306 -180 -362 -180 l-42 0 -53 106 c-29 59 -52 107 -50 109 2 1 28 15 58 30
206 104 408 259 556 428 64 73 70 77 109 77 36 0 53 -9 121 -61z m443 -21
c203 -138 549 -444 537 -474 -2 -6 -34 -51 -71 -98 -64 -83 -68 -86 -107 -86
-38 0 -48 7 -172 127 -136 131 -273 245 -395 329 -39 27 -71 53 -71 58 0 4 29
50 65 102 63 89 68 94 102 94 28 0 55 -13 112 -52z m308 -790 c-4 -29 -10 -86
-13 -125 l-7 -73 -258 0 c-201 0 -259 -3 -259 -12 0 -7 -14 -137 -30 -288 -16
-151 -30 -290 -30 -307 l0 -33 366 0 367 0 -7 -47 c-3 -27 -9 -81 -12 -120
l-7 -73 -918 0 c-729 0 -919 3 -919 13 0 6 5 60 12 120 l11 107 384 0 c300 0
383 3 383 13 0 6 14 138 30 292 16 154 30 292 30 308 l0 27 -265 0 -265 0 0
25 c0 13 5 69 11 125 l12 100 695 0 695 0 -6 -52z"/>
<path d="M3256 5281 c-59 -32 -112 -64 -116 -71 -11 -17 -5 -30 56 -130 61
-101 105 -186 150 -294 19 -44 39 -83 46 -88 7 -4 34 -8 60 -8 38 0 68 11 162
61 67 35 117 68 121 79 8 24 -64 186 -151 340 -92 162 -100 170 -166 170 -45
0 -69 -9 -162 -59z m272 -88 c90 -158 176 -343 165 -354 -5 -5 -51 -32 -103
-59 -72 -38 -105 -50 -138 -50 -42 0 -44 1 -60 43 -30 77 -119 253 -170 335
-36 57 -47 84 -39 89 7 5 50 29 97 55 69 38 95 47 136 47 l51 1 61 -107z"/>
</g>
</svg>
