<?xml version="1.0" standalone="no"?>
<!DOCTYPE svg PUBLIC "-//W3C//DTD SVG 20010904//EN"
 "http://www.w3.org/TR/2001/REC-SVG-20010904/DTD/svg10.dtd">
<svg version="1.0" xmlns="http://www.w3.org/2000/svg"
 width="1000.000000pt" height="1000.000000pt" viewBox="0 0 1000.000000 1000.000000"
 preserveAspectRatio="xMidYMid meet">

<g transform="translate(0.000000,1000.000000) scale(0.100000,-0.100000)"
fill="#000000" stroke="none">
<path d="M22 8443 c2 -4 12 -25 22 -47 9 -21 39 -86 67 -143 27 -58 49 -109
49 -113 0 -17 59 -77 224 -228 l171 -156 22 -84 c22 -82 24 -85 125 -194 57
-61 113 -114 125 -119 24 -9 310 -22 893 -40 206 -7 381 -15 387 -18 7 -4 44
-51 83 -106 59 -83 70 -105 66 -130 -3 -16 -8 -63 -12 -102 -5 -58 -10 -73
-23 -73 -16 0 -199 37 -291 59 -90 21 -94 19 -116 -56 l-21 -68 -436 -3 -437
-2 0 -191 0 -190 38 -34 37 -35 588 0 587 0 0 -37 c-1 -21 -5 -69 -10 -108
-16 -128 -40 -328 -60 -505 -31 -271 -46 -398 -106 -900 -8 -69 -23 -201 -34
-295 -11 -93 -26 -228 -35 -300 -9 -71 -22 -191 -30 -265 -8 -74 -17 -151 -20
-170 -3 -19 -12 -93 -20 -165 -9 -71 -22 -184 -30 -250 -8 -66 -21 -181 -29
-255 -9 -74 -20 -173 -26 -220 -6 -47 -17 -146 -26 -220 -8 -74 -22 -191 -30
-260 -8 -69 -21 -181 -29 -250 -8 -69 -21 -179 -30 -245 -22 -172 -20 -217 9
-252 77 -92 346 -144 486 -93 53 19 110 67 110 93 0 7 9 91 20 187 11 96 29
252 40 345 11 94 36 305 55 470 20 165 42 356 50 425 27 243 74 646 85 725 6
44 15 123 20 175 5 52 18 167 30 255 19 155 46 387 75 645 8 69 25 222 39 340
14 118 35 292 46 385 67 576 82 702 86 723 l4 22 2195 0 2194 0 5 -32 c5 -33
28 -227 65 -548 11 -96 32 -272 46 -390 14 -118 32 -271 40 -340 18 -163 51
-443 70 -600 8 -69 22 -186 30 -260 9 -74 22 -191 31 -260 45 -374 71 -593 94
-800 12 -102 30 -259 41 -350 11 -91 26 -223 34 -295 9 -71 22 -184 30 -250 8
-66 24 -201 35 -300 24 -215 36 -283 52 -302 6 -8 30 -24 52 -36 36 -19 57
-22 171 -22 168 0 266 27 334 92 l44 42 -6 73 c-3 40 -13 132 -21 203 -45 376
-57 482 -71 605 -8 74 -19 167 -24 205 -6 39 -13 99 -16 135 -3 36 -10 94 -15
130 -6 36 -17 130 -26 210 -9 80 -22 197 -30 260 -8 63 -23 194 -34 290 -20
178 -39 337 -66 560 -8 69 -24 202 -34 295 -21 184 -38 324 -70 595 -12 96
-28 229 -35 295 -27 239 -54 473 -71 610 -9 77 -17 149 -18 160 -1 20 7 20
581 25 l582 5 35 32 36 31 0 191 0 191 -437 2 -436 3 -21 68 c-22 74 -27 77
-111 57 -108 -26 -288 -61 -292 -56 -3 2 -10 54 -15 114 l-11 109 63 92 c38
55 72 93 84 96 12 2 185 9 386 15 561 17 859 30 883 39 13 5 66 55 119 112 53
57 99 107 102 110 3 3 16 44 28 90 l23 85 125 114 c206 187 252 233 270 275
10 22 35 76 55 120 21 44 47 100 58 125 12 25 23 49 25 53 2 5 -20 7 -49 4
-442 -40 -822 -70 -1169 -92 -129 -8 -293 -19 -365 -24 -71 -6 -193 -13 -270
-16 -77 -3 -205 -10 -285 -16 -420 -29 -2206 -79 -2840 -79 -628 0 -2415 50
-2830 79 -80 6 -208 13 -285 16 -77 3 -198 10 -270 16 -71 5 -236 16 -365 24
-341 22 -721 52 -1169 92 -29 3 -51 1 -49 -4z m4196 -1169 l552 -7 0 -224 0
-223 -725 0 -724 0 -16 52 c-8 28 -15 60 -15 70 0 21 -33 23 -125 7 -33 -5
-104 -16 -158 -24 -54 -8 -102 -17 -106 -19 -4 -3 -12 -1 -19 3 -8 5 -10 24
-4 67 l7 59 108 3 107 3 0 73 c0 59 -5 82 -25 120 -14 26 -25 50 -25 53 0 3
138 3 308 0 169 -4 556 -10 860 -13z m2722 10 c0 -4 -10 -23 -22 -43 -18 -29
-22 -51 -23 -116 l0 -80 115 -5 115 -5 9 -58 c5 -31 7 -59 4 -62 -6 -7 -157
10 -277 31 -103 17 -150 18 -156 2 -2 -7 -11 -39 -20 -70 l-16 -58 -724 0
-725 0 0 225 0 225 273 1 c149 1 454 5 677 8 620 11 770 12 770 5z"/>
</g>
</svg>
