<?xml version="1.0" standalone="no"?>
<!DOCTYPE svg PUBLIC "-//W3C//DTD SVG 20010904//EN"
 "http://www.w3.org/TR/2001/REC-SVG-20010904/DTD/svg10.dtd">
<svg version="1.0" xmlns="http://www.w3.org/2000/svg"
 width="1000.000000pt" height="1000.000000pt" viewBox="0 0 1000.000000 1000.000000"
 preserveAspectRatio="xMidYMid meet">

<g transform="translate(0.000000,1000.000000) scale(0.100000,-0.100000)"
fill="#000000" stroke="none">
<path d="M0 9413 l0 -588 48 -50 c139 -149 167 -205 37 -75 l-85 85 0 -2872 0
-2871 73 -98 c76 -103 146 -228 135 -239 -17 -18 -49 14 -113 113 -38 59 -72
109 -76 112 -3 3 -9 12 -12 20 -3 8 -6 -37 -6 -100 l-1 -115 55 -80 c172 -248
233 -350 220 -363 -8 -9 -31 18 -60 73 -15 28 -36 59 -46 71 -11 11 -19 24
-19 28 0 5 -22 38 -48 75 -26 36 -59 84 -72 106 l-25 40 -3 -1038 -2 -1038 27
-46 c72 -117 117 -197 221 -395 22 -42 53 -97 67 -122 l27 -46 3163 0 3163 0
-40 103 c-23 56 -48 116 -57 134 -8 18 -12 35 -9 39 6 5 53 -86 83 -161 6 -16
20 -49 30 -72 l18 -43 1654 0 1653 0 0 3644 0 3644 -40 63 c-22 35 -46 75 -52
89 -7 14 -27 46 -45 71 -18 26 -33 50 -33 55 0 5 -16 31 -35 58 -36 51 -42 66
-26 66 9 0 54 -70 90 -138 8 -15 37 -63 66 -107 28 -44 57 -89 63 -100 9 -15
11 139 12 638 l0 659 -42 66 c-105 162 -170 261 -207 317 -23 33 -84 125 -137
205 -86 128 -131 194 -286 420 -21 30 -70 100 -108 155 -39 55 -85 121 -103
147 l-32 48 -1097 0 c-610 0 -1098 -4 -1098 -9 0 -4 10 -19 23 -32 32 -33 132
-170 140 -191 13 -36 -12 -26 -52 20 -71 82 -161 197 -161 205 0 4 -25 7 -56
7 l-55 0 63 -82 c57 -76 98 -129 131 -168 7 -8 17 -22 22 -31 6 -10 64 -88
130 -174 66 -86 125 -164 130 -173 12 -20 63 -88 85 -113 8 -10 32 -41 53 -71
21 -29 66 -91 100 -137 84 -112 84 -113 92 -141 l7 -25 -26 25 c-15 13 -43 49
-64 80 -20 30 -42 61 -49 68 -7 7 -20 26 -30 42 -9 17 -21 30 -25 30 -4 0 -8
5 -8 11 0 11 -60 92 -72 97 -5 2 -8 8 -8 13 0 10 -54 83 -76 104 -6 5 -25 34
-43 63 -18 28 -36 52 -40 52 -3 0 -17 18 -31 40 -13 22 -28 40 -32 40 -4 0 -8
4 -8 10 0 5 -16 31 -35 57 -57 77 -137 181 -175 227 -19 23 -53 68 -75 99
l-40 56 -808 1 c-766 0 -807 -1 -798 -17 5 -10 68 -86 138 -170 70 -84 144
-173 163 -198 35 -47 67 -86 126 -154 33 -39 209 -255 252 -310 42 -55 231
-241 244 -241 6 0 55 -22 107 -49 53 -27 139 -65 191 -86 101 -39 445 -208
470 -230 8 -8 26 -18 40 -24 14 -6 57 -31 95 -56 39 -25 77 -48 85 -52 8 -4
33 -19 54 -35 21 -15 43 -28 49 -28 9 0 91 -69 85 -71 -49 -16 -1652 -59
-2208 -59 -640 0 -2234 45 -2332 66 -16 3 -28 14 -32 27 -3 12 -28 56 -55 97
-28 41 -51 79 -51 83 0 5 28 -16 63 -47 61 -55 95 -71 83 -41 -7 20 -4 19 39
-6 29 -17 41 -20 58 -11 12 5 30 13 41 16 11 4 16 12 12 22 -3 9 -9 27 -12 41
-6 23 -5 25 17 18 13 -4 31 -14 40 -21 17 -15 36 -18 41 -6 4 9 210 123 344
190 305 152 639 263 1014 336 69 13 143 27 165 32 22 4 52 7 67 5 38 -3 36 11
-16 99 -24 41 -43 76 -41 78 1 2 15 -10 31 -25 128 -125 167 -143 231 -111 16
8 30 8 50 0 15 -6 111 -13 213 -17 212 -7 433 -27 570 -52 52 -9 131 -17 175
-17 44 -1 85 -4 91 -8 15 -10 24 1 17 20 -6 17 -74 120 -99 151 -7 9 -48 63
-91 121 -122 161 -155 205 -162 210 -4 3 -39 48 -78 101 -39 53 -77 102 -85
110 -7 8 -47 57 -88 109 -41 52 -97 121 -124 153 l-50 57 -2518 0 -2518 0 0
-587z m7237 -1047 c28 -39 49 -74 47 -78 -3 -4 -16 -8 -29 -8 -18 0 -29 10
-44 43 -26 53 -57 107 -71 121 -5 5 -10 19 -10 30 0 19 3 18 28 -9 15 -16 50
-61 79 -99z m2489 -598 c14 -22 23 -42 21 -45 -6 -5 -52 55 -60 80 -11 29 11
10 39 -35z m-702 -486 c15 -26 53 -90 86 -142 32 -52 72 -117 88 -145 16 -27
73 -122 127 -210 54 -88 106 -173 115 -190 8 -16 23 -41 32 -55 19 -30 198
-332 229 -386 84 -147 124 -247 85 -215 -13 11 -106 163 -106 174 0 3 -20 36
-45 74 -25 37 -45 71 -45 74 0 6 -53 99 -180 315 -25 42 -54 93 -65 113 -12
20 -34 58 -50 86 -17 27 -34 57 -40 67 -5 10 -39 66 -75 125 -36 60 -67 113
-70 118 -18 35 -124 207 -131 211 -5 3 -9 14 -9 24 0 31 25 13 54 -38z m-6916
20 c6 -5 44 -53 82 -108 59 -82 70 -104 66 -129 -3 -16 -8 -63 -12 -102 -5
-58 -10 -73 -23 -73 -16 0 -199 37 -291 59 -90 21 -94 19 -116 -56 l-21 -68
-109 -3 c-60 -2 -137 0 -172 3 l-62 7 22 31 c13 18 46 75 74 127 28 52 74 138
103 190 28 52 51 102 51 112 0 17 14 18 198 18 108 0 203 -4 210 -8z m6014 -9
c53 -62 266 -449 253 -461 -3 -4 -45 -7 -92 -7 l-86 0 -18 62 c-9 34 -20 66
-23 71 -3 6 -30 4 -68 -4 -208 -45 -310 -65 -314 -61 -6 5 -24 162 -24 202 1
37 115 202 145 208 11 2 63 5 116 6 80 1 98 -2 111 -16z m-3904 -19 l552 -7 0
-224 0 -223 -725 0 -724 0 -16 52 c-8 28 -15 60 -15 70 0 21 -33 23 -125 7
-33 -5 -104 -16 -158 -24 -54 -8 -102 -17 -106 -19 -4 -3 -12 -1 -19 3 -8 5
-10 24 -4 67 l7 59 108 3 107 3 0 73 c0 59 -5 82 -25 120 -14 26 -25 50 -25
53 0 3 138 3 308 0 169 -4 556 -10 860 -13z m2722 10 c0 -4 -10 -23 -22 -43
-18 -29 -22 -51 -23 -116 l0 -80 115 -5 115 -5 9 -58 c5 -31 7 -59 4 -62 -6
-7 -157 10 -277 31 -103 17 -150 18 -156 2 -2 -7 -11 -39 -20 -70 l-16 -58
-724 0 -725 0 0 225 0 225 273 1 c149 1 454 5 677 8 620 11 770 12 770 5z
m-5590 -419 c29 -30 31 -35 14 -35 -11 0 -27 13 -37 29 -30 52 -23 54 23 6z
m820 -532 c-1 -21 -5 -69 -10 -108 -16 -128 -40 -328 -60 -505 -31 -271 -46
-398 -106 -900 -8 -69 -23 -201 -34 -295 -11 -93 -26 -228 -35 -300 -9 -71
-22 -191 -30 -265 -8 -74 -17 -151 -20 -170 -3 -19 -12 -93 -20 -165 -8 -71
-19 -166 -25 -210 -5 -44 -17 -141 -26 -215 -8 -74 -20 -154 -25 -177 -5 -23
-9 -59 -10 -80 0 -21 -6 -54 -14 -73 l-13 -35 -13 35 c-7 19 -12 38 -11 43 1
4 -3 7 -8 7 -6 0 -10 7 -10 15 0 7 -6 18 -12 22 -7 4 -26 33 -42 63 -16 30
-62 118 -104 195 -126 235 -271 601 -327 825 -86 344 -127 615 -141 925 -6
134 -10 157 -35 219 -33 78 -34 86 -15 86 7 0 21 15 29 33 30 63 30 81 -2 151
-30 67 -26 82 15 51 28 -21 37 -18 30 11 -4 14 0 62 8 107 23 121 46 262 58
347 6 41 15 85 20 96 14 29 6 48 -56 146 -29 47 -56 93 -60 103 -8 21 -6 20
81 -53 55 -46 73 -48 66 -7 -4 16 0 27 10 31 12 4 14 11 6 31 -5 13 -9 28 -9
33 0 12 107 15 568 18 l382 2 0 -37z m5034 5 c5 -33 28 -227 65 -548 11 -96
32 -272 46 -390 14 -118 30 -255 36 -305 5 -49 16 -144 24 -210 8 -66 24 -201
35 -300 12 -99 25 -211 30 -250 6 -38 17 -133 25 -210 8 -77 22 -194 29 -260
32 -260 58 -478 76 -640 11 -93 27 -231 36 -305 60 -515 67 -650 34 -670 -16
-10 -7 -51 31 -148 31 -78 65 -245 53 -264 -4 -6 -26 29 -51 83 -24 51 -60
122 -81 157 l-37 63 -40 -7 c-49 -8 -65 -18 -195 -124 -137 -111 -413 -308
-453 -323 -15 -6 -16 -14 -10 -64 l6 -58 -36 38 c-35 35 -38 36 -60 23 -29
-19 -334 -161 -417 -194 -36 -14 -89 -38 -117 -54 -29 -15 -59 -25 -68 -22
-20 8 -24 -39 -6 -81 15 -34 33 -107 28 -112 -3 -2 -20 21 -38 53 -19 31 -46
70 -61 86 -25 28 -29 29 -43 14 -9 -9 -27 -16 -41 -16 -13 0 -95 -18 -182 -39
-154 -39 -315 -69 -502 -93 -126 -16 -674 -16 -800 0 -147 19 -336 52 -430 74
-47 11 -92 22 -100 23 -8 2 -69 19 -135 38 -262 76 -525 188 -811 346 -97 54
-329 207 -440 292 -34 25 -78 49 -97 53 -24 5 -46 19 -65 42 -25 30 -30 33
-36 18 -4 -9 0 -27 8 -40 9 -12 52 -94 97 -181 45 -87 99 -189 119 -228 123
-233 146 -274 167 -307 13 -21 23 -41 23 -44 0 -4 13 -28 28 -53 46 -77 84
-173 72 -185 -14 -14 -22 -4 -78 104 -27 52 -61 115 -74 140 -14 25 -38 69
-54 98 -24 43 -33 52 -56 52 -24 0 -33 9 -63 67 -60 113 -159 290 -171 304 -6
8 -35 57 -64 109 -51 90 -53 99 -52 160 1 36 6 85 11 110 6 25 15 104 21 175
6 72 25 245 41 385 17 140 36 311 44 380 26 235 74 645 85 725 6 44 15 123 20
175 5 52 18 167 30 255 19 155 46 387 75 645 8 69 25 222 39 340 14 118 35
292 46 385 67 576 82 702 86 723 l4 22 2195 0 2194 0 5 -32z m1348 25 c34 -5
39 -10 76 -87 22 -44 48 -105 57 -135 18 -54 18 -55 -4 -72 -13 -10 -20 -22
-18 -27 3 -4 9 -35 12 -67 4 -33 9 -63 11 -66 6 -11 45 -262 54 -356 30 -297
35 -826 8 -876 -10 -20 15 -101 87 -272 25 -59 45 -110 45 -113 0 -3 -21 27
-47 65 -27 38 -60 84 -75 103 l-26 34 -7 -40 c-3 -21 -12 -61 -20 -89 -7 -27
-19 -75 -25 -105 -60 -292 -148 -553 -292 -870 -91 -201 -93 -205 -112 -270
-16 -53 -16 -57 2 -110 11 -30 39 -98 62 -150 64 -144 90 -219 79 -226 -12 -7
-39 14 -39 30 0 9 -71 154 -124 251 -19 35 -23 57 -36 185 -6 52 -17 145 -25
205 -27 204 -45 349 -65 525 -19 172 -34 295 -65 555 -9 72 -25 207 -35 300
-21 184 -38 324 -70 595 -12 96 -28 229 -35 295 -15 132 -46 396 -70 605 -8
74 -18 143 -21 152 -3 10 -2 22 1 28 7 11 647 14 717 3z m-7502 -13 c0 -5 -4
-10 -10 -10 -5 0 -10 5 -10 10 0 6 5 10 10 10 6 0 10 -4 10 -10z m8081 -176
c47 -56 159 -261 159 -290 0 -39 -33 -4 -83 86 -19 36 -53 96 -76 135 -23 38
-41 73 -41 77 0 14 27 8 41 -8z m-8790 -3816 c8 -15 8 -18 0 -14 -6 4 -16 16
-22 28 -8 15 -8 18 0 14 6 -4 16 -16 22 -28z m92 -137 c19 -33 21 -41 9 -41
-8 0 -16 14 -40 63 -2 4 0 7 5 7 5 0 16 -13 26 -29z m65 -117 c-4 -3 -12 5
-18 18 -12 22 -12 22 6 6 10 -10 15 -20 12 -24z m42 -64 c6 -11 8 -20 6 -20
-3 0 -10 9 -16 20 -6 11 -8 20 -6 20 3 0 10 -9 16 -20z m40 -61 c0 -6 -4 -7
-10 -4 -5 3 -10 11 -10 16 0 6 5 7 10 4 6 -3 10 -11 10 -16z m59 -93 c35 -61
157 -260 196 -321 18 -27 36 -60 39 -72 4 -13 11 -23 16 -23 5 0 12 -10 16
-22 3 -13 21 -45 39 -73 30 -47 52 -85 105 -180 12 -22 55 -96 94 -165 137
-237 206 -366 206 -385 0 -37 -29 -8 -68 67 -24 46 -59 112 -79 148 -20 36
-46 83 -58 105 -12 22 -42 76 -67 120 -57 100 -107 191 -126 230 -8 17 -23 41
-32 55 -10 14 -32 52 -50 85 -18 33 -44 80 -58 105 -14 25 -43 77 -64 115 -22
39 -47 79 -57 90 -9 11 -25 36 -34 55 -22 44 -40 74 -53 91 -6 8 -14 23 -18
34 -7 19 -6 19 10 3 9 -9 29 -37 43 -62z m7290 -376 c16 -36 49 -114 75 -175
26 -60 56 -128 66 -150 30 -67 61 -157 55 -163 -8 -8 -33 28 -46 68 -7 19 -25
63 -40 98 -16 34 -29 65 -29 68 0 6 -41 99 -106 242 -39 85 -39 85 -18 80 8
-2 28 -32 43 -68z m-1711 -421 c-3 -8 -7 -3 -11 10 -4 17 -3 21 5 13 5 -5 8
-16 6 -23z m172 -375 c0 -8 -4 -12 -10 -9 -5 3 -10 13 -10 21 0 8 5 12 10 9 6
-3 10 -13 10 -21z m48 -129 c-3 -3 -9 2 -12 12 -6 14 -5 15 5 6 7 -7 10 -15 7
-18z m102 -228 c12 -32 20 -60 17 -64 -4 -3 -9 3 -12 13 -4 10 -15 38 -26 62
-20 45 -25 73 -11 57 5 -6 19 -36 32 -68z m-3900 -68 c0 -6 -4 -7 -10 -4 -5 3
-10 11 -10 16 0 6 5 7 10 4 6 -3 10 -11 10 -16z m46 -116 c-5 -5 -36 62 -36
76 1 3 10 -11 21 -32 11 -22 18 -41 15 -44z m53 -85 c28 -67 19 -74 -13 -9
-29 55 -30 61 -17 61 4 0 18 -23 30 -52z"/>
<path d="M9130 9990 c0 -5 20 -36 44 -68 25 -32 80 -110 124 -173 43 -63 135
-195 203 -294 155 -225 125 -180 324 -477 l170 -253 3 455 2 455 -51 75 c-29
41 -79 115 -113 163 -34 49 -65 97 -71 108 -9 18 -23 19 -322 19 -200 0 -313
-4 -313 -10z"/>
<path d="M9820 9989 c0 -6 9 -23 21 -37 11 -15 50 -67 85 -117 36 -49 67 -92
70 -94 2 -2 4 55 4 127 l0 132 -90 0 c-58 0 -90 -4 -90 -11z"/>
<path d="M0 287 l0 -287 150 0 c83 0 150 2 150 4 0 3 -12 27 -26 53 -14 26
-62 118 -106 203 -44 85 -91 173 -103 195 -13 22 -33 58 -44 80 l-21 40 0
-288z"/>
</g>
</svg>
