<?xml version="1.0" standalone="no"?>
<!DOCTYPE svg PUBLIC "-//W3C//DTD SVG 20010904//EN"
 "http://www.w3.org/TR/2001/REC-SVG-20010904/DTD/svg10.dtd">
<svg version="1.0" xmlns="http://www.w3.org/2000/svg"
 width="1000.000000pt" height="1000.000000pt" viewBox="0 0 1000.000000 1000.000000"
 preserveAspectRatio="xMidYMid meet">

<g transform="translate(0.000000,1000.000000) scale(0.100000,-0.100000)"
fill="#000000" stroke="none">
<path d="M3045 8596 c-65 -28 -100 -75 -125 -168 -21 -82 -22 -100 -17 -295 4
-162 10 -230 27 -307 29 -130 66 -243 94 -286 13 -20 33 -56 46 -80 12 -25 36
-62 53 -84 l31 -39 -40 -30 c-89 -69 -344 -369 -344 -405 0 -7 -15 -29 -34
-49 -71 -80 -171 -261 -346 -628 -74 -155 -244 -496 -298 -595 -127 -236 -105
-210 -279 -353 -88 -73 -177 -148 -199 -169 -21 -20 -82 -73 -134 -119 -52
-45 -115 -101 -140 -124 -25 -23 -85 -79 -135 -125 -195 -180 -522 -520 -595
-617 -15 -21 -47 -60 -69 -88 -22 -27 -75 -96 -118 -152 -276 -363 -281 -370
-289 -433 -3 -22 -11 -54 -19 -72 -13 -33 -39 -182 -37 -223 0 -11 -4 -41 -9
-68 -10 -52 3 -241 21 -322 33 -145 81 -283 121 -347 16 -27 29 -52 29 -57 0
-7 104 -166 165 -251 74 -104 277 -323 345 -372 84 -61 127 -73 330 -98 47 -5
128 -17 180 -25 52 -8 153 -15 223 -15 99 0 135 -4 160 -16 28 -14 81 -48 292
-187 22 -15 72 -49 110 -76 187 -132 305 -191 384 -191 38 0 58 -15 233 -172
31 -28 68 -58 81 -67 14 -9 51 -36 82 -60 97 -73 338 -190 514 -248 308 -101
546 -118 776 -55 51 13 69 25 121 79 34 34 67 77 74 95 8 18 21 44 30 58 10
14 27 57 40 95 12 39 24 73 26 76 2 4 66 -13 141 -38 199 -64 309 -83 508 -90
143 -5 192 -2 305 15 122 19 245 52 298 81 17 9 23 4 50 -47 57 -106 189 -209
302 -237 90 -21 389 -32 471 -16 190 36 369 98 531 184 91 47 291 212 381 314
31 35 69 87 82 114 25 48 26 49 73 49 101 0 333 55 376 89 6 4 29 14 51 21 22
7 60 24 85 38 25 14 68 37 95 50 28 13 63 34 80 46 16 11 54 36 84 54 54 32
55 32 100 18 64 -21 140 -35 252 -47 88 -10 104 -9 173 11 155 43 241 97 391
246 68 67 135 146 175 204 89 133 173 259 196 297 10 18 48 78 84 135 36 57
68 111 72 121 4 10 18 32 31 50 28 38 55 108 91 234 24 83 26 108 26 265 -1
150 -3 178 -20 213 -11 22 -19 45 -20 51 0 5 -14 32 -32 60 -17 27 -39 63 -48
79 -49 89 -117 194 -145 225 -17 19 -44 53 -60 75 -16 22 -56 72 -88 110 -32
39 -66 84 -74 100 -25 47 -68 95 -225 253 -81 81 -151 152 -157 157 -21 19
-226 232 -401 415 -96 101 -206 216 -245 255 -38 39 -132 139 -209 222 -76 84
-141 153 -145 155 -4 2 -40 41 -81 88 -40 47 -103 117 -139 156 -104 113 -150
178 -167 234 -16 55 -86 204 -153 325 -21 39 -49 93 -63 120 -103 208 -275
453 -455 650 l-72 79 42 16 c46 18 87 44 154 100 23 19 54 44 68 55 30 23 92
163 125 280 35 125 40 146 51 210 16 92 16 95 24 181 6 71 4 91 -20 167 -23
77 -31 90 -80 135 -76 70 -215 129 -332 143 -48 5 -102 8 -118 4 -34 -6 -112
-61 -195 -139 -52 -47 -126 -112 -210 -182 -117 -98 -225 -159 -349 -196 -36
-11 -82 -24 -103 -31 -31 -9 -50 -7 -140 20 -318 95 -657 133 -915 104 -178
-21 -334 -40 -398 -51 -33 -5 -74 -11 -90 -14 -89 -11 -352 -82 -432 -117
l-43 -18 -25 43 c-14 23 -25 47 -25 52 -1 13 -76 130 -152 236 -87 122 -295
338 -378 393 -80 53 -208 105 -258 105 -20 -1 -51 -7 -67 -14z m296 -459 c214
-234 345 -434 420 -642 38 -105 57 -129 115 -149 41 -14 49 -14 91 2 57 21 82
54 91 117 l7 48 65 27 c96 39 243 77 345 90 50 6 119 16 155 20 36 5 88 12
115 15 28 3 61 8 75 10 30 6 91 11 260 20 94 6 155 3 245 -9 340 -47 425 -71
575 -160 58 -35 132 -78 165 -96 114 -62 150 -84 197 -120 26 -19 66 -49 90
-67 67 -50 267 -249 336 -335 34 -42 80 -90 102 -108 72 -57 230 -274 367
-505 63 -106 179 -348 202 -423 36 -116 129 -243 360 -492 59 -63 138 -149
176 -190 38 -41 113 -120 166 -175 54 -55 113 -118 131 -140 46 -55 237 -253
531 -549 140 -142 255 -266 263 -284 7 -19 75 -97 150 -175 75 -78 144 -153
153 -167 8 -14 35 -47 59 -75 57 -65 102 -135 163 -256 27 -54 58 -104 69
-112 44 -31 70 -162 51 -252 -18 -78 -91 -278 -111 -300 -10 -11 -29 -40 -42
-65 -14 -25 -41 -71 -61 -102 -21 -31 -37 -61 -37 -66 0 -5 -7 -16 -16 -23 -9
-7 -20 -22 -25 -34 -5 -11 -27 -47 -49 -80 -21 -33 -44 -70 -49 -81 -24 -52
-231 -294 -293 -342 -61 -46 -156 -91 -208 -97 -65 -9 -196 39 -255 93 l-45
41 0 72 c0 63 4 79 34 133 44 79 106 140 181 179 49 26 64 41 84 80 21 42 22
53 13 84 -6 20 -7 44 -2 57 4 12 11 64 14 115 5 81 2 103 -20 174 -32 101 -91
204 -163 279 -64 68 -109 96 -233 145 -91 35 -97 36 -238 37 -191 1 -228 -12
-344 -128 -114 -113 -178 -238 -195 -386 -5 -36 -15 -123 -24 -195 -9 -71 -21
-179 -28 -240 -17 -155 -16 -152 -33 -240 -38 -203 -61 -287 -121 -430 -73
-175 -158 -324 -232 -408 -18 -20 -33 -43 -33 -51 0 -34 -192 -173 -325 -235
-100 -47 -179 -73 -272 -90 -35 -6 -89 -16 -120 -22 -89 -16 -305 13 -353 49
-49 35 -79 73 -80 98 -1 62 116 206 202 250 33 16 54 36 67 62 11 20 39 62 63
94 160 209 231 327 283 475 36 99 37 109 32 194 -11 180 -101 294 -274 349
-51 17 -110 30 -131 30 -61 0 -181 -65 -351 -192 -20 -15 -56 -39 -81 -54 -25
-15 -76 -46 -115 -69 -97 -59 -127 -73 -198 -95 -99 -30 -184 -42 -307 -44
-142 -2 -183 6 -286 55 -165 78 -781 278 -984 320 -117 23 -180 21 -213 -8
-12 -11 -34 -24 -49 -31 -60 -25 -115 -89 -153 -180 -35 -81 -38 -94 -37 -180
2 -196 47 -271 342 -562 223 -221 279 -290 324 -403 23 -55 24 -66 14 -102
-18 -59 -40 -91 -84 -121 -37 -26 -45 -27 -164 -27 -245 -1 -531 88 -810 253
-98 58 -290 229 -290 259 0 18 -81 112 -105 121 -26 10 -44 40 -74 122 -27 75
-74 322 -77 403 0 22 -4 113 -9 202 -7 140 -6 167 9 203 27 69 29 144 7 285
-23 147 -48 228 -91 298 -17 27 -30 52 -30 56 0 4 -25 35 -56 69 -66 73 -168
143 -244 167 -30 10 -59 21 -65 25 -5 5 -39 16 -73 25 -35 9 -86 25 -113 36
-150 58 -340 -22 -463 -196 -55 -78 -80 -131 -106 -230 -19 -70 -21 -98 -17
-225 3 -80 10 -167 17 -195 46 -186 110 -321 192 -408 32 -32 58 -63 58 -67 0
-4 9 -15 20 -25 26 -23 26 -71 1 -84 -10 -6 -20 -8 -22 -6 -3 2 -34 6 -69 10
-69 6 -302 38 -410 57 -36 6 -77 17 -91 24 -30 15 -189 180 -264 274 -104 132
-196 275 -236 371 -66 158 -74 209 -73 429 1 164 17 247 65 346 36 74 304 434
408 549 10 11 42 49 71 84 111 137 536 558 677 673 22 18 94 81 159 139 65 59
178 155 249 214 72 59 137 116 145 125 8 9 37 32 63 50 50 33 77 77 77 123 0
13 19 58 43 99 39 69 121 232 427 848 55 113 115 228 132 255 17 28 45 75 63
105 46 79 264 349 321 397 27 22 74 54 104 70 92 49 108 63 126 108 21 55 13
103 -24 146 -15 18 -36 47 -47 64 -11 18 -33 54 -50 80 -16 26 -41 64 -54 84
-30 45 -79 160 -95 226 -16 60 -36 272 -36 373 l0 73 43 -30 c23 -17 72 -64
108 -104z m3659 -47 c80 -21 90 -50 69 -215 -20 -157 -28 -192 -67 -293 -46
-121 -122 -182 -261 -215 l-65 -15 -117 97 c-65 53 -148 114 -184 136 -108 66
-104 58 -49 91 27 15 61 35 76 44 137 78 301 205 403 311 28 28 64 58 80 65
29 13 43 13 115 -6z m-5225 -5075 c169 -31 250 -69 327 -155 90 -99 121 -229
98 -410 -27 -216 -2 -590 56 -849 8 -35 12 -66 9 -69 -3 -3 -18 4 -33 16 -15
12 -47 34 -72 49 -25 15 -63 41 -85 58 -29 23 -230 156 -241 160 -1 0 3 28 9
62 9 50 7 72 -7 126 -29 106 -59 157 -150 254 -50 53 -94 110 -106 137 -11 26
-27 103 -36 173 -19 147 -10 255 26 325 19 39 106 138 120 138 3 0 41 -7 85
-15z m6501 -27 c54 -27 151 -122 172 -168 24 -54 33 -149 17 -186 -21 -50 -82
-129 -131 -170 -26 -20 -53 -51 -61 -68 -7 -17 -29 -56 -48 -86 -73 -117 -100
-304 -61 -434 9 -32 16 -59 14 -60 -27 -21 -98 -66 -103 -66 -3 0 -29 -15 -58
-33 -96 -61 -323 -157 -372 -157 -8 0 -1 32 22 98 31 90 73 233 95 327 16 68
38 223 53 370 8 77 17 163 20 190 3 28 8 81 10 119 14 196 115 355 220 343 22
-2 49 0 60 4 30 13 102 2 151 -23z m-2006 -835 c34 -23 40 -33 40 -70 0 -44
-23 -110 -67 -185 -19 -35 -41 -72 -47 -83 -67 -120 -213 -291 -315 -367 -73
-55 -86 -70 -118 -135 -24 -49 -41 -73 -53 -73 -9 0 -38 -11 -64 -25 -183 -97
-309 -125 -546 -120 -157 3 -246 13 -335 37 -64 17 -356 108 -398 124 -20 8
-46 14 -57 14 -11 0 -20 4 -20 8 0 26 -134 182 -312 363 -231 235 -252 259
-267 315 -18 68 15 147 67 158 28 7 210 -35 322 -74 30 -10 129 -42 220 -71
184 -58 327 -112 428 -163 108 -54 162 -66 326 -72 153 -5 270 6 366 33 162
45 337 122 419 185 55 42 147 102 186 123 17 8 55 33 85 55 61 43 101 50 140
23z"/>
<path d="M3646 6985 c-68 -28 -95 -51 -141 -120 -47 -70 -57 -100 -57 -176 -1
-76 20 -129 76 -191 44 -51 94 -70 196 -75 115 -7 170 14 217 79 45 62 59 139
45 253 -11 98 -39 148 -106 194 -41 28 -126 61 -155 61 -9 0 -42 -11 -75 -25z
m154 -165 c37 -37 40 -44 40 -95 0 -31 -7 -69 -15 -85 -19 -37 -68 -63 -117
-63 -76 0 -118 56 -118 157 0 50 3 59 35 91 31 31 42 35 85 35 45 0 54 -4 90
-40z"/>
<path d="M6270 6910 c-100 -12 -163 -65 -195 -160 -35 -106 -2 -226 84 -310
117 -113 275 -118 378 -13 44 46 67 101 79 193 14 106 -68 241 -169 278 -56
21 -90 23 -177 12z m141 -144 c40 -27 69 -79 69 -122 0 -41 -36 -107 -69 -127
-36 -21 -104 -22 -140 -1 -89 52 -97 189 -15 253 38 30 108 28 155 -3z"/>
<path d="M4993 6798 c-64 -56 -707 -683 -1090 -1061 -241 -237 -243 -240 -243
-281 0 -46 23 -80 67 -97 13 -5 180 -9 374 -9 l349 0 0 -847 c0 -553 4 -861
10 -885 20 -71 -9 -68 615 -68 l561 0 44 23 c25 12 55 37 67 56 l23 34 0 843
0 844 323 0 c301 0 324 1 354 20 45 27 56 52 44 98 -9 30 -61 87 -268 294
-142 141 -269 266 -283 278 -14 12 -142 137 -285 278 -550 542 -539 532 -573
532 -24 0 -46 -13 -89 -52z"/>
<path d="M4496 3340 c-40 -13 -65 -38 -72 -75 -8 -42 18 -98 52 -114 18 -8
193 -11 607 -11 641 0 609 -3 643 61 20 40 11 79 -27 115 l-30 29 -572 2
c-315 1 -585 -2 -601 -7z"/>
<path d="M4485 2921 c-38 -16 -60 -51 -60 -96 0 -51 23 -81 74 -96 24 -7 228
-9 601 -7 622 3 595 0 626 66 19 40 13 71 -20 109 l-24 28 -589 2 c-323 1
-597 -2 -608 -6z"/>
<path d="M4496 2510 c-81 -25 -100 -125 -33 -181 21 -17 51 -18 615 -19 l594
0 28 29 c39 38 46 71 25 114 -32 68 -28 67 -648 66 -303 0 -565 -5 -581 -9z"/>
</g>
</svg>
