<?xml version="1.0" standalone="no"?>
<!DOCTYPE svg PUBLIC "-//W3C//DTD SVG 20010904//EN"
 "http://www.w3.org/TR/2001/REC-SVG-20010904/DTD/svg10.dtd">
<svg version="1.0" xmlns="http://www.w3.org/2000/svg"
 width="1174.000000pt" height="1312.000000pt" viewBox="0 0 1174.000000 1312.000000"
 preserveAspectRatio="xMidYMid meet">

<g transform="translate(0.000000,1312.000000) scale(0.100000,-0.100000)"
fill="#000000" stroke="none">
<path d="M7149 12900 c-166 -29 -261 -70 -423 -179 -144 -96 -246 -210 -330
-365 -110 -205 -164 -360 -206 -595 -20 -107 -22 -145 -17 -265 4 -78 9 -152
13 -166 5 -24 -2 -29 -110 -84 l-116 -58 -39 35 c-124 112 -367 159 -600 116
-115 -20 -146 -32 -160 -57 -7 -14 -6 -25 5 -40 19 -27 39 -28 96 -2 65 28
226 44 319 31 96 -13 207 -51 264 -91 25 -17 45 -33 45 -35 0 -2 -29 -21 -63
-43 -35 -22 -103 -77 -151 -122 -74 -71 -88 -90 -102 -136 -11 -40 -12 -58 -4
-74 18 -34 70 -20 70 20 0 51 133 187 263 267 150 92 254 146 282 146 121 -2
216 -58 436 -258 209 -190 531 -582 787 -960 132 -194 230 -400 277 -580 54
-203 79 -506 55 -636 -15 -80 -8 -104 31 -104 40 0 52 55 53 245 1 205 -15
344 -58 502 -68 247 -158 429 -339 686 -48 67 -87 124 -87 126 0 2 29 -2 64
-10 46 -10 88 -11 152 -5 105 10 95 17 201 -142 179 -270 263 -519 263 -784 0
-115 -24 -349 -44 -438 -8 -33 -26 -116 -41 -185 -49 -232 -102 -351 -160
-366 -16 -4 -28 -16 -31 -31 -6 -21 -11 -24 -33 -19 -14 3 -63 9 -108 12 l-82
7 14 31 c7 17 29 67 49 111 47 106 83 252 92 369 10 140 -4 423 -23 441 -18
19 -28 19 -47 -1 -14 -13 -15 -43 -10 -222 6 -185 4 -218 -15 -315 -40 -206
-124 -389 -246 -536 -71 -86 -147 -141 -197 -141 -45 0 -73 -41 -46 -68 16
-16 54 -15 116 3 63 19 138 86 218 193 32 42 59 79 61 81 1 2 11 -3 21 -12 12
-11 36 -17 69 -17 66 0 193 -33 246 -64 111 -66 176 -177 184 -321 12 -190
-78 -373 -269 -550 -82 -75 -163 -124 -269 -161 -69 -24 -84 -25 -214 -22
-105 3 -147 8 -170 21 -16 9 -40 21 -52 28 -19 10 -36 2 -158 -77 -219 -144
-274 -175 -399 -232 -123 -54 -278 -101 -428 -127 -104 -18 -388 -52 -484 -58
-69 -4 -72 -3 -87 23 -21 35 -110 104 -168 129 -24 11 -68 23 -97 27 -49 6
-55 5 -81 -20 -55 -53 -100 -132 -145 -257 -24 -69 -50 -156 -57 -192 l-12
-67 -13 36 c-14 42 -56 89 -98 111 -47 24 -173 43 -230 33 -50 -8 -182 -50
-208 -67 -27 -16 -136 -140 -143 -162 -6 -21 -8 -20 -34 16 -36 49 -142 141
-203 177 -27 15 -48 31 -48 36 0 17 127 121 187 152 l61 32 89 -22 c166 -42
391 -59 550 -41 108 12 146 28 141 62 -3 20 -8 22 -63 20 -329 -8 -391 -6
-505 15 -166 32 -260 58 -390 109 -226 88 -376 176 -510 300 -71 66 -167 188
-162 205 1 5 -7 25 -19 45 -19 31 -21 44 -17 141 8 168 61 293 159 371 l40 33
76 -72 c106 -101 213 -147 257 -110 23 18 20 49 -13 117 -33 68 -61 187 -61
262 0 43 2 49 19 44 26 -7 51 33 51 82 0 51 37 130 81 174 19 18 63 48 99 65
63 30 70 31 190 30 114 -1 131 -3 180 -27 30 -14 69 -39 86 -54 47 -42 103
-151 154 -303 25 -74 49 -141 53 -147 13 -21 47 -15 58 11 24 53 -102 372
-186 470 -84 99 -223 145 -394 132 -47 -3 -95 -9 -106 -12 -19 -5 -23 3 -40
88 -27 128 -28 451 -2 583 90 454 217 798 405 1103 45 71 140 190 172 214 53
39 35 89 -27 73 -84 -21 -304 -363 -430 -672 -52 -126 -78 -205 -123 -377 -20
-77 -40 -134 -44 -128 -10 16 -41 15 -55 -2 -22 -26 -100 -274 -127 -404 -14
-70 -28 -130 -29 -133 -2 -3 -13 -61 -24 -130 -58 -363 -59 -747 -1 -914 10
-30 16 -55 12 -55 -11 0 -98 74 -125 106 -72 85 -139 243 -185 434 -42 171
-54 284 -55 490 -1 250 32 489 99 710 66 220 70 236 55 254 -16 19 -47 21 -58
4 -17 -28 -76 -222 -109 -359 -50 -208 -77 -528 -64 -754 13 -214 42 -361 110
-557 21 -62 37 -114 35 -117 -11 -10 -139 34 -176 61 -31 23 -40 34 -35 50 13
52 -40 78 -69 34 -21 -31 -21 -161 -1 -236 8 -30 13 -56 12 -57 -1 -1 -56 44
-122 101 -131 113 -196 181 -225 237 -18 37 -43 181 -55 319 -7 81 -22 110
-60 110 -34 0 -31 9 -70 -225 -31 -192 -24 -490 15 -667 6 -23 9 -43 8 -45 -9
-8 -102 191 -131 277 -48 146 -68 293 -68 519 0 102 2 195 5 206 3 11 8 49 12
85 9 85 42 263 59 320 8 25 26 92 41 150 43 166 103 354 132 412 14 29 71 121
126 203 55 83 114 173 132 200 229 359 344 498 548 663 52 42 67 60 63 75 -5
19 9 37 131 162 113 118 319 278 415 323 144 68 219 85 395 90 205 6 306 -14
429 -84 130 -74 174 -130 174 -221 0 -30 21 -63 40 -63 24 0 40 34 40 83 0 61
-33 139 -76 178 -63 58 -170 119 -258 149 -83 27 -107 31 -266 36 -142 5 -190
4 -254 -10 -43 -9 -80 -16 -82 -16 -1 0 3 15 10 33 45 108 47 364 5 472 -46
119 -128 241 -224 334 -197 191 -418 291 -650 294 -194 2 -326 -62 -526 -255
-165 -159 -292 -410 -322 -639 l-12 -86 -93 43 c-52 24 -104 44 -115 44 -66 0
-166 -126 -186 -234 -13 -70 -3 -81 96 -111 48 -14 144 -45 212 -69 l124 -42
46 -135 c26 -74 53 -144 59 -156 14 -25 26 -22 -168 -49 -63 -9 -137 -20 -165
-25 -99 -18 -245 -22 -285 -9 -71 24 -112 -24 -125 -145 -4 -38 -11 -78 -16
-87 -11 -20 13 -48 40 -48 10 0 56 7 103 15 112 19 300 33 566 41 l218 7 39
-51 c37 -49 140 -132 164 -132 16 0 13 -16 -5 -31 -53 -44 -392 -446 -534
-633 -291 -383 -604 -839 -761 -1106 -329 -561 -519 -1193 -519 -1724 0 -132
5 -193 20 -266 19 -88 30 -124 82 -254 39 -97 159 -266 189 -266 6 0 39 -22
73 -49 332 -262 601 -429 847 -525 126 -49 216 -65 394 -69 l100 -2 7 -81 c5
-64 15 -98 47 -168 68 -146 186 -288 283 -337 38 -19 38 -19 30 -67 -4 -26 -7
-166 -6 -312 0 -247 2 -273 26 -385 70 -322 64 -300 110 -351 27 -29 71 -60
120 -84 l77 -37 308 -1 c223 0 330 4 387 14 43 8 92 14 110 14 17 0 92 27 167
59 76 32 161 66 191 75 30 8 101 36 159 61 57 26 123 53 147 62 23 8 47 24 53
34 8 15 14 17 29 9 38 -20 117 -28 230 -21 106 6 122 10 199 46 64 30 95 52
135 96 43 48 53 55 64 43 7 -8 23 -14 36 -14 13 0 55 -16 94 -34 88 -44 309
-119 432 -146 166 -37 241 -43 339 -26 247 43 463 177 742 462 101 103 108
113 128 180 12 39 21 77 21 85 0 8 4 20 9 28 7 10 16 3 37 -30 95 -148 242
-313 340 -380 121 -83 344 -149 505 -149 69 0 165 23 188 45 11 11 20 11 53
-1 51 -18 81 -5 76 33 -2 14 -10 29 -18 33 -142 65 -232 143 -322 276 -39 59
-118 204 -118 218 0 2 21 -4 48 -14 107 -41 347 -52 450 -21 151 46 199 137
251 471 12 74 26 156 32 181 6 29 6 54 1 70 -11 26 -63 69 -85 69 -19 0 -37
-21 -37 -42 0 -64 -106 -172 -228 -233 -62 -31 -87 -38 -157 -43 -76 -4 -89
-2 -137 21 -70 34 -111 79 -193 212 -37 61 -74 118 -82 127 -14 15 -12 18 23
34 63 26 269 92 412 130 118 31 134 33 148 20 21 -21 59 -12 180 44 187 88
316 188 409 320 188 267 279 663 247 1077 -29 375 -94 685 -221 1048 -94 272
-116 331 -186 505 -37 91 -73 182 -81 203 -13 35 -81 191 -161 370 -127 286
-248 474 -503 787 -111 136 -144 184 -205 299 -42 80 -75 107 -107 90 -23 -12
-23 -40 1 -70 10 -13 39 -62 64 -109 26 -47 96 -148 157 -225 200 -252 234
-299 313 -420 43 -66 110 -185 148 -265 39 -80 75 -154 81 -164 14 -27 186
-440 208 -501 10 -27 33 -86 50 -130 210 -537 295 -848 347 -1265 23 -182 22
-461 0 -610 -34 -224 -142 -501 -207 -533 -13 -7 -33 -30 -45 -51 -45 -86
-149 -178 -270 -238 -48 -24 -85 -34 -270 -77 -318 -74 -551 -155 -754 -263
-113 -59 -178 -107 -262 -192 -51 -52 -169 -204 -169 -219 0 -2 -10 -26 -22
-53 l-21 -49 -18 70 c-20 76 -45 315 -55 515 -5 96 -3 150 11 230 43 259 79
370 224 673 52 108 82 181 126 297 24 61 38 142 38 211 0 54 -5 76 -26 114
l-27 47 73 79 c116 127 172 232 204 389 19 89 13 220 -13 295 -37 107 -138
218 -232 255 l-33 13 38 21 c147 81 308 866 252 1229 -37 238 -146 493 -297
695 -32 42 -51 76 -46 81 5 5 27 14 49 21 123 39 244 116 510 327 136 107 305
299 431 489 123 186 136 234 115 425 -30 275 -104 486 -246 705 -153 235 -459
465 -795 597 -99 39 -306 95 -393 107 -103 13 -142 12 -268 -10z m396 -100
c228 -54 470 -163 635 -285 30 -22 62 -45 72 -50 9 -6 54 -43 99 -84 187 -170
341 -446 390 -696 41 -214 40 -355 -6 -455 -32 -71 -112 -191 -185 -277 -110
-130 -306 -320 -394 -383 -42 -30 -109 -78 -148 -106 -156 -113 -296 -163
-478 -171 -119 -5 -128 -4 -191 21 -36 14 -70 26 -76 26 -6 0 -22 17 -37 38
-72 103 -386 481 -408 490 -29 13 8 20 107 21 114 1 115 1 115 -22 0 -33 55
-112 94 -137 47 -28 175 -80 199 -80 43 0 5 -13 -54 -19 -69 -7 -93 -26 -73
-58 10 -15 25 -18 100 -15 139 5 273 52 379 132 28 21 88 84 135 139 l85 101
85 0 c47 0 162 8 255 16 94 9 196 17 229 18 56 1 60 3 97 45 49 55 63 103 49
166 -16 73 -38 117 -78 158 -74 76 -145 104 -222 87 -75 -17 -195 -39 -197
-36 -1 1 5 24 13 51 55 179 75 353 55 495 -13 92 -104 286 -159 339 -132 125
-279 210 -442 253 -71 19 -109 23 -235 22 -107 0 -164 -5 -200 -16 -280 -89
-449 -297 -545 -673 -55 -215 -80 -552 -44 -603 16 -23 13 -31 -37 -105 -4 -5
-27 7 -52 26 -45 34 -146 87 -166 87 -42 0 -71 229 -52 408 21 194 72 372 161
558 72 152 125 231 215 317 121 118 249 194 423 252 150 50 294 51 487 5z
m-78 -338 c9 -5 -31 -58 -125 -167 -129 -150 -308 -386 -386 -508 -32 -50 -39
-55 -80 -60 -52 -7 -119 -38 -156 -72 -14 -12 -37 -30 -52 -40 l-28 -17 6 33
c62 356 136 534 278 674 113 111 247 162 426 164 58 0 110 -3 117 -7z m-3892
-32 c137 -35 323 -139 417 -232 94 -95 193 -252 224 -358 28 -94 14 -342 -22
-381 -18 -20 -18 -38 2 -60 16 -17 15 -19 -8 -28 -61 -23 -157 -71 -198 -99
-24 -17 -46 -29 -48 -28 -1 2 14 54 34 117 39 121 54 222 35 233 -6 4 -11 26
-11 48 0 22 -5 70 -11 107 -45 282 -125 405 -306 471 -77 28 -104 33 -214 38
-165 6 -234 -13 -341 -94 -137 -103 -227 -239 -293 -440 -43 -130 -45 -199 -9
-317 4 -13 -8 -9 -53 18 -32 20 -77 45 -100 57 -42 22 -43 23 -43 74 0 162
100 418 230 590 22 29 88 91 147 139 113 90 217 149 293 165 63 13 180 4 275
-20z m4086 -15 c38 -13 95 -39 126 -56 l56 -32 -39 -31 c-108 -85 -252 -234
-455 -467 -180 -208 -443 -505 -567 -641 l-134 -147 -29 21 c-16 12 -29 25
-29 28 0 11 49 81 79 115 30 33 61 80 176 265 96 154 267 406 353 520 103 136
369 447 385 449 4 1 39 -10 78 -24z m285 -178 c36 -41 105 -153 140 -226 52
-111 41 -327 -29 -556 l-24 -80 -44 -6 c-24 -4 -71 -14 -104 -23 -98 -27 -198
-54 -226 -60 -23 -5 -28 -1 -44 34 -23 51 -121 141 -246 225 l-99 67 42 52
c225 273 554 606 599 606 4 0 20 -15 35 -33z m-4416 -62 c82 -8 157 -34 214
-76 107 -76 155 -206 175 -470 9 -121 3 -187 -25 -273 -24 -73 -25 -73 -44
-17 -22 65 -73 141 -114 167 -37 25 -114 51 -177 59 -49 7 -159 -15 -214 -43
-95 -47 -162 -149 -172 -260 -5 -59 -5 -62 20 -73 38 -17 53 0 60 67 7 69 43
132 99 173 57 42 107 54 203 49 65 -4 88 -9 122 -31 46 -29 85 -88 102 -154
11 -41 38 -62 61 -48 14 9 13 -1 -6 -36 -8 -17 -13 -37 -10 -44 2 -7 -7 -21
-22 -31 -14 -9 -75 -66 -135 -125 l-110 -108 -46 38 c-95 79 -278 209 -331
236 -30 15 -86 49 -125 75 -38 25 -86 56 -105 68 -41 25 -43 35 -44 237 -1
134 0 144 28 210 64 151 165 282 276 358 50 34 166 66 220 61 19 -2 64 -6 100
-9z m3302 -577 c-16 -24 -64 -98 -107 -165 -44 -68 -83 -123 -87 -123 -5 0 -8
39 -7 88 l0 87 56 45 c61 49 153 110 165 110 4 0 -5 -19 -20 -42z m-4435 -63
c73 -33 291 -151 403 -220 221 -135 276 -170 295 -186 11 -9 70 -50 130 -91
141 -95 223 -153 255 -178 l25 -19 -22 -23 -23 -22 -27 20 c-226 167 -405 268
-653 373 -41 18 -95 41 -120 51 -46 20 -217 79 -350 121 -41 13 -77 25 -79 26
-16 10 82 173 104 173 3 0 30 -11 62 -25z m4871 -14 c108 -63 287 -221 279
-245 -5 -15 -134 -33 -332 -45 -93 -6 -201 -14 -238 -17 l-69 -6 152 171 c84
94 154 171 156 171 2 0 25 -13 52 -29z m1166 -203 c63 -41 94 -89 102 -159 11
-94 -8 -103 -311 -136 -82 -9 -202 -16 -265 -16 -63 1 -254 -5 -425 -13 -170
-8 -414 -18 -541 -24 -127 -5 -238 -12 -246 -15 -8 -3 -20 1 -27 9 -11 13 -8
22 17 53 79 99 95 104 407 128 339 25 502 50 754 114 46 12 86 20 88 17 2 -2
25 3 51 11 26 8 92 21 147 29 55 7 118 18 140 23 60 13 58 13 109 -21z m-5657
-212 c168 -72 177 -78 214 -153 18 -37 35 -71 36 -74 2 -3 -18 -5 -44 -4 -26
1 -82 2 -124 3 -63 2 -78 5 -82 20 -3 9 -26 66 -51 126 -25 59 -46 110 -46
112 0 9 23 2 97 -30z m367 -192 c59 -33 65 -44 24 -44 -27 1 -37 8 -55 35 -12
19 -21 35 -19 35 2 0 24 -12 50 -26z m4617 -32 c-99 -126 -249 -225 -276 -183
-3 6 -27 13 -53 16 -129 18 -249 68 -291 121 -34 43 -27 51 47 59 73 9 311 19
490 22 l112 1 -29 -36z m-4721 -96 c63 -8 102 -10 117 -3 12 5 57 7 105 2 67
-5 91 -11 114 -30 29 -24 29 -24 9 -43 -22 -22 -71 -25 -525 -37 -107 -3 -215
-7 -240 -10 -25 -2 -121 -7 -215 -11 -93 -3 -216 -11 -273 -18 l-103 -13 3 46
3 46 120 6 c120 7 325 31 421 50 50 10 238 25 324 27 25 0 88 -5 140 -12z
m168 -251 l-77 -75 -58 34 c-71 42 -123 93 -102 100 14 6 69 9 229 14 l85 2
-77 -75z m-324 -477 c-5 -7 -60 -92 -124 -189 -105 -159 -140 -226 -190 -369
-15 -41 -86 -299 -108 -390 -135 -557 -116 -1023 55 -1365 67 -132 174 -275
206 -275 15 0 67 61 67 79 0 6 -11 36 -25 67 -14 31 -34 101 -45 155 -23 113
-36 365 -23 454 l9 60 13 -60 c7 -33 24 -80 36 -105 34 -67 298 -316 419 -395
15 -10 41 -18 59 -19 23 -1 31 -5 29 -16 -2 -8 -12 -49 -22 -90 -22 -86 -27
-178 -16 -265 6 -53 4 -69 -20 -130 -28 -69 -28 -73 -28 -295 -1 -234 10 -317
61 -475 40 -125 141 -281 192 -297 12 -3 9 -15 -12 -59 -63 -132 -71 -279 -23
-423 l27 -79 -30 -31 c-36 -37 -61 -103 -61 -160 0 -65 19 -167 41 -215 19
-43 19 -44 -1 -88 -10 -24 -22 -59 -26 -78 -7 -41 -15 -43 -57 -13 -139 94
-288 371 -262 487 5 24 14 29 73 45 79 20 224 91 254 123 18 19 20 27 10 48
-15 31 -30 31 -76 0 -57 -39 -200 -97 -286 -116 -60 -14 -276 -13 -347 1 -116
23 -349 119 -468 192 -339 211 -640 441 -702 536 -80 125 -136 282 -154 431
-17 135 -6 416 21 571 43 248 141 587 229 793 72 169 216 450 286 557 12 19
53 82 90 140 37 58 75 116 84 130 10 14 69 102 133 196 189 281 385 543 621
831 85 105 109 132 91 101z m1043 -830 c-3 -8 -6 -5 -6 6 -1 11 2 17 5 13 3
-3 4 -12 1 -19z m-17 -89 c-18 -112 -13 -381 10 -504 11 -61 22 -117 25 -125
3 -10 -15 -30 -50 -58 -59 -45 -112 -118 -122 -167 -7 -29 -7 -29 -13 -6 -12
53 19 351 61 566 21 108 90 368 96 361 2 -2 -1 -32 -7 -67z m-532 -1235 l38
-6 -58 -60 c-31 -33 -62 -57 -68 -53 -20 13 -70 133 -70 172 0 7 24 -1 60 -18
33 -16 77 -31 98 -35z m-83 -764 c9 -29 110 -130 129 -130 9 0 33 -15 53 -34
67 -59 226 -161 335 -214 88 -42 238 -102 256 -102 3 0 -20 -18 -51 -39 -31
-22 -77 -63 -103 -90 -40 -43 -53 -51 -83 -51 -29 0 -43 -8 -83 -51 -26 -28
-53 -69 -59 -90 -9 -30 -17 -39 -34 -39 -27 0 -112 -44 -145 -76 -25 -23 -26
-23 -52 -6 -88 58 -169 265 -199 508 -12 98 -8 345 7 407 8 32 20 35 29 7z
m4458 -35 c32 -45 32 -101 -2 -215 -31 -106 -63 -194 -96 -262 l-18 -37 -30
57 c-28 55 -104 144 -140 163 -12 7 -48 1 -127 -21 -60 -16 -114 -30 -118 -30
-5 0 -30 27 -56 60 -52 66 -115 114 -184 140 l-44 17 32 23 32 22 75 -22 c58
-17 101 -22 187 -22 174 0 296 34 411 115 28 20 52 36 55 36 3 0 13 -11 23
-24z m-853 -174 c0 -22 13 -33 60 -51 67 -25 179 -128 165 -151 -3 -4 -20 -11
-38 -14 -144 -31 -423 -154 -582 -257 -97 -62 -204 -156 -211 -184 -5 -20 -12
-24 -48 -24 -24 0 -57 -10 -81 -23 l-41 -23 12 55 c12 62 5 98 -37 186 -20 40
-34 54 -79 78 -50 26 -62 28 -130 24 -108 -6 -183 -39 -234 -102 -23 -28 -48
-61 -57 -74 -15 -24 -16 -22 -35 55 -12 43 -24 87 -28 97 -7 15 -2 17 49 17
65 0 467 52 582 75 215 44 469 157 666 297 60 43 67 45 67 19z m-1645 -230
c169 -60 251 -227 262 -537 7 -173 -7 -284 -53 -431 -42 -136 -71 -173 -133
-173 -31 0 -48 6 -67 25 -85 85 -115 340 -68 575 24 114 50 193 96 287 44 92
44 118 -3 118 -35 0 -82 -85 -129 -235 -70 -220 -87 -459 -44 -623 14 -55 14
-64 -1 -104 -9 -24 -22 -43 -29 -43 -19 0 -62 86 -88 175 -20 70 -23 102 -22
250 0 176 13 273 55 420 40 135 130 311 162 314 4 1 32 -8 62 -18z m2953
-1288 c25 -46 75 -120 111 -165 56 -70 77 -88 136 -118 65 -33 76 -35 165 -35
82 0 105 5 165 29 79 33 149 79 218 145 43 41 48 43 43 21 -3 -14 -8 -52 -11
-85 -12 -109 -53 -278 -82 -334 -42 -81 -86 -103 -217 -109 -122 -5 -294 19
-340 47 -17 11 -40 19 -50 18 -18 -2 -43 58 -102 236 -8 25 -67 20 -72 -7 -5
-24 18 -97 80 -261 88 -231 180 -379 309 -499 45 -42 66 -67 58 -72 -23 -14
-148 -16 -228 -5 -184 27 -346 107 -471 232 -94 94 -214 266 -305 436 l-27 51
17 54 c63 191 215 357 435 473 30 16 69 37 85 47 28 17 30 17 34 0 2 -9 24
-54 49 -99z"/>
<path d="M5830 10451 c-7 -14 -5 -52 10 -138 42 -254 42 -459 1 -671 -43 -220
-160 -554 -249 -713 -67 -118 -132 -191 -230 -256 -88 -59 -102 -75 -85 -102
26 -41 82 -14 215 104 85 75 139 150 211 297 104 212 190 486 233 743 22 128
21 371 -1 515 -9 58 -19 130 -22 160 -3 30 -10 61 -15 68 -16 19 -56 14 -68
-7z"/>
<path d="M5993 10034 c-26 -11 -12 -54 35 -111 27 -32 71 -88 98 -124 27 -36
69 -92 93 -125 101 -134 121 -163 165 -241 25 -45 46 -85 46 -88 0 -4 -12 2
-27 13 -42 29 -143 78 -188 91 -34 10 -213 41 -236 41 -20 0 -74 -60 -95 -105
-36 -76 -32 -117 16 -169 22 -23 57 -50 77 -58 23 -10 113 -22 229 -32 134
-11 211 -22 257 -37 l66 -21 8 -57 c18 -123 3 -406 -24 -453 -2 -4 -29 3 -61
14 -140 50 -380 10 -516 -87 -96 -68 -133 -118 -217 -285 -77 -155 -100 -277
-56 -304 30 -19 51 5 58 65 9 68 40 148 106 270 64 117 126 178 229 226 192
88 395 73 487 -37 40 -47 77 -132 83 -191 7 -60 26 -99 50 -99 20 0 15 -30
-38 -239 -47 -181 -50 -209 -25 -225 27 -18 49 4 71 71 18 57 22 62 60 73 236
71 456 319 638 720 68 150 74 172 54 189 -22 18 -48 10 -63 -19 -6 -14 -48
-99 -92 -190 -86 -176 -137 -261 -202 -344 -98 -124 -217 -224 -307 -259 -23
-10 -44 -17 -46 -17 -2 0 5 35 15 78 82 339 92 577 34 807 -34 137 -58 187
-87 183 -40 -6 -43 -29 -14 -117 36 -115 56 -236 56 -351 0 -111 -10 -220 -20
-220 -3 0 -14 25 -24 55 -9 31 -37 85 -62 121 -24 36 -42 69 -39 74 3 6 15 55
26 110 46 242 1 537 -121 780 -56 113 -100 175 -375 534 -67 87 -90 103 -122
90z m155 -649 c28 -9 64 -27 80 -40 17 -14 35 -25 41 -25 6 0 19 -4 29 -9 9
-6 39 -20 67 -33 45 -21 132 -94 123 -104 -3 -2 -36 3 -74 11 -39 8 -135 19
-215 25 -165 12 -203 21 -235 51 -30 28 -30 61 -3 105 20 32 24 34 78 34 32 0
80 -7 109 -15z"/>
<path d="M5336 9328 c-8 -24 -22 -68 -32 -98 -35 -114 -134 -292 -228 -409
-59 -74 -218 -206 -369 -307 -31 -20 -38 -30 -35 -52 6 -56 69 -30 228 92 229
176 365 353 467 606 57 141 60 210 8 210 -18 0 -26 -9 -39 -42z"/>
<path d="M5274 7548 c-11 -13 -28 -36 -38 -51 -25 -40 -58 -50 -125 -36 -121
25 -128 25 -150 -12 -38 -62 -22 -166 46 -306 50 -101 116 -187 172 -220 31
-19 44 -21 103 -14 77 8 101 25 130 89 16 35 19 68 20 180 1 133 0 141 -37
252 -20 63 -42 121 -47 128 -16 19 -53 14 -74 -10z m73 -389 c-4 -157 -27
-192 -98 -155 -14 7 -37 16 -52 20 -15 3 -27 11 -27 16 0 6 -13 24 -30 42 -16
17 -30 36 -30 41 0 6 -6 18 -14 26 -18 21 -63 148 -68 192 l-3 34 91 -4 c99
-3 138 8 171 53 l18 24 23 -87 c19 -71 22 -106 19 -202z"/>
<path d="M9925 3448 c-173 -394 -381 -754 -592 -1026 -40 -51 -73 -96 -73
-100 0 -3 39 -46 87 -94 82 -83 90 -88 129 -88 41 0 44 3 96 72 40 55 54 68
56 53 1 -11 -27 -307 -63 -657 -36 -350 -65 -646 -65 -657 0 -20 5 -21 159
-21 l159 0 6 43 c3 23 46 465 96 982 l91 940 84 175 c71 148 124 270 166 377
7 20 -1 27 -97 77 -74 39 -116 56 -143 56 l-38 0 -58 -132z"/>
<path d="M8700 3524 c-312 -73 -746 -135 -1154 -166 l-169 -12 7 -125 c4 -69
9 -128 12 -130 6 -6 341 17 504 34 69 7 127 11 128 10 2 -2 -13 -159 -34 -349
l-37 -346 -394 0 c-307 0 -393 -3 -393 -12 -1 -7 -7 -64 -13 -125 l-13 -113
393 0 c338 0 393 -2 393 -15 0 -8 -29 -287 -65 -621 -36 -334 -65 -611 -65
-616 0 -7 339 -13 341 -5 0 1 30 283 67 627 l67 625 367 3 366 2 6 38 c3 20 8
69 11 107 4 39 9 78 11 88 5 16 -17 17 -365 17 -204 0 -371 1 -371 3 0 16 80
741 82 742 2 1 59 12 128 24 113 19 430 89 438 96 3 3 -27 152 -45 223 -4 19
-11 22 -52 21 -25 0 -93 -12 -151 -25z"/>
<path d="M10437 3498 c-8 -41 -36 -418 -45 -598 l-7 -135 -187 -24 -188 -25 0
-118 0 -118 40 0 c34 0 214 21 291 34 l26 5 6 -412 c3 -227 11 -457 17 -512
43 -381 158 -619 323 -666 70 -20 214 -16 267 8 128 58 219 248 264 556 9 57
16 109 16 114 0 12 -179 43 -244 43 -52 0 -47 9 -66 -125 -24 -166 -77 -320
-110 -320 -18 0 -55 64 -75 130 -53 170 -69 365 -70 827 0 212 3 389 7 393 3
4 142 24 309 46 166 21 304 40 306 43 3 2 2 54 -2 115 l-8 111 -51 0 c-28 0
-153 -13 -276 -30 -124 -16 -235 -30 -247 -30 -21 0 -23 4 -23 58 0 31 9 179
20 327 11 149 20 285 20 303 l0 32 -154 0 -154 0 -5 -32z"/>
<path d="M5431 3343 c-77 -573 -218 -1104 -408 -1543 -93 -215 -247 -500 -356
-658 -34 -51 -42 -38 85 -135 77 -60 91 -67 132 -67 l45 0 79 127 c357 576
583 1217 706 2003 19 121 57 413 53 415 -3 3 -268 25 -293 25 -19 0 -22 -12
-43 -167z"/>
<path d="M6098 3493 c-60 -3 -78 -7 -83 -21 -10 -27 -7 -726 5 -892 46 -663
156 -1173 337 -1562 l36 -78 45 0 c37 0 62 11 153 66 60 36 109 68 109 70 0 3
-25 65 -55 137 -219 530 -326 1211 -312 1995 l5 292 -82 -2 c-44 -1 -115 -4
-158 -5z"/>
<path d="M10920 3439 c-47 -28 -87 -52 -89 -54 -2 -2 20 -39 49 -82 29 -43 82
-140 119 -215 l66 -137 37 0 c27 -1 62 13 132 55 53 31 96 59 96 64 0 17 -129
261 -178 338 l-54 82 -46 0 c-38 -1 -63 -10 -132 -51z"/>
<path d="M820 3456 c0 -37 -87 -807 -105 -936 -67 -461 -172 -826 -321 -1117
-46 -90 -79 -143 -181 -299 -14 -21 -11 -25 81 -98 81 -64 101 -76 133 -76 37
0 40 3 99 93 157 236 271 487 355 780 l33 117 399 0 399 0 -6 -47 c-3 -27 -15
-142 -27 -258 -22 -231 -38 -309 -75 -372 -29 -49 -75 -79 -102 -64 -42 23
-87 94 -112 179 -12 39 -16 42 -49 42 -20 0 -91 -14 -158 -32 -139 -37 -130
-23 -91 -147 43 -135 119 -229 223 -278 57 -27 67 -28 210 -28 144 0 152 1
206 28 67 32 137 104 174 177 59 117 58 104 184 1440 48 508 65 726 59 754
-12 51 -43 90 -98 118 l-45 23 -592 3 c-326 2 -593 1 -593 -2z m1009 -273 c0
-27 -8 -124 -17 -218 l-17 -170 -369 -3 -369 -2 6 47 c4 27 14 120 22 208 9
88 18 166 20 173 3 9 85 12 365 12 l360 0 -1 -47z m-59 -635 c0 -13 -9 -104
-20 -203 -11 -99 -20 -186 -20 -192 0 -10 -83 -13 -380 -13 -255 0 -380 3
-380 10 0 6 11 75 24 153 14 78 28 170 32 205 l7 62 368 0 369 0 0 -22z"/>
<path d="M2990 3457 c0 -2 -38 -362 -85 -801 -47 -439 -85 -800 -85 -802 0 -2
74 -4 165 -4 l164 0 5 33 c7 39 136 1289 136 1311 0 14 40 16 379 16 l380 0
-5 -32 c-2 -18 -34 -312 -69 -653 -36 -341 -67 -632 -70 -647 l-5 -28 168 0
168 0 72 683 c40 375 73 706 72 736 0 71 -31 125 -90 159 l-45 27 -627 3
c-346 1 -628 1 -628 -1z"/>
<path d="M3475 2978 c-3 -24 -19 -169 -35 -322 -39 -363 -45 -397 -86 -551
-113 -414 -367 -696 -825 -917 -49 -23 -89 -45 -89 -49 0 -4 22 -56 48 -115
l49 -109 42 -3 c34 -3 63 6 135 40 296 139 544 328 692 528 35 47 70 94 79
105 16 20 16 19 10 -5 -3 -14 -8 -85 -12 -157 -5 -110 -3 -144 12 -200 19 -70
65 -152 106 -189 39 -35 120 -72 187 -85 78 -15 278 -6 343 15 133 42 233 157
293 338 24 72 56 204 56 232 0 14 -259 62 -295 55 -14 -3 -21 -20 -31 -69 -52
-255 -164 -382 -273 -308 -90 61 -95 121 -47 558 20 179 36 331 36 338 0 8
-26 12 -89 12 l-89 0 9 39 c16 73 38 235 69 516 16 154 33 295 35 313 l6 32
-165 0 -165 0 -6 -42z"/>
</g>
</svg>
