<?xml version="1.0" standalone="no"?>
<!DOCTYPE svg PUBLIC "-//W3C//DTD SVG 20010904//EN"
 "http://www.w3.org/TR/2001/REC-SVG-20010904/DTD/svg10.dtd">
<svg version="1.0" xmlns="http://www.w3.org/2000/svg"
 width="1000.000000pt" height="1000.000000pt" viewBox="0 0 1000.000000 1000.000000"
 preserveAspectRatio="xMidYMid meet">

<g transform="translate(0.000000,1000.000000) scale(0.100000,-0.100000)"
fill="#000000" stroke="none">
<path d="M0 9413 l0 -588 48 -50 c139 -149 167 -205 37 -75 l-85 85 0 -2872 0
-2871 73 -98 c76 -103 146 -228 135 -239 -17 -18 -49 14 -113 113 -38 59 -72
109 -76 112 -3 3 -9 12 -12 20 -3 8 -6 -37 -6 -100 l-1 -115 55 -80 c172 -248
233 -350 220 -363 -8 -9 -31 18 -60 73 -15 28 -36 59 -46 71 -11 11 -19 24
-19 28 0 5 -22 38 -48 75 -26 36 -59 84 -72 106 l-25 40 -3 -1038 -2 -1038 27
-46 c72 -117 117 -197 221 -395 22 -42 53 -97 67 -122 l27 -46 3163 0 3163 0
-40 103 c-23 56 -48 116 -57 134 -8 18 -12 35 -9 39 6 5 53 -86 83 -161 6 -16
20 -49 30 -72 l18 -43 1654 0 1653 0 0 3644 0 3644 -40 63 c-22 35 -46 75 -52
89 -7 14 -27 46 -45 71 -18 26 -33 50 -33 55 0 5 -16 31 -35 58 -36 51 -42 66
-26 66 9 0 54 -70 90 -138 8 -15 37 -63 66 -107 28 -44 57 -89 63 -100 9 -15
11 139 12 638 l0 659 -42 66 c-105 162 -170 261 -207 317 -23 33 -84 125 -137
205 -86 128 -131 194 -286 420 -21 30 -70 100 -108 155 -39 55 -85 121 -103
147 l-32 48 -1097 0 c-610 0 -1098 -4 -1098 -9 0 -4 10 -19 23 -32 32 -33 132
-170 140 -191 13 -36 -12 -26 -52 20 -71 82 -161 197 -161 205 0 4 -25 7 -56
7 l-55 0 63 -82 c57 -76 98 -129 131 -168 7 -8 17 -22 22 -31 6 -10 64 -88
130 -174 66 -86 125 -164 130 -173 12 -20 63 -88 85 -113 8 -10 32 -41 53 -71
21 -29 66 -91 100 -137 84 -112 84 -113 92 -141 l7 -25 -26 25 c-15 13 -43 49
-64 80 -20 30 -42 61 -49 68 -7 7 -20 26 -30 42 -9 17 -21 30 -25 30 -4 0 -8
5 -8 11 0 11 -60 92 -72 97 -5 2 -8 8 -8 13 0 10 -54 83 -76 104 -6 5 -25 34
-43 63 -18 28 -36 52 -40 52 -3 0 -17 18 -31 40 -13 22 -28 40 -32 40 -4 0 -8
4 -8 10 0 5 -16 31 -35 57 -57 77 -137 181 -175 227 -19 23 -53 68 -75 99
l-40 56 -808 1 c-766 0 -807 -1 -798 -17 5 -10 68 -86 138 -170 70 -84 144
-173 163 -198 35 -47 67 -86 126 -154 33 -39 209 -255 252 -310 42 -55 231
-241 244 -241 6 0 55 -22 107 -49 53 -27 139 -65 191 -86 101 -39 445 -208
470 -230 8 -8 26 -18 40 -24 14 -6 57 -31 95 -56 39 -25 77 -48 85 -52 8 -4
33 -19 54 -35 21 -15 43 -28 49 -28 9 0 91 -69 85 -71 -49 -16 -1652 -59
-2208 -59 -640 0 -2234 45 -2332 66 -16 3 -28 14 -32 27 -3 12 -28 56 -55 97
-28 41 -51 79 -51 83 0 5 28 -16 63 -47 61 -55 95 -71 83 -41 -7 20 -4 19 39
-6 29 -17 41 -20 58 -11 12 5 30 13 41 16 11 4 16 12 12 22 -3 9 -9 27 -12 41
-6 23 -5 25 17 18 13 -4 31 -14 40 -21 17 -15 36 -18 41 -6 4 9 210 123 344
190 305 152 639 263 1014 336 69 13 143 27 165 32 22 4 52 7 67 5 38 -3 36 11
-16 99 -24 41 -43 76 -41 78 1 2 15 -10 31 -25 128 -125 167 -143 231 -111 16
8 30 8 50 0 15 -6 111 -13 213 -17 212 -7 433 -27 570 -52 52 -9 131 -17 175
-17 44 -1 85 -4 91 -8 15 -10 24 1 17 20 -6 17 -74 120 -99 151 -7 9 -48 63
-91 121 -122 161 -155 205 -162 210 -4 3 -39 48 -78 101 -39 53 -77 102 -85
110 -7 8 -47 57 -88 109 -41 52 -97 121 -124 153 l-50 57 -2518 0 -2518 0 0
-587z m7237 -1047 c28 -39 49 -74 47 -78 -3 -4 -16 -8 -29 -8 -18 0 -29 10
-44 43 -26 53 -57 107 -71 121 -5 5 -10 19 -10 30 0 19 3 18 28 -9 15 -16 50
-61 79 -99z m2489 -598 c14 -22 23 -42 21 -45 -6 -5 -52 55 -60 80 -11 29 11
10 39 -35z m-702 -486 c15 -26 53 -90 86 -142 32 -52 72 -117 88 -145 16 -27
73 -122 127 -210 54 -88 106 -173 115 -190 8 -16 23 -41 32 -55 19 -30 198
-332 229 -386 84 -147 124 -247 85 -215 -13 11 -106 163 -106 174 0 3 -20 36
-45 74 -25 37 -45 71 -45 74 0 6 -53 99 -180 315 -25 42 -54 93 -65 113 -12
20 -34 58 -50 86 -17 27 -34 57 -40 67 -5 10 -39 66 -75 125 -36 60 -67 113
-70 118 -18 35 -124 207 -131 211 -5 3 -9 14 -9 24 0 31 25 13 54 -38z m-6916
20 c6 -5 44 -53 82 -108 59 -82 70 -104 66 -129 -3 -16 -8 -63 -12 -102 -5
-58 -10 -73 -23 -73 -16 0 -199 37 -291 59 -90 21 -94 19 -116 -56 l-21 -68
-109 -3 c-60 -2 -137 0 -172 3 l-62 7 22 31 c13 18 46 75 74 127 28 52 74 138
103 190 28 52 51 102 51 112 0 17 14 18 198 18 108 0 203 -4 210 -8z m6014 -9
c53 -62 266 -449 253 -461 -3 -4 -45 -7 -92 -7 l-86 0 -18 62 c-9 34 -20 66
-23 71 -3 6 -30 4 -68 -4 -208 -45 -310 -65 -314 -61 -6 5 -24 162 -24 202 1
37 115 202 145 208 11 2 63 5 116 6 80 1 98 -2 111 -16z m-3904 -19 l552 -7 0
-224 0 -223 -725 0 -724 0 -16 52 c-8 28 -15 60 -15 70 0 21 -33 23 -125 7
-33 -5 -104 -16 -158 -24 -54 -8 -102 -17 -106 -19 -4 -3 -12 -1 -19 3 -8 5
-10 24 -4 67 l7 59 108 3 107 3 0 73 c0 59 -5 82 -25 120 -14 26 -25 50 -25
53 0 3 138 3 308 0 169 -4 556 -10 860 -13z m2722 10 c0 -4 -10 -23 -22 -43
-18 -29 -22 -51 -23 -116 l0 -80 115 -5 115 -5 9 -58 c5 -31 7 -59 4 -62 -6
-7 -157 10 -277 31 -103 17 -150 18 -156 2 -2 -7 -11 -39 -20 -70 l-16 -58
-724 0 -725 0 0 225 0 225 273 1 c149 1 454 5 677 8 620 11 770 12 770 5z
m-5590 -419 c29 -30 31 -35 14 -35 -11 0 -27 13 -37 29 -30 52 -23 54 23 6z
m820 -532 c-1 -21 -5 -69 -10 -108 -24 -187 -53 -432 -95 -813 -8 -73 -18
-144 -21 -157 l-6 -25 -423 0 c-341 0 -425 -3 -434 -13 -6 -8 -15 -56 -21
-108 -5 -52 -19 -170 -30 -264 -11 -93 -20 -181 -21 -195 -4 -88 -39 265 -39
398 0 48 -7 80 -30 134 -34 79 -36 88 -16 88 7 0 21 15 29 33 30 63 30 81 -2
151 -30 67 -26 82 15 51 28 -21 37 -18 30 11 -4 14 0 62 8 107 23 121 46 262
58 347 6 41 15 85 20 96 14 29 6 48 -56 146 -29 47 -56 93 -60 103 -8 21 -6
20 81 -53 55 -46 73 -48 66 -7 -4 16 0 27 10 31 12 4 14 11 6 31 -5 13 -9 28
-9 33 0 12 107 15 568 18 l382 2 0 -37z m5034 5 c5 -33 28 -227 65 -548 11
-96 32 -272 46 -390 14 -118 32 -271 40 -340 18 -161 51 -441 70 -600 8 -69
22 -183 30 -255 22 -197 45 -393 54 -458 11 -82 8 -121 -44 -615 -37 -350 -44
-446 -35 -457 9 -11 36 -15 107 -15 66 0 95 -4 98 -12 2 -7 10 -78 18 -156 14
-147 10 -228 -13 -242 -16 -10 -7 -51 31 -148 31 -78 65 -245 53 -264 -4 -6
-26 29 -51 83 -24 51 -60 122 -81 157 l-37 63 -40 -7 c-49 -8 -65 -18 -195
-124 -137 -111 -413 -308 -453 -323 -15 -6 -16 -14 -10 -64 l6 -58 -36 38
c-35 35 -38 36 -60 23 -29 -19 -334 -161 -417 -194 -36 -14 -89 -38 -117 -54
-29 -15 -59 -25 -68 -22 -20 8 -24 -39 -6 -81 15 -34 33 -107 28 -112 -3 -2
-20 21 -38 53 -19 31 -46 70 -61 86 -25 28 -29 29 -43 14 -9 -9 -27 -16 -41
-16 -13 0 -95 -18 -182 -39 -154 -39 -315 -69 -502 -93 -126 -16 -674 -16
-800 0 -147 19 -336 52 -430 74 -47 11 -92 22 -100 23 -8 2 -69 19 -135 38
-262 76 -525 188 -811 346 -97 54 -329 207 -440 292 -34 25 -78 49 -97 53 -24
5 -46 19 -65 42 -25 30 -30 33 -36 18 -4 -9 0 -27 8 -40 9 -12 52 -94 97 -181
45 -87 99 -189 119 -228 123 -233 146 -274 167 -307 13 -21 23 -41 23 -44 0
-4 13 -28 28 -53 46 -77 84 -173 72 -185 -14 -14 -22 -4 -78 104 -27 52 -61
115 -74 140 -14 25 -38 69 -54 98 -24 43 -33 52 -56 52 -24 0 -33 9 -63 67
-60 113 -159 290 -171 304 -6 8 -35 57 -64 109 -51 90 -53 99 -52 160 1 36 6
85 11 110 6 25 15 104 21 175 6 72 25 245 41 385 17 140 36 311 44 380 26 235
74 645 85 725 6 44 15 123 20 175 5 52 18 167 30 255 19 155 46 387 75 645 8
69 25 222 39 340 14 118 35 292 46 385 67 576 82 702 86 723 l4 22 2195 0
2194 0 5 -32z m1348 25 c34 -5 39 -10 76 -87 22 -44 48 -105 57 -135 18 -54
18 -55 -4 -72 -13 -10 -20 -22 -18 -27 3 -4 9 -35 12 -67 4 -33 9 -63 11 -66
6 -11 45 -260 55 -356 5 -54 13 -157 16 -230 l6 -132 -226 -3 c-137 -2 -230
-7 -236 -13 -6 -6 -16 -57 -22 -113 l-12 -103 -36 52 c-81 119 -159 217 -217
276 -68 69 -62 48 -89 283 -25 222 -54 472 -70 610 -8 74 -18 143 -21 152 -3
10 -2 22 1 28 7 11 647 14 717 3z m-7502 -13 c0 -5 -4 -10 -10 -10 -5 0 -10 5
-10 10 0 6 5 10 10 10 6 0 10 -4 10 -10z m8081 -176 c47 -56 159 -261 159
-290 0 -39 -33 -4 -83 86 -19 36 -53 96 -76 135 -23 38 -41 73 -41 77 0 14 27
8 41 -8z m-1093 -966 c77 -93 207 -277 200 -284 -3 -2 -47 -36 -98 -74 -80
-60 -99 -70 -134 -70 -40 0 -42 2 -83 68 -23 37 -82 118 -132 179 -50 62 -91
117 -91 122 0 5 39 38 88 75 78 59 92 65 134 66 47 0 47 0 116 -82z m-5633
-29 c50 -14 110 -73 123 -121 8 -29 -9 -241 -78 -975 -49 -516 -96 -975 -105
-1021 -40 -209 -132 -334 -279 -377 -70 -21 -257 -20 -322 2 -104 35 -178 102
-229 208 -31 62 -72 193 -63 199 15 11 247 66 276 66 l38 0 23 -71 c17 -52 34
-82 66 -116 l44 -45 33 19 c39 22 81 94 96 166 7 29 21 144 32 257 11 113 23
226 26 253 l6 47 -392 -2 -392 -3 -47 -155 c-82 -270 -194 -513 -329 -715 -63
-94 -69 -100 -104 -103 -34 -3 -48 5 -133 70 -52 40 -94 76 -95 80 0 4 32 56
70 115 234 359 367 774 449 1403 16 117 91 803 91 826 0 10 1158 3 1195 -7z
m6851 -44 c58 -17 110 -65 124 -115 8 -27 -14 -251 -95 -990 -58 -525 -112
-982 -120 -1015 -39 -149 -108 -245 -213 -297 -66 -33 -68 -33 -212 -33 -166
0 -198 10 -282 84 -51 45 -114 158 -124 221 l-6 35 114 38 c63 20 130 37 149
37 32 0 35 -3 53 -52 20 -56 73 -118 101 -118 9 0 32 15 50 33 61 61 67 99
164 1027 50 470 93 870 95 888 l5 32 -380 0 c-265 0 -379 3 -379 11 0 21 21
204 25 217 7 19 863 17 931 -3z m-762 -265 c112 0 218 -3 235 -6 l31 -6 0 -85
c0 -60 -4 -85 -13 -89 -7 -2 -164 -8 -348 -12 l-334 -7 -12 -45 c-6 -25 -12
-38 -13 -30 0 8 -4 45 -8 82 -7 63 -7 67 13 72 12 3 66 38 121 79 82 60 101
71 112 60 10 -10 63 -13 216 -13z m-514 -160 c0 -5 -47 -457 -105 -1003 -58
-547 -105 -999 -105 -1006 0 -8 -46 -11 -155 -11 -150 0 -155 1 -155 21 0 22
196 1895 205 1967 l6 42 155 0 c92 0 154 -4 154 -10z m826 -92 c45 -24 82 -72
90 -116 6 -31 -104 -1157 -122 -1239 l-4 -23 -410 0 c-340 0 -410 2 -410 14 0
29 141 1362 145 1374 4 11 68 13 342 10 296 -3 342 -5 369 -20z m-6957 -1045
c-47 -410 -44 -396 -69 -383 -24 13 -102 11 -165 -4 l-50 -11 -44 80 c-37 66
-127 264 -162 353 l-9 22 253 0 253 0 -7 -57z m6441 -409 c-5 -20 -14 -49 -20
-64 -10 -25 -8 -41 15 -112 15 -46 45 -117 66 -159 50 -100 80 -187 68 -195
-12 -7 -39 14 -39 30 0 9 -52 115 -127 259 -14 26 -25 98 -36 225 l-4 52 42 0
43 0 -8 -36z m-7949 -806 c8 -15 8 -18 0 -14 -6 4 -16 16 -22 28 -8 15 -8 18
0 14 6 -4 16 -16 22 -28z m92 -137 c19 -33 21 -41 9 -41 -8 0 -16 14 -40 63
-2 4 0 7 5 7 5 0 16 -13 26 -29z m65 -117 c-4 -3 -12 5 -18 18 -12 22 -12 22
6 6 10 -10 15 -20 12 -24z m42 -64 c6 -11 8 -20 6 -20 -3 0 -10 9 -16 20 -6
11 -8 20 -6 20 3 0 10 -9 16 -20z m40 -61 c0 -6 -4 -7 -10 -4 -5 3 -10 11 -10
16 0 6 5 7 10 4 6 -3 10 -11 10 -16z m59 -93 c35 -61 157 -260 196 -321 18
-27 36 -60 39 -72 4 -13 11 -23 16 -23 5 0 12 -10 16 -22 3 -13 21 -45 39 -73
30 -47 52 -85 105 -180 12 -22 55 -96 94 -165 137 -237 206 -366 206 -385 0
-37 -29 -8 -68 67 -24 46 -59 112 -79 148 -20 36 -46 83 -58 105 -12 22 -42
76 -67 120 -57 100 -107 191 -126 230 -8 17 -23 41 -32 55 -10 14 -32 52 -50
85 -18 33 -44 80 -58 105 -14 25 -43 77 -64 115 -22 39 -47 79 -57 90 -9 11
-25 36 -34 55 -22 44 -40 74 -53 91 -6 8 -14 23 -18 34 -7 19 -6 19 10 3 9 -9
29 -37 43 -62z m7290 -376 c16 -36 49 -114 75 -175 26 -60 56 -128 66 -150 30
-67 61 -157 55 -163 -8 -8 -33 28 -46 68 -7 19 -25 63 -40 98 -16 34 -29 65
-29 68 0 6 -41 99 -106 242 -39 85 -39 85 -18 80 8 -2 28 -32 43 -68z m-1711
-421 c-3 -8 -7 -3 -11 10 -4 17 -3 21 5 13 5 -5 8 -16 6 -23z m172 -375 c0 -8
-4 -12 -10 -9 -5 3 -10 13 -10 21 0 8 5 12 10 9 6 -3 10 -13 10 -21z m48 -129
c-3 -3 -9 2 -12 12 -6 14 -5 15 5 6 7 -7 10 -15 7 -18z m102 -228 c12 -32 20
-60 17 -64 -4 -3 -9 3 -12 13 -4 10 -15 38 -26 62 -20 45 -25 73 -11 57 5 -6
19 -36 32 -68z m-3900 -68 c0 -6 -4 -7 -10 -4 -5 3 -10 11 -10 16 0 6 5 7 10
4 6 -3 10 -11 10 -16z m46 -116 c-5 -5 -36 62 -36 76 1 3 10 -11 21 -32 11
-22 18 -41 15 -44z m53 -85 c28 -67 19 -74 -13 -9 -29 55 -30 61 -17 61 4 0
18 -23 30 -52z"/>
<path d="M4203 5335 c-17 -12 -23 -29 -28 -83 -3 -37 -9 -79 -11 -94 l-5 -28
-192 -2 -191 -3 -8 -30 c-4 -16 -9 -75 -10 -130 l-3 -100 188 -3 187 -2 0 -33
c0 -17 -3 -42 -6 -54 -6 -22 -8 -22 -245 -25 -162 -2 -242 -7 -250 -15 -6 -6
-18 -65 -26 -132 -13 -97 -13 -124 -3 -136 10 -12 36 -15 113 -15 l101 0 -67
-68 c-41 -41 -67 -76 -67 -89 0 -14 27 -47 78 -93 42 -40 66 -65 52 -56 -14 9
-45 16 -75 16 -48 0 -51 -2 -112 -65 -56 -58 -62 -63 -58 -38 10 56 35 282 35
315 0 62 -21 112 -65 154 -57 55 -99 64 -304 64 -182 0 -201 -5 -201 -53 0
-12 -5 -64 -10 -115 -14 -130 -12 -132 100 -132 79 0 90 -2 90 -17 0 -22 -130
-1094 -134 -1108 -2 -5 -42 -32 -89 -58 -47 -27 -89 -57 -92 -67 -9 -28 109
-236 138 -244 44 -12 83 -6 132 20 154 82 462 294 556 384 46 44 46 48 -24
140 l-49 65 128 3 c70 1 129 0 132 -2 7 -7 -64 -100 -134 -175 -75 -81 -182
-167 -329 -263 -66 -43 -123 -85 -128 -94 -10 -17 82 -198 115 -226 12 -11 37
-18 62 -18 81 0 343 170 513 334 l103 98 37 -28 c60 -44 169 -140 291 -256
l113 -108 59 0 59 0 76 106 c41 59 75 112 75 119 0 31 -324 317 -467 412 l-52
35 16 34 17 34 233 0 c270 0 256 -6 267 110 4 36 9 86 12 111 10 77 5 79 -218
79 l-190 0 6 26 c4 14 18 96 31 181 14 86 26 158 29 160 2 2 34 -8 71 -22 44
-16 88 -25 126 -25 56 0 60 2 79 33 38 61 123 282 148 383 32 131 26 182 -27
235 -49 49 -90 59 -259 66 l-144 6 6 30 c3 16 6 40 6 53 l0 24 204 0 c151 0
206 3 214 13 5 6 15 60 22 120 9 85 9 111 0 122 -10 12 -48 15 -211 15 -110 0
-199 3 -199 8 0 4 5 46 11 92 15 119 13 120 -180 120 -114 0 -151 -3 -168 -15z
m313 -82 c-4 -32 -9 -79 -12 -105 l-6 -48 212 0 212 0 -6 -77 c-4 -43 -9 -90
-12 -105 l-6 -28 -208 0 -208 0 -6 -27 c-3 -16 -8 -56 -11 -89 l-7 -62 174 -4
c183 -4 209 -10 252 -57 53 -59 20 -226 -97 -486 -44 -98 -45 -100 -81 -103
-24 -2 -70 9 -132 33 -53 20 -98 34 -100 32 -2 -2 -17 -88 -33 -193 -17 -104
-35 -205 -41 -224 -5 -19 -10 -36 -10 -37 0 -2 95 -3 211 -3 l212 0 -7 -62
c-4 -35 -9 -84 -13 -110 l-6 -48 -236 0 -237 0 -29 -60 c-16 -33 -27 -61 -24
-63 2 -2 36 -25 74 -52 111 -77 246 -188 351 -289 l98 -92 -69 -97 c-96 -135
-97 -135 -264 21 -154 144 -328 292 -342 292 -2 0 -49 -44 -104 -98 -117 -114
-214 -188 -361 -278 -87 -52 -114 -64 -149 -64 l-43 0 -53 97 c-28 53 -47 99
-42 100 20 7 211 138 288 198 105 82 217 201 284 300 l53 80 -212 3 -212 2 6
78 c4 42 10 92 13 110 l5 32 249 0 248 0 10 38 c6 20 15 57 21 82 15 64 59
354 54 359 -2 2 -31 -21 -63 -52 -92 -88 -99 -86 -255 69 l-128 126 60 66 c55
62 62 67 105 70 44 3 49 0 126 -68 44 -39 97 -91 118 -115 20 -25 40 -45 44
-45 3 0 9 24 13 53 4 28 9 67 12 85 l6 32 150 0 150 0 -6 -67 -5 -68 15 35
c32 69 81 209 76 215 -3 3 -218 5 -479 5 -422 0 -473 2 -473 16 0 8 5 58 12
110 l11 94 254 0 253 0 0 29 c0 15 3 56 6 90 l7 61 -191 0 c-105 0 -193 3
-195 8 -2 4 1 50 7 102 l11 95 196 3 197 2 6 88 c11 134 -6 122 168 122 l150
0 -6 -57z m-1046 -725 c64 -33 84 -66 88 -146 2 -41 -18 -239 -52 -515 -31
-246 -56 -457 -56 -468 0 -20 1 -20 31 5 21 18 42 26 67 26 35 0 41 -5 105
-90 37 -50 65 -95 62 -99 -9 -15 -233 -183 -330 -248 -49 -33 -131 -84 -182
-112 -74 -42 -99 -52 -129 -49 -37 3 -40 6 -91 96 -29 52 -51 98 -48 102 3 5
38 27 78 49 39 22 78 44 85 49 8 6 35 195 82 577 39 312 70 578 70 591 0 24
-1 24 -101 24 l-102 0 7 73 c4 39 9 91 12 115 l6 42 177 0 c164 0 180 -2 221
-22z m1058 -103 l-11 -25 -171 -2 -171 -3 -7 -25 c-4 -14 -10 -39 -15 -57 l-8
-31 -89 84 -88 84 286 0 286 0 -12 -25z m-610 -429 l127 -124 -70 -65 c-64
-61 -74 -66 -115 -67 -42 0 -47 3 -120 78 -41 43 -97 97 -123 121 l-48 42 63
69 c61 66 65 68 111 69 l48 1 127 -124z m176 -90 c-35 -205 -30 -196 -106
-196 l-63 0 78 73 c42 40 77 78 77 84 0 7 -25 41 -56 75 l-56 63 50 3 c37 2
55 9 72 27 13 14 25 24 26 22 2 -1 -9 -69 -22 -151z m-404 -90 l105 -106 -112
0 c-84 0 -115 -4 -126 -14 -8 -9 -17 -46 -21 -88 -12 -120 -18 -148 -32 -148
-9 0 -12 9 -9 28 5 25 55 435 55 447 0 15 44 -23 140 -119z"/>
<path d="M6123 5335 c-16 -11 -23 -30 -28 -73 -3 -31 -8 -74 -11 -94 l-6 -38
-339 0 -339 0 -10 -22 c-5 -13 -23 -160 -41 -328 l-31 -304 22 -18 c19 -16 43
-18 172 -18 135 0 149 -2 138 -16 -23 -27 -220 -154 -311 -200 -49 -24 -93
-52 -98 -62 -8 -14 2 -43 41 -128 64 -139 69 -144 130 -144 34 0 47 -4 42 -11
-6 -11 -33 -210 -34 -256 -1 -51 12 -53 281 -53 192 0 249 -3 249 -12 1 -7
-12 -133 -27 -280 l-28 -268 -371 0 c-318 0 -373 -2 -384 -15 -20 -24 -45
-272 -30 -290 11 -13 135 -15 945 -15 748 0 935 3 943 13 6 7 16 53 21 102 6
50 13 109 16 131 10 76 21 74 -376 74 -272 0 -349 3 -349 13 -1 6 12 132 27
280 l27 267 241 0 c177 0 246 3 258 13 22 15 52 259 36 289 -9 17 -40 18 -722
18 l-712 0 60 28 c103 49 277 157 375 233 160 123 366 347 358 388 -2 8 -48
51 -102 95 -92 73 -104 80 -153 84 l-54 5 -120 -124 -119 -124 6 55 c3 30 11
107 18 170 l11 115 533 3 532 2 0 -32 c0 -18 -7 -89 -15 -158 -8 -69 -15 -131
-15 -138 0 -7 -28 9 -62 36 -35 27 -97 72 -139 101 -73 50 -77 52 -134 49
l-60 -3 -72 -100 c-50 -69 -72 -108 -70 -125 1 -18 24 -39 88 -85 142 -99 269
-207 405 -339 l128 -126 51 0 c45 0 55 4 82 33 45 48 143 182 143 196 0 16
-135 159 -229 241 l-74 65 156 5 c100 3 160 9 168 17 19 19 59 438 47 495 -17
83 -75 145 -157 168 -20 5 -155 10 -304 10 -251 0 -268 1 -263 18 2 9 8 51 11
93 10 108 7 109 -195 109 -122 0 -160 -3 -177 -15z m333 -112 c-4 -49 -9 -96
-12 -105 -4 -15 20 -17 288 -20 323 -4 352 -9 403 -70 46 -54 49 -92 26 -313
-12 -110 -21 -208 -21 -217 0 -16 -14 -18 -160 -18 -154 0 -160 1 -160 20 0
26 28 295 35 333 l5 27 -574 0 -573 0 -17 -172 c-10 -95 -20 -181 -22 -190 -5
-16 -21 -18 -160 -18 l-154 0 0 24 c0 13 14 151 30 306 17 155 30 284 30 286
0 2 157 4 349 4 l349 0 7 98 c4 53 9 100 12 105 2 4 76 7 165 7 l160 0 -6 -87z
m-340 -604 c119 -93 113 -79 61 -146 -80 -105 -269 -277 -398 -363 -164 -109
-306 -180 -362 -180 l-42 0 -53 106 c-29 59 -52 107 -50 109 2 1 28 15 58 30
206 104 408 259 556 428 64 73 70 77 109 77 36 0 53 -9 121 -61z m443 -21
c203 -138 549 -444 537 -474 -2 -6 -34 -51 -71 -98 -64 -83 -68 -86 -107 -86
-38 0 -48 7 -172 127 -136 131 -273 245 -395 329 -39 27 -71 53 -71 58 0 4 29
50 65 102 63 89 68 94 102 94 28 0 55 -13 112 -52z m308 -790 c-4 -29 -10 -86
-13 -125 l-7 -73 -258 0 c-201 0 -259 -3 -259 -12 0 -7 -14 -137 -30 -288 -16
-151 -30 -290 -30 -307 l0 -33 366 0 367 0 -7 -47 c-3 -27 -9 -81 -12 -120
l-7 -73 -918 0 c-729 0 -919 3 -919 13 0 6 5 60 12 120 l11 107 384 0 c300 0
383 3 383 13 0 6 14 138 30 292 16 154 30 292 30 308 l0 27 -265 0 -265 0 0
25 c0 13 5 69 11 125 l12 100 695 0 695 0 -6 -52z"/>
<path d="M3256 5281 c-59 -32 -112 -64 -116 -71 -11 -17 -5 -30 56 -130 61
-101 105 -186 150 -294 19 -44 39 -83 46 -88 7 -4 34 -8 60 -8 38 0 68 11 162
61 67 35 117 68 121 79 8 24 -64 186 -151 340 -92 162 -100 170 -166 170 -45
0 -69 -9 -162 -59z m272 -88 c90 -158 176 -343 165 -354 -5 -5 -51 -32 -103
-59 -72 -38 -105 -50 -138 -50 -42 0 -44 1 -60 43 -30 77 -119 253 -170 335
-36 57 -47 84 -39 89 7 5 50 29 97 55 69 38 95 47 136 47 l51 1 61 -107z"/>
<path d="M1476 4768 c-10 -106 -20 -201 -22 -210 -5 -17 17 -18 358 -18 l364
0 17 193 c10 105 17 200 17 210 0 16 -24 17 -358 17 l-358 0 -18 -192z m520
75 c-7 -83 -26 -239 -32 -260 -3 -10 -59 -13 -239 -13 l-235 0 4 23 c3 12 10
74 16 137 6 63 13 132 16 153 l6 37 235 0 236 0 -7 -77z"/>
<path d="M1426 4288 c-3 -13 -17 -97 -31 -188 -14 -91 -28 -175 -31 -187 l-6
-23 376 0 c207 0 376 3 376 8 0 4 9 90 20 192 11 102 20 193 20 203 0 16 -24
17 -360 17 l-360 0 -4 -22z m499 -65 c-3 -32 -10 -89 -15 -128 -5 -38 -12 -91
-15 -117 l-6 -48 -240 0 c-131 0 -239 1 -239 3 0 1 11 76 25 167 14 91 25 168
25 173 0 4 106 7 236 7 l235 0 -6 -57z"/>
<path d="M8370 4403 c0 -5 -7 -66 -15 -138 -8 -71 -15 -142 -15 -157 l0 -28
109 0 110 0 6 43 c11 83 25 223 25 255 l0 32 -110 0 c-60 0 -110 -3 -110 -7z
m179 -55 c0 -13 -6 -68 -12 -123 l-12 -100 -68 -8 c-38 -5 -71 -6 -74 -3 -3 2
1 61 7 130 l13 126 73 0 c70 0 74 -1 73 -22z"/>
<path d="M8296 3693 c-9 -98 -19 -188 -22 -200 -4 -23 -3 -23 109 -23 l113 0
17 168 c10 92 20 182 24 200 l5 32 -114 0 -114 0 -18 -177z m190 95 c-3 -24
-11 -89 -17 -145 -7 -56 -15 -106 -19 -112 -3 -6 -34 -14 -68 -17 -59 -7 -62
-6 -62 15 0 23 16 187 26 259 l5 42 71 0 70 0 -6 -42z"/>
<path d="M9130 9990 c0 -5 20 -36 44 -68 25 -32 80 -110 124 -173 43 -63 135
-195 203 -294 155 -225 125 -180 324 -477 l170 -253 3 455 2 455 -51 75 c-29
41 -79 115 -113 163 -34 49 -65 97 -71 108 -9 18 -23 19 -322 19 -200 0 -313
-4 -313 -10z"/>
<path d="M9820 9989 c0 -6 9 -23 21 -37 11 -15 50 -67 85 -117 36 -49 67 -92
70 -94 2 -2 4 55 4 127 l0 132 -90 0 c-58 0 -90 -4 -90 -11z"/>
<path d="M0 287 l0 -287 150 0 c83 0 150 2 150 4 0 3 -12 27 -26 53 -14 26
-62 118 -106 203 -44 85 -91 173 -103 195 -13 22 -33 58 -44 80 l-21 40 0
-288z"/>
</g>
</svg>
