<?xml version="1.0" standalone="no"?>
<!DOCTYPE svg PUBLIC "-//W3C//DTD SVG 20010904//EN"
 "http://www.w3.org/TR/2001/REC-SVG-20010904/DTD/svg10.dtd">
<svg version="1.0" xmlns="http://www.w3.org/2000/svg"
 width="954.000000pt" height="1000.000000pt" viewBox="0 0 954.000000 1000.000000"
 preserveAspectRatio="xMidYMid meet">

<g transform="translate(0.000000,1000.000000) scale(0.100000,-0.100000)"
fill="#000000" stroke="none">
<path d="M0 5000 l0 -5000 4770 0 4770 0 0 5000 0 5000 -4770 0 -4770 0 0
-5000z m6853 4681 c230 -55 471 -163 637 -286 30 -22 62 -45 72 -50 44 -26
184 -165 232 -230 182 -245 268 -476 283 -760 7 -143 -5 -199 -68 -307 -61
-106 -76 -115 -76 -45 1 106 -51 201 -147 266 -49 33 -104 44 -160 31 -60 -15
-191 -39 -193 -36 -1 1 5 24 13 51 39 125 53 198 59 305 10 176 -3 241 -77
390 -34 69 -66 127 -70 129 -5 1 -19 13 -31 25 -236 238 -663 336 -940 215
-234 -102 -380 -303 -467 -644 -55 -215 -80 -552 -44 -603 16 -24 16 -23 -35
-101 -7 -11 -16 -8 -47 17 -44 35 -149 92 -170 92 -26 0 -45 60 -56 178 -17
180 10 375 83 602 30 92 128 295 179 370 94 138 285 289 445 351 150 59 191
67 328 68 109 1 146 -3 250 -28z m-3968 -371 c140 -37 324 -139 417 -232 94
-95 193 -252 224 -358 28 -94 14 -342 -22 -381 -19 -21 -18 -56 2 -67 12 -6
-5 -18 -67 -46 -45 -20 -102 -50 -126 -66 -24 -17 -46 -30 -49 -30 -11 0 -2
43 26 126 34 99 50 207 31 218 -6 4 -11 26 -11 48 0 49 -16 150 -37 238 -63
256 -206 365 -494 377 -165 7 -233 -11 -341 -93 -135 -102 -224 -235 -293
-436 -43 -127 -45 -201 -9 -320 4 -12 -23 -1 -87 37 -51 30 -97 55 -101 55
-13 0 -9 103 6 177 18 84 72 239 96 273 9 14 20 33 23 43 4 9 31 55 62 102
101 153 335 327 477 354 66 13 184 5 273 -19z m2365 10 c4 -6 9 -10 11 -9 2 2
45 -3 94 -9 82 -12 150 -24 291 -54 l52 -11 -24 -46 c-69 -135 -128 -314 -170
-521 -24 -114 -26 -139 -21 -285 4 -88 9 -169 12 -180 4 -17 -11 -28 -108 -76
l-114 -55 -34 29 c-49 41 -153 92 -234 112 -135 35 -388 22 -508 -26 -35 -15
-47 -57 -22 -76 25 -18 45 -17 97 7 65 28 226 44 319 31 96 -13 207 -51 264
-91 25 -17 45 -33 45 -35 0 -2 -30 -22 -66 -45 -36 -23 -105 -80 -154 -128
-78 -77 -89 -93 -100 -140 -10 -41 -9 -56 0 -67 23 -28 70 -11 70 25 0 51 133
187 263 267 135 83 254 146 277 146 95 0 215 -58 335 -163 237 -207 400 -387
657 -727 283 -376 396 -565 480 -801 76 -214 119 -579 88 -743 -15 -80 -8
-104 31 -104 40 0 52 55 53 245 1 205 -15 344 -58 502 -68 245 -151 414 -329
671 -49 70 -87 131 -84 134 4 3 34 0 69 -6 42 -7 89 -8 143 -2 79 9 80 8 103
-18 106 -120 257 -403 306 -571 27 -96 46 -232 46 -337 0 -115 -24 -349 -44
-438 -8 -33 -26 -116 -41 -185 -50 -233 -96 -339 -159 -365 -19 -8 -36 -24
-39 -36 -5 -17 -11 -20 -29 -15 -13 3 -60 9 -105 13 l-82 6 14 31 c7 17 30 67
49 112 20 44 48 127 63 185 27 101 28 112 27 349 -1 257 -6 290 -44 290 -36 0
-40 -29 -34 -241 6 -182 4 -216 -15 -312 -40 -206 -124 -389 -246 -536 -69
-84 -147 -141 -193 -141 -52 0 -80 -38 -50 -68 16 -16 54 -15 116 3 63 19 139
87 220 195 53 71 60 77 77 64 10 -8 42 -14 70 -14 68 0 194 -33 248 -64 111
-66 176 -177 184 -321 12 -189 -78 -373 -266 -547 -84 -78 -171 -130 -274
-164 -74 -25 -89 -26 -216 -22 -100 3 -144 9 -166 21 -16 9 -40 21 -52 28 -19
10 -36 2 -158 -77 -295 -193 -436 -263 -633 -315 -170 -45 -484 -91 -684 -101
-63 -4 -67 -2 -82 23 -20 34 -110 103 -167 128 -24 11 -68 23 -97 27 -49 6
-55 5 -81 -20 -16 -15 -45 -51 -64 -79 -39 -58 -119 -268 -138 -365 l-12 -64
-14 34 c-17 40 -58 85 -97 105 -74 39 -213 45 -311 15 -111 -35 -143 -54 -196
-113 -30 -33 -61 -74 -70 -90 l-15 -30 -14 27 c-22 39 -143 148 -205 183 -30
17 -55 35 -55 40 0 18 126 122 187 153 l61 32 89 -22 c166 -42 391 -59 550
-41 108 12 146 28 141 62 -3 20 -8 22 -63 20 -392 -10 -460 -4 -700 58 -177
47 -428 159 -561 250 -139 96 -304 271 -304 321 0 10 -10 32 -21 48 -20 26
-21 38 -17 137 8 169 61 294 159 372 l40 33 74 -71 c103 -98 188 -139 245
-120 39 14 40 46 1 126 -33 67 -61 187 -61 258 0 38 3 45 19 45 28 0 51 38 51
85 0 51 37 130 81 174 19 18 63 48 99 65 63 30 70 31 190 30 113 -1 131 -3
180 -26 30 -14 71 -41 91 -60 48 -46 107 -166 158 -325 45 -137 62 -160 95
-124 22 24 21 36 -18 153 -102 311 -201 424 -400 459 -65 11 -210 7 -261 -7
-19 -5 -23 3 -40 88 -27 128 -28 451 -2 583 78 396 174 680 320 951 99 182
171 286 250 360 49 45 54 59 25 77 -46 30 -117 -35 -236 -213 -162 -244 -283
-525 -367 -850 l-27 -106 -33 4 c-32 4 -34 2 -53 -51 -46 -121 -83 -248 -107
-362 -14 -66 -27 -126 -30 -133 -2 -7 -13 -67 -24 -135 -58 -361 -58 -745 -1
-912 l19 -55 -27 14 c-44 23 -120 104 -158 168 -75 129 -149 373 -174 578 -16
127 -17 421 -1 545 20 165 50 313 87 435 66 220 70 236 55 254 -16 19 -47 21
-58 4 -17 -28 -76 -222 -109 -359 -50 -208 -77 -528 -64 -754 13 -214 42 -361
110 -557 21 -62 37 -114 35 -117 -3 -2 -34 4 -70 14 -81 21 -146 66 -144 98 4
48 0 57 -30 57 -22 0 -31 -7 -40 -28 -16 -38 -16 -144 -1 -215 6 -32 10 -61 7
-63 -6 -7 -228 187 -276 242 -24 27 -51 65 -62 85 -18 37 -43 180 -55 319 -8
93 -16 110 -54 110 -41 0 -37 14 -77 -230 -23 -140 -23 -456 1 -583 10 -54 16
-100 14 -103 -10 -9 -90 160 -122 256 -48 146 -68 293 -68 519 0 102 2 195 5
206 3 11 8 49 12 85 9 85 42 263 59 320 8 25 26 92 41 150 43 166 103 354 132
412 14 29 71 121 126 203 55 83 114 173 132 200 120 187 248 372 275 395 3 3
31 35 63 71 31 36 106 108 167 159 86 74 110 99 110 119 1 66 385 405 542 479
144 68 219 85 395 90 205 6 306 -14 429 -83 109 -62 160 -117 168 -181 10 -79
19 -99 45 -102 32 -5 41 12 41 78 0 138 -125 261 -343 337 -126 43 -420 51
-547 13 -50 -14 -51 -14 -35 24 26 61 43 194 39 288 -7 144 -68 292 -178 438
-25 33 -46 62 -46 65 0 2 17 7 38 11 20 4 46 12 57 18 20 10 93 32 148 43 15
3 27 9 27 14 0 4 21 11 48 15 26 3 75 13 109 20 34 8 66 13 70 13 4 -1 21 3
36 9 16 7 41 12 57 12 16 0 30 4 32 9 6 18 244 45 498 57 63 3 122 6 130 7 8
1 145 2 304 1 210 -2 291 -5 296 -14z m1749 -37 c36 -14 84 -38 107 -53 l43
-27 -67 -51 c-93 -72 -209 -193 -454 -477 -186 -214 -340 -389 -502 -569
l-169 -187 -26 23 c-14 13 -27 23 -29 24 -7 2 33 67 66 105 39 45 95 128 192
285 202 328 457 669 668 894 29 30 52 59 52 64 0 11 40 1 119 -31z m-742 -201
c12 -7 29 -12 38 -12 8 0 32 -10 53 -23 20 -13 58 -31 85 -41 26 -10 47 -21
47 -24 -1 -7 -39 -64 -180 -265 -61 -88 -79 -107 -100 -107 -49 0 -99 -21
-166 -70 -81 -60 -84 -57 -60 70 36 189 94 346 166 453 28 42 32 44 63 38 18
-5 42 -13 54 -19z m-3143 -163 c38 -45 77 -139 96 -229 6 -30 14 -123 17 -205
6 -154 3 -178 -39 -288 l-11 -29 -17 54 c-25 82 -81 152 -146 183 -129 61
-263 54 -391 -21 -79 -46 -134 -144 -137 -242 -1 -51 3 -67 16 -76 31 -19 52
4 60 69 9 72 45 134 100 174 57 42 107 54 203 49 125 -7 176 -47 220 -173 16
-47 26 -61 44 -63 19 -3 22 -8 16 -25 -4 -12 -8 -32 -9 -44 -2 -12 -20 -36
-41 -53 -20 -16 -80 -72 -133 -125 l-95 -94 -46 38 c-97 80 -282 212 -333 237
-29 15 -60 32 -68 40 -8 7 -55 37 -104 68 -102 64 -100 60 -100 236 -1 107 7
123 74 154 57 26 124 68 133 82 4 8 14 14 22 14 8 0 43 18 77 40 35 22 69 40
76 40 6 0 12 4 12 9 0 5 16 15 35 21 19 6 41 18 48 25 8 7 49 28 92 46 44 18
120 54 170 80 49 26 98 48 107 48 9 1 32 -18 52 -40z m3779 -146 c9 -3 17 -9
17 -14 0 -5 7 -9 15 -9 8 0 15 -4 15 -9 0 -7 43 -31 215 -119 14 -7 25 -18 25
-24 0 -6 3 -8 7 -5 3 4 12 2 20 -4 7 -6 13 -8 13 -4 0 4 15 -4 34 -19 19 -14
38 -26 41 -26 10 0 35 -27 35 -38 0 -6 14 -13 31 -17 31 -7 31 -8 25 -52 -3
-24 -15 -75 -27 -114 -20 -65 -23 -69 -50 -69 -16 0 -64 -10 -107 -21 -264
-73 -251 -72 -280 -21 -11 20 -45 60 -74 88 -49 47 -195 156 -247 183 -21 12
-21 13 30 74 121 147 211 238 228 231 9 -3 24 -9 34 -11z m-741 -280 c-11 -16
-56 -85 -102 -155 -110 -171 -110 -171 -109 -62 l0 89 56 45 c63 50 153 110
165 110 5 0 0 -12 -10 -27z m-4411 -96 c103 -46 434 -236 571 -329 31 -21 61
-38 66 -38 5 0 15 -7 22 -15 7 -8 40 -34 74 -57 221 -150 284 -194 308 -214
27 -22 27 -23 9 -45 -18 -22 -19 -22 -42 -6 -162 116 -359 239 -462 289 -185
90 -357 157 -667 259 -36 12 -69 25 -73 29 -12 11 19 78 59 126 38 48 30 48
135 1z m4837 4 c122 -72 297 -230 277 -250 -17 -17 -609 -70 -623 -56 -2 2 34
45 80 97 45 51 112 126 147 166 34 39 65 72 67 72 2 0 25 -13 52 -29z m1166
-205 c65 -42 92 -84 101 -157 6 -49 4 -60 -12 -76 -24 -24 -100 -39 -268 -53
-71 -6 -148 -16 -170 -22 -25 -6 -86 -8 -165 -4 -69 3 -199 2 -290 -4 -376
-22 -904 -40 -913 -31 -6 6 5 27 31 59 50 59 68 75 90 78 10 1 52 9 95 18 43
9 109 16 146 16 188 0 570 54 805 114 54 14 102 23 106 21 4 -3 27 2 51 11 24
8 91 22 149 30 86 12 174 27 188 33 2 0 27 -14 56 -33z m-5910 -116 c36 -12
66 -26 66 -33 0 -7 23 -75 50 -151 27 -77 48 -142 46 -144 -2 -2 -62 -12 -132
-22 -71 -11 -174 -26 -228 -35 -115 -17 -194 -19 -231 -5 l-27 10 64 69 c34
37 86 96 113 129 28 33 59 65 70 72 11 6 31 26 44 45 31 46 71 85 86 85 7 0
43 -9 79 -20z m253 -94 c168 -72 178 -79 211 -151 17 -36 31 -69 32 -72 0 -8
-19 -8 -156 -5 -68 2 -83 5 -87 20 -3 9 -26 66 -51 126 -25 59 -46 110 -46
112 0 9 23 2 97 -30z m5840 -66 c-89 -127 -342 -385 -461 -470 -42 -30 -109
-78 -148 -106 -156 -113 -296 -163 -478 -171 -119 -5 -128 -4 -191 21 -36 14
-70 26 -76 26 -6 0 -22 17 -37 38 -75 107 -377 470 -411 494 -17 12 18 17 118
15 l99 -2 12 -36 c29 -83 102 -139 248 -190 48 -17 39 -29 -22 -29 -67 0 -103
-38 -65 -70 21 -17 169 -4 260 22 150 45 231 101 355 247 l85 101 85 0 c47 0
162 7 255 16 94 9 196 17 229 18 57 1 60 3 100 48 41 47 69 65 43 28z m247
-179 c17 -19 37 -40 44 -47 7 -7 29 -35 49 -61 20 -26 44 -55 53 -63 9 -8 25
-28 36 -45 29 -47 126 -177 151 -205 13 -14 23 -29 23 -33 0 -5 10 -23 23 -40
13 -18 32 -50 42 -72 11 -22 25 -47 31 -55 6 -8 17 -31 24 -50 8 -19 16 -37
19 -40 14 -12 131 -243 131 -258 0 -6 4 -12 8 -14 15 -6 161 -307 168 -345 4
-21 18 -67 32 -103 13 -36 32 -102 42 -148 10 -46 26 -95 36 -109 9 -15 23
-49 31 -77 42 -149 53 -194 53 -225 0 -18 4 -50 10 -70 30 -115 52 -239 70
-402 35 -319 36 -399 7 -524 -2 -11 -8 -60 -11 -110 -7 -94 -20 -195 -38 -305
-6 -36 -12 -120 -14 -188 -2 -125 -38 -327 -70 -399 -8 -17 -14 -38 -14 -47 0
-17 -30 -98 -40 -106 -3 -3 -12 -30 -19 -60 -33 -142 -137 -408 -163 -418 -11
-5 -88 -159 -88 -177 0 -7 -6 -20 -13 -27 -8 -7 -20 -31 -27 -53 -7 -22 -31
-74 -53 -115 -22 -41 -57 -105 -76 -142 -20 -37 -43 -76 -51 -85 -9 -10 -31
-41 -50 -68 -19 -28 -44 -61 -57 -75 -13 -14 -23 -29 -23 -33 0 -11 -41 2 -58
19 -7 8 -20 14 -27 14 -17 0 -47 -43 -43 -62 6 -27 -49 -102 -111 -150 -95
-75 -178 -111 -271 -116 -126 -7 -195 34 -284 172 -64 99 -126 202 -126 209 0
8 320 111 443 143 92 23 114 26 140 16 41 -15 60 -10 184 49 258 120 400 255
507 480 157 334 191 685 116 1214 -11 77 -27 169 -35 205 -54 239 -75 315
-144 525 -42 127 -165 463 -201 545 -10 25 -47 113 -81 195 -110 268 -150 358
-216 490 -120 239 -180 329 -422 633 -88 110 -167 221 -199 280 -66 119 -88
144 -122 140 -33 -4 -40 -51 -12 -82 11 -11 39 -57 63 -101 50 -94 57 -104
213 -300 176 -221 176 -221 255 -344 73 -112 148 -253 228 -426 46 -100 185
-433 213 -510 10 -27 33 -86 50 -130 210 -537 295 -848 347 -1265 21 -169 23
-448 4 -585 -31 -223 -145 -525 -212 -559 -13 -6 -32 -29 -44 -50 -45 -86
-149 -178 -270 -238 -50 -25 -100 -39 -275 -78 -143 -33 -393 -106 -500 -147
-129 -50 -333 -155 -399 -206 -121 -94 -255 -255 -297 -359 -10 -27 -22 -48
-25 -48 -14 0 -40 137 -54 287 -27 285 -30 397 -10 513 43 259 78 364 223 671
52 111 86 190 127 299 24 61 38 142 38 211 0 54 -5 76 -26 114 l-27 47 73 79
c155 170 227 354 214 549 -7 103 -28 167 -79 242 -35 53 -131 138 -154 138 -6
0 -18 6 -28 13 -17 13 -16 15 17 35 63 37 117 164 176 420 73 310 99 616 70
805 -37 239 -146 493 -297 695 -32 42 -51 76 -46 81 5 5 27 14 49 21 91 29
177 79 365 211 170 120 309 254 472 455 l73 91 64 -61 c35 -34 78 -76 95 -95z
m-5679 24 c19 -15 18 -16 -15 -9 -19 3 -35 7 -35 8 0 0 -11 14 -25 30 l-25 28
40 -20 c22 -11 49 -28 60 -37z m4576 -3 c-99 -126 -249 -225 -276 -183 -3 6
-27 13 -53 16 -129 18 -249 68 -291 121 -34 43 -27 51 47 59 73 9 311 19 490
22 l112 1 -29 -36z m-4687 -102 c39 -6 65 -6 78 1 13 7 52 8 108 4 70 -6 93
-11 116 -30 29 -24 29 -24 9 -44 -18 -18 -38 -20 -235 -25 -219 -6 -425 -14
-560 -21 -41 -2 -142 -7 -225 -10 -82 -4 -174 -11 -205 -16 -30 -5 -72 -9 -93
-9 l-38 0 3 43 3 42 130 7 c72 3 211 18 310 33 276 41 448 48 599 25z m-1149
-193 c-15 -23 -14 -26 0 -41 20 -20 51 -20 151 -1 94 17 296 32 567 41 l198 6
74 -76 c41 -41 94 -85 116 -97 l42 -21 -75 -76 c-96 -99 -280 -315 -383 -450
-11 -15 -45 -58 -75 -97 -171 -215 -267 -350 -543 -760 -216 -321 -293 -452
-400 -675 -58 -123 -88 -194 -160 -380 -31 -79 -99 -317 -132 -460 -89 -391
-93 -814 -9 -997 7 -17 14 -35 14 -41 0 -18 51 -124 85 -178 19 -30 35 -58 35
-62 0 -11 82 -88 101 -95 8 -2 87 -59 175 -125 87 -65 202 -147 254 -182 52
-34 108 -72 125 -83 54 -39 308 -163 400 -196 101 -37 313 -67 402 -57 l52 6
5 -32 c3 -18 7 -57 10 -86 14 -141 168 -370 315 -468 l43 -28 -7 -89 c-17
-221 -5 -509 29 -684 12 -65 9 -91 -9 -64 -5 9 -41 27 -175 89 -37 17 -50 26
-78 54 -9 9 -41 28 -69 43 -29 14 -52 31 -50 37 1 7 -2 13 -8 13 -16 2 -75 39
-75 48 0 4 -11 7 -25 7 -14 0 -25 6 -25 12 0 17 -142 151 -212 200 -32 22 -60
48 -63 58 -3 9 -18 23 -33 31 -15 7 -53 38 -84 68 -31 30 -68 61 -82 70 -37
25 -196 189 -196 204 0 7 -16 26 -35 42 -19 17 -35 35 -35 42 0 6 -3 13 -7 15
-5 2 -24 26 -43 53 -19 28 -45 61 -57 75 -13 14 -26 33 -29 43 -3 9 -9 17 -12
17 -4 0 -16 17 -27 38 -11 20 -22 39 -25 42 -4 3 -16 21 -28 40 -12 19 -37 50
-57 69 -19 19 -35 38 -35 42 0 5 -7 9 -15 9 -8 0 -15 9 -15 20 0 11 -25 52
-55 92 -30 39 -55 77 -55 85 0 7 -5 13 -11 13 -5 0 -16 15 -24 34 -8 19 -19
37 -25 41 -5 3 -10 17 -10 31 0 13 -4 32 -10 42 -15 28 -50 110 -50 119 0 5
-20 49 -45 98 -25 50 -45 94 -45 99 0 4 -15 34 -34 65 -18 31 -39 74 -46 96
-7 22 -18 47 -25 55 -8 8 -17 29 -21 45 -4 17 -17 50 -29 75 -12 25 -28 66
-35 92 -7 26 -19 53 -26 59 -8 6 -14 23 -14 36 0 25 -30 159 -71 315 -11 43
-24 111 -29 150 -5 40 -16 114 -25 163 -9 50 -21 124 -26 165 -5 41 -13 98
-18 125 -13 77 -7 636 8 730 8 44 20 118 27 165 8 47 21 137 29 200 18 142 35
221 47 214 4 -3 9 1 9 8 7 82 23 169 40 218 4 14 11 42 15 63 3 21 17 61 30
88 13 27 24 65 24 85 0 21 4 33 10 29 6 -3 10 2 10 12 0 11 7 28 15 39 8 10
15 27 15 36 0 9 11 39 25 66 14 28 25 58 25 67 0 9 10 27 22 40 12 12 23 31
24 41 6 42 15 64 24 59 5 -3 14 12 20 34 5 21 17 44 25 51 17 14 45 67 45 87
0 7 4 13 10 13 5 0 12 17 16 37 4 20 15 46 25 57 11 11 19 25 19 32 0 7 11 25
25 40 14 15 28 45 32 66 3 22 12 42 19 45 8 3 14 10 14 17 0 6 16 31 35 55 19
24 35 50 35 58 0 7 9 21 21 31 17 15 54 70 96 145 7 12 23 31 36 42 14 11 33
36 43 55 l19 35 3 -32 c2 -18 -4 -43 -13 -56z m1340 15 c5 -1 -23 -33 -62 -72
l-72 -70 -58 34 c-71 42 -123 93 -102 100 23 9 257 15 294 8z m-381 -544 c-5
-7 -60 -92 -124 -189 -105 -159 -140 -226 -190 -369 -15 -41 -86 -299 -108
-390 -135 -557 -116 -1023 55 -1365 67 -132 174 -275 206 -275 15 0 67 61 67
79 0 6 -11 36 -25 67 -53 120 -87 404 -70 580 l8 79 14 -50 c29 -106 53 -142
167 -253 105 -102 228 -207 291 -248 15 -10 42 -18 59 -19 22 0 30 -4 28 -15
-2 -8 -12 -49 -22 -90 -22 -86 -27 -178 -16 -265 6 -53 4 -69 -20 -130 -28
-69 -28 -73 -28 -295 -1 -234 10 -317 61 -475 40 -125 141 -281 192 -297 12
-3 9 -15 -12 -59 -63 -132 -71 -279 -23 -423 l27 -79 -30 -31 c-36 -37 -61
-103 -61 -160 0 -65 19 -167 41 -215 19 -43 19 -44 -1 -88 -10 -24 -22 -59
-26 -78 -3 -19 -11 -35 -17 -35 -19 0 -109 75 -153 129 -89 108 -166 304 -149
380 5 24 14 29 75 45 74 20 211 85 248 119 26 24 28 49 6 68 -13 11 -22 10
-52 -8 -89 -52 -214 -104 -302 -124 -60 -14 -276 -13 -347 1 -116 23 -349 119
-468 192 -339 211 -640 441 -702 536 -80 125 -136 282 -154 431 -17 135 -6
416 21 571 43 248 141 587 229 793 72 169 216 450 286 557 12 19 53 82 90 140
37 58 75 116 84 130 10 14 69 102 132 195 187 277 421 590 638 852 71 87 92
110 75 81z m1021 -1130 c0 -212 3 -255 22 -338 l21 -95 -26 -20 c-67 -50 -103
-91 -131 -146 -19 -38 -31 -53 -33 -42 -10 52 25 360 63 558 16 82 78 325 83
325 0 0 1 -109 1 -242z m-605 -998 c20 -10 52 -21 73 -25 l36 -7 -52 -59 c-28
-32 -55 -59 -59 -59 -18 0 -78 133 -78 172 0 11 32 2 80 -22z m-5 -790 c9 -29
110 -130 129 -130 9 0 35 -17 59 -39 104 -95 357 -238 507 -286 30 -10 59 -21
63 -25 5 -4 -18 -26 -50 -48 -32 -22 -76 -61 -97 -86 -31 -38 -43 -46 -71 -46
-22 0 -45 -9 -66 -27 -38 -33 -89 -109 -89 -135 0 -12 -8 -18 -24 -18 -28 0
-112 -43 -146 -76 -25 -23 -26 -23 -54 -5 -86 57 -170 276 -197 514 -11 103
-7 332 7 400 7 32 20 35 29 7z m4476 -90 c8 -34 5 -60 -12 -129 -21 -83 -75
-236 -106 -295 l-15 -29 -32 54 c-40 71 -102 144 -133 158 -19 9 -46 5 -136
-19 -62 -16 -115 -30 -118 -30 -3 0 -29 29 -58 65 -54 68 -106 107 -180 135
l-43 17 32 23 32 22 76 -22 c60 -18 101 -23 187 -23 176 1 301 36 411 116 47
35 50 35 67 18 10 -10 23 -37 28 -61z m-871 -133 c10 -12 35 -28 56 -36 49
-17 111 -64 147 -109 31 -40 29 -48 -16 -57 -144 -31 -423 -154 -582 -257 -97
-62 -204 -156 -211 -184 -5 -20 -12 -24 -45 -24 -22 0 -58 -9 -80 -21 l-41
-20 7 43 c12 68 8 92 -23 165 -25 57 -38 73 -77 98 -64 40 -147 45 -244 16
-81 -25 -124 -58 -172 -133 -18 -28 -34 -47 -36 -42 -2 5 -11 41 -21 79 -11
39 -22 78 -27 88 -6 15 -1 17 50 17 65 0 467 52 582 75 171 35 437 144 572
234 116 77 136 91 140 91 2 0 11 -10 21 -23z m-1620 -225 c52 -21 116 -78 149
-132 48 -78 82 -231 88 -396 7 -173 -7 -284 -53 -431 -42 -137 -71 -173 -134
-173 -52 0 -90 36 -119 116 -73 193 -37 530 81 771 44 92 44 118 -3 118 -35 0
-82 -85 -129 -235 -71 -223 -87 -454 -44 -625 15 -61 15 -66 -2 -101 -11 -21
-24 -39 -30 -41 -16 -5 -59 81 -83 167 -62 215 -22 584 89 832 23 51 56 108
73 125 33 35 44 35 117 5z m2915 -1253 c39 -79 119 -193 177 -256 17 -17 58
-44 92 -59 161 -74 363 -21 535 140 l44 41 -6 -75 c-9 -113 -52 -297 -84 -359
-40 -79 -86 -102 -207 -109 -139 -7 -317 20 -357 54 -9 8 -26 13 -39 12 -20
-3 -26 8 -61 107 -21 61 -41 117 -44 126 -13 38 -75 26 -75 -14 1 -55 124
-376 189 -491 60 -106 125 -190 206 -264 43 -39 62 -63 54 -68 -23 -14 -148
-16 -228 -5 -184 27 -346 107 -470 230 -93 94 -216 269 -306 438 l-27 51 17
54 c63 190 218 359 435 472 30 16 64 35 75 43 11 7 24 13 30 12 5 0 28 -36 50
-80z m277 -743 l46 -11 -42 -43 -43 -43 -31 59 c-18 33 -32 62 -32 66 0 3 12
0 28 -6 15 -6 48 -16 74 -22z m-805 -53 c57 -91 176 -235 247 -300 l65 -60
-32 -26 c-18 -14 -45 -29 -62 -33 -16 -4 -41 -14 -55 -24 -14 -10 -35 -21 -47
-24 -13 -4 -23 -11 -23 -15 0 -4 -18 -16 -40 -27 -22 -10 -40 -22 -40 -26 0
-4 -13 -14 -29 -22 -16 -9 -46 -31 -66 -50 -20 -19 -58 -45 -83 -58 -26 -12
-53 -28 -60 -35 -7 -7 -18 -13 -24 -13 -6 0 -9 -3 -5 -6 6 -6 -81 -59 -115
-70 -10 -4 -18 -10 -18 -15 0 -12 -55 -39 -78 -39 -11 0 -25 -7 -32 -15 -7 -8
-21 -15 -31 -15 -11 0 -19 -4 -19 -9 0 -5 -18 -11 -40 -15 -22 -3 -40 -11 -40
-18 0 -6 -2 -9 -6 -6 -6 7 -65 -11 -151 -45 -34 -14 -64 -22 -67 -19 -3 3 -6
1 -6 -5 0 -5 -13 -10 -29 -11 -16 0 -50 -10 -75 -21 -25 -12 -49 -20 -53 -20
-8 2 -13 1 -73 -20 -19 -7 -48 -15 -63 -17 -51 -7 -118 -34 -153 -61 -20 -15
-47 -26 -64 -25 -16 0 -34 -6 -41 -14 -7 -8 -30 -14 -60 -14 -26 0 -50 -4 -53
-9 -5 -8 -29 -10 -149 -12 -9 0 -15 -4 -12 -9 3 -5 1 -11 -5 -15 -5 -3 -10 1
-10 10 0 14 -2 14 -14 3 -9 -10 -43 -15 -102 -17 -49 -1 -91 -6 -94 -10 -9
-14 -133 -24 -125 -11 6 9 2 9 -13 1 -32 -17 -460 -15 -514 3 -24 7 -52 13
-63 14 -36 0 -92 9 -102 15 -19 12 -69 20 -122 19 -30 -1 -61 4 -69 10 -8 7
-29 11 -47 10 -19 -2 -40 4 -48 13 -10 9 -34 15 -65 15 -27 0 -63 7 -78 15
-16 8 -41 15 -55 15 -15 0 -40 7 -55 15 -16 8 -37 15 -46 15 -9 0 -20 5 -23
10 -3 6 -18 10 -32 10 -18 0 -24 4 -19 15 3 10 -1 15 -12 15 -10 0 -22 4 -27
9 -6 5 -23 11 -40 14 -16 2 -41 8 -55 14 -14 6 -32 13 -40 16 -8 3 21 6 65 6
44 1 96 6 115 11 19 6 72 15 118 20 67 8 105 21 210 69 70 32 152 66 183 75
30 8 102 36 160 61 57 26 122 53 144 61 22 8 45 22 52 30 11 15 17 15 72 1 68
-17 262 -14 316 5 100 36 153 68 206 125 45 49 57 57 67 46 7 -7 21 -13 31
-13 10 0 53 -16 96 -35 170 -78 434 -155 598 -175 222 -27 479 74 727 285 101
86 279 265 296 297 7 13 22 60 35 106 12 45 24 82 26 82 2 0 20 -26 40 -57z
m-3577 -993 c0 -5 -11 -10 -24 -10 -14 0 -28 5 -31 10 -4 6 7 10 24 10 17 0
31 -4 31 -10z"/>
<path d="M5150 7340 c-17 -17 -21 -29 -16 -54 45 -220 59 -475 36 -650 -34
-247 -151 -613 -264 -819 -62 -115 -138 -199 -238 -267 -72 -49 -83 -60 -83
-86 0 -46 42 -45 108 2 157 114 229 200 320 386 104 214 185 467 233 738 23
125 22 364 -1 520 -10 63 -21 139 -24 169 -4 40 -12 57 -28 68 -19 13 -24 12
-43 -7z"/>
<path d="M5297 6914 c-19 -19 -2 -58 56 -131 106 -132 238 -308 290 -388 40
-61 99 -165 93 -165 -2 0 -43 21 -91 46 -96 51 -116 58 -258 80 -112 17 -124
14 -170 -48 -63 -86 -64 -155 -2 -218 55 -57 90 -66 300 -84 184 -15 271 -31
308 -58 45 -33 46 -373 2 -505 -3 -9 -20 -7 -62 9 -141 50 -380 10 -517 -87
-97 -70 -133 -116 -216 -284 -97 -195 -108 -328 -25 -307 22 6 25 12 26 54 1
97 123 345 209 426 63 59 176 112 278 132 132 25 262 -5 329 -78 36 -38 81
-134 88 -185 12 -92 17 -104 41 -115 29 -14 29 -12 -29 -238 -48 -190 -51
-224 -19 -228 33 -5 46 10 67 77 16 55 20 59 59 71 237 71 455 317 638 720 69
153 75 172 53 194 -25 24 -53 4 -78 -57 -32 -78 -152 -313 -198 -386 -110
-177 -266 -328 -388 -375 l-44 -17 6 33 c3 18 20 98 36 178 55 266 57 473 6
675 -34 137 -58 187 -87 183 -40 -6 -43 -29 -14 -117 36 -115 56 -236 56 -351
0 -112 -10 -220 -20 -220 -4 0 -13 19 -20 43 -17 56 -46 114 -82 159 -17 20
-27 41 -24 47 18 28 46 221 46 310 0 186 -54 410 -140 581 -57 113 -99 174
-375 534 -51 66 -77 92 -95 94 -14 2 -29 0 -33 -4z m170 -655 c32 -12 67 -30
79 -40 11 -11 26 -19 32 -19 7 0 20 -4 30 -9 9 -6 39 -20 67 -33 45 -21 132
-94 123 -104 -3 -2 -36 3 -74 11 -38 7 -127 19 -199 25 -196 16 -212 19 -245
46 -36 31 -39 63 -9 110 20 32 23 34 79 34 36 0 83 -9 117 -21z"/>
<path d="M4646 6208 c-8 -24 -22 -68 -32 -98 -20 -65 -89 -206 -140 -287 -93
-146 -178 -229 -408 -393 -95 -68 -109 -91 -71 -116 18 -12 27 -8 85 28 141
90 315 239 383 328 125 164 220 348 253 487 16 70 10 93 -26 93 -24 0 -31 -6
-44 -42z"/>
<path d="M4584 4428 c-11 -13 -28 -36 -38 -51 -25 -40 -58 -50 -125 -36 -121
25 -128 25 -150 -12 -38 -62 -22 -166 46 -306 50 -101 116 -187 172 -220 31
-19 44 -21 103 -14 77 8 101 25 130 89 16 35 19 68 20 180 1 133 0 141 -37
252 -20 63 -42 121 -47 128 -16 19 -53 14 -74 -10z m73 -389 c-4 -157 -27
-192 -98 -155 -14 7 -37 16 -52 20 -15 3 -27 11 -27 16 0 5 -13 25 -30 43 -16
19 -30 38 -30 43 0 4 -6 15 -14 23 -18 21 -63 148 -68 192 l-3 34 91 -4 c99
-3 138 8 171 53 l18 24 23 -87 c19 -71 22 -106 19 -202z"/>
</g>
</svg>
